/* XPM */
static char * consumable_xpm[] = {
"32 32 334 2",
"  	c #C19D61",
". 	c #C29E64",
"+ 	c #C19D63",
"@ 	c #AF8F54",
"# 	c #B8955F",
"$ 	c #AF8F56",
"% 	c #C29E62",
"& 	c #AE8E55",
"* 	c #957342",
"= 	c #AF8F55",
"- 	c #9F844D",
"; 	c #B99660",
"> 	c #95743F",
", 	c #A0844D",
"' 	c #A1844C",
") 	c #AF8E55",
"! 	c #B7945E",
"~ 	c #AE8F55",
"{ 	c #AE8F56",
"] 	c #B08D54",
"^ 	c #742B03",
"/ 	c #B8935F",
"( 	c #B99561",
"_ 	c #B8945F",
": 	c #B89560",
"< 	c #B06416",
"[ 	c #572609",
"} 	c #A0824C",
"| 	c #A0854E",
"1 	c #957441",
"2 	c #B6955F",
"3 	c #752A04",
"4 	c #B7925D",
"5 	c #B89460",
"6 	c #967542",
"7 	c #9E834C",
"8 	c #A0834D",
"9 	c #AF6314",
"0 	c #562708",
"a 	c #9F844C",
"b 	c #7F6238",
"c 	c #947340",
"d 	c #7F6136",
"e 	c #806337",
"f 	c #806338",
"g 	c #7F6236",
"h 	c #806238",
"i 	c #7E6136",
"j 	c #6A512C",
"k 	c #69512C",
"l 	c #69502C",
"m 	c #732A03",
"n 	c #806135",
"o 	c #806236",
"p 	c #69512D",
"q 	c #7E6338",
"r 	c #68502B",
"s 	c #68502C",
"t 	c #7E6137",
"u 	c #7D6036",
"v 	c #B7935F",
"w 	c #C09D62",
"x 	c #C09C62",
"y 	c #A2844E",
"z 	c #C19D62",
"A 	c #C29C60",
"B 	c #B16515",
"C 	c #B36615",
"D 	c #B26413",
"E 	c #B26613",
"F 	c #732903",
"G 	c #562408",
"H 	c #752A03",
"I 	c #762B04",
"J 	c #732802",
"K 	c #B8925D",
"L 	c #C09C60",
"M 	c #C19B62",
"N 	c #AD8D54",
"O 	c #9F844E",
"P 	c #AD8E55",
"Q 	c #9F834D",
"R 	c #B9945B",
"S 	c #DAA217",
"T 	c #DAA315",
"U 	c #D9A418",
"V 	c #F7F792",
"W 	c #FFFEDE",
"X 	c #F7F48E",
"Y 	c #D8A119",
"Z 	c #562407",
"` 	c #AE6613",
" .	c #EBEC5A",
"..	c #EAED59",
"+.	c #F7F690",
"@.	c #EAC947",
"#.	c #AF6511",
"$.	c #752A01",
"%.	c #B9925D",
"&.	c #AE8E53",
"*.	c #D9A117",
"=.	c #ECCA44",
"-.	c #EAEC57",
";.	c #FFFEE2",
">.	c #FFFFE3",
",.	c #F7F794",
"'.	c #DAA419",
").	c #582608",
"!.	c #53250A",
"~.	c #F7F493",
"{.	c #F6F894",
"].	c #FEFEDD",
"^.	c #EAEE5A",
"/.	c #E9EE57",
"(.	c #EBED57",
"_.	c #EACA44",
":.	c #D9A118",
"<.	c #762C02",
"[.	c #A0834C",
"}.	c #B08D52",
"|.	c #B06512",
"1.	c #ECCA45",
"2.	c #EAED58",
"3.	c #F7F894",
"4.	c #FFFFE4",
"5.	c #FFFFE2",
"6.	c #F7F691",
"7.	c #F6F895",
"8.	c #FFFFE1",
"9.	c #EAEF58",
"0.	c #EAEF57",
"a.	c #EBEE57",
"b.	c #EDEC56",
"c.	c #D8A218",
"d.	c #752B02",
"e.	c #AF9057",
"f.	c #A1844E",
"g.	c #B16613",
"h.	c #ECC945",
"i.	c #EAEE57",
"j.	c #EAEE59",
"k.	c #F6F891",
"l.	c #FEFFE3",
"m.	c #FDFFE4",
"n.	c #FEFEE4",
"o.	c #F6F893",
"p.	c #EBED56",
"q.	c #DAA216",
"r.	c #762A02",
"s.	c #A1834D",
"t.	c #B9945F",
"u.	c #B26612",
"v.	c #EBEC58",
"w.	c #EBCC45",
"x.	c #EAED56",
"y.	c #E9ED57",
"z.	c #E8EC57",
"A.	c #EBEF5B",
"B.	c #EBEF5C",
"C.	c #E9ED58",
"D.	c #EACD45",
"E.	c #EAEE58",
"F.	c #742901",
"G.	c #A1864F",
"H.	c #AE8E54",
"I.	c #D9A213",
"J.	c #EDCD45",
"K.	c #ECEF58",
"L.	c #ECCC45",
"M.	c #E9EE56",
"N.	c #E9EF57",
"O.	c #D9A014",
"P.	c #541408",
"Q.	c #9F814E",
"R.	c #AD8D55",
"S.	c #6B512B",
"T.	c #B1650E",
"U.	c #DAA313",
"V.	c #EAEB57",
"W.	c #EBED58",
"X.	c #ECCD46",
"Y.	c #DAA115",
"Z.	c #531307",
"`.	c #C19C63",
" +	c #C19C61",
".+	c #B16511",
"++	c #DBA215",
"@+	c #DCA316",
"#+	c #EDCB45",
"$+	c #ECEC58",
"%+	c #ECEE57",
"&+	c #EDCD46",
"*+	c #EBC944",
"=+	c #561308",
"-+	c #AF8E57",
";+	c #B09057",
">+	c #B8935D",
",+	c #DAA213",
"'+	c #EEC944",
")+	c #ECCB45",
"!+	c #EAED57",
"~+	c #EBCD46",
"{+	c #EDCC45",
"]+	c #EBCA44",
"^+	c #D9A315",
"/+	c #EBEB57",
"(+	c #EBC945",
"_+	c #551509",
":+	c #AF8D55",
"<+	c #732800",
"[+	c #DAA114",
"}+	c #DAA314",
"|+	c #EBCB44",
"1+	c #EDCA44",
"2+	c #DBA316",
"3+	c #DBA416",
"4+	c #EBED59",
"5+	c #B9935F",
"6+	c #762A01",
"7+	c #DBA213",
"8+	c #DBA315",
"9+	c #DBA314",
"0+	c #ECCA43",
"a+	c #DCA115",
"b+	c #EDCB44",
"c+	c #EBC844",
"d+	c #B26410",
"e+	c #EBC943",
"f+	c #EECA45",
"g+	c #D9A214",
"h+	c #DCA314",
"i+	c #D89F14",
"j+	c #531306",
"k+	c #B8925F",
"l+	c #782B03",
"m+	c #DAA117",
"n+	c #DBA214",
"o+	c #D9A212",
"p+	c #541407",
"q+	c #B89261",
"r+	c #AE8D56",
"s+	c #772B04",
"t+	c #B16510",
"u+	c #DBA015",
"v+	c #B36710",
"w+	c #DAA112",
"x+	c #DCA315",
"y+	c #DBA117",
"z+	c #561609",
"A+	c #9F824D",
"B+	c #A1834F",
"C+	c #957440",
"D+	c #7E6235",
"E+	c #967240",
"F+	c #762800",
"G+	c #B16310",
"H+	c #B26610",
"I+	c #EECA42",
"J+	c #DCA213",
"K+	c #DCA516",
"L+	c #EACA43",
"M+	c #DBA016",
"N+	c #571507",
"O+	c #6A522E",
"P+	c #69512B",
"Q+	c #C29C62",
"R+	c #742A02",
"S+	c #B16312",
"T+	c #DA9F15",
"U+	c #B3670F",
"V+	c #EDCA43",
"W+	c #D9A313",
"X+	c #DBA115",
"Y+	c #551308",
"Z+	c #B7945F",
"`+	c #C09C61",
" @	c #B8935E",
".@	c #561406",
"+@	c #DBA216",
"@@	c #AD8C56",
"#@	c #571508",
"$@	c #B16414",
"%@	c #DAA016",
"&@	c #B2660E",
"*@	c #DCA016",
"=@	c #DBA014",
"-@	c #B2650E",
";@	c #DAA015",
">@	c #B3660F",
",@	c #DA9F14",
"'@	c #B46710",
")@	c #D89E15",
"!@	c #57150C",
"~@	c #B8955E",
"{@	c #551407",
"]@	c #B06410",
"^@	c #DCA017",
"/@	c #D9A013",
"(@	c #B36510",
"_@	c #DA9F17",
":@	c #DBA217",
"<@	c #561606",
"[@	c #B89160",
"}@	c #A1854E",
"|@	c #531308",
"1@	c #742A03",
"2@	c #B06411",
"3@	c #B26412",
"4@	c #B16311",
"5@	c #D99E15",
"6@	c #57160A",
"7@	c #9E824B",
"8@	c #B99560",
"9@	c #A0814D",
"0@	c #541306",
"a@	c #742801",
"b@	c #752701",
"c@	c #762802",
"d@	c #752702",
"e@	c #551208",
"f@	c #56150C",
"g@	c #55140B",
"h@	c #B7935E",
"i@	c #B5945E",
"j@	c #9F844F",
"k@	c #967442",
"l@	c #AF8D56",
"m@	c #AE8D55",
"n@	c #67512C",
"o@	c #67512B",
"p@	c #7C6136",
"q@	c #67502C",
"r@	c #7F6237",
"s@	c #68512C",
"  . + @ # $ # + %           #   + # # . .         . . .   # & * ",
"$ # # # # # # # # $ = = = # # # # # # # # = = = $ # # # $ # # - ",
"# # $ $ ; # $ $ - > , ' $ $ $ # # # ) $ - - $ - ! & # - - $ $ - ",
"= = ~ , - $ $ # # & $ $ ! ! - - { ] ^ / ( ! $ _ # : = = - - - - ",
"- - - & $ $ # $ $ # # # $ $ $ { ' < [ } | $ # # $ - - - $ # ! 1 ",
"2 $ $ - - - & $ # # $ - - - - - ] 3 4 5 5 # $ $ $ $ $ # # ! $ 6 ",
"- | # # { - 7 - | - $ $ & & { 8 9 0 & - - - a $ a & $ & $ - | 1 ",
"b 6 c d 6 e f g 6 1 h i j k j l m n g o o p q r p s s s t u s s ",
"v w x v y + z +     A B C D E F G H I I J K L M ! N & 7 O P Q P ",
"# # # # $ & $ R S T U V W X Y Z `  ...+.@.#.$.3 %.# # $ $ # # # ",
"$ $ # # ! # &.*.=.-.;.>.,.'.).!.~.{.].^./.(._.:.<.[.| - - - $ # ",
"# ' { $ $ }.|.1.2./.3.4.5.6.7.4.4.8.{.9.0.0.a.b.c.d.N e.$ $ # # ",
"# { a - f.g.h.2.i.0.0.j.k.l.m.n.o.j.0.i.0.0.0.0.p.q.r.s.$ $ $ $ ",
"- | { $ t.u.1.v.w.x.0.0.y.z.A.B.C.0.x.D.x.0.0.0.E._.F.5 - G.G.G.",
"H.7 - 7 u.I.=.J.2.K.0.0.0.0.0.0.0.0.x.L.D.a.M.N.0.x.O.P.Q.& R.N ",
"s s s S.T.U.=.L.V.D.W.0.0.0.0.0.0.0.a.v.L.C.X.x.0.x.Y.Z.c b k s ",
"# `.z  +.+++@+#+L.$+w.w.v.w.x.x.D.p.%+&+#+L.w.x.0.x.*+=+! 5 -+- ",
"$ ;+$ >+.+,+'+L.)+&+L.L.w.v.!+~+L.#+{+]+^+=./+N.0.y.(+_+& $ ! - ",
"# # ; :+<+[+++=.}+#+#+T |+L.D.#+1+2+#+L.=.3+L.4+/.L.(+P.7 - - 1 ",
"$ # # 5+6+.+[+7+7+++8+1+|+9+0+a+7+8+L.b+7+@+#+w.!+L.c+P.& ; # c ",
"- | & ) F.d+[+7+7+7+7+U.e+f+U.7+T =.|+g+=.h+++X.!+&+i+j+& $ # - ",
"# { - | k+l+m+7+[+n+7+7+o+7+7+++e+1+++0+7+I.|+v.)+Y.p+q+; ; 5 - ",
"- - & & r+s+t+u+v+++7+w+=.}+7+7+++x+7+7+h+=.L.=.8+y+z+A+-+-+B+C+",
"g b p i D+E+F+G+H+Y.7+7+n+I+h+7+7+J+K+0+=.=.L+}+M+N+u p O+O+P+P+",
"Q+z & , & / R+S+T+U+++7+7+7+7+7+}+1+=.V+W+++++X+t+Y+& Z+`+`+`+`+",
"# - - $ s.&  @.@d++@++7+7+7+7+[+7+++7+w+7+7+[+Y.N+@@# # @ $ # # ",
"- $ # # # # t.#@$@%@&@*@7+7+=@-@;@>@,@++7+[+'@)@!@t.$ $ $ # # $ ",
"# ; # $ $ $ $ ~@{@]@^@H+/@7+(@d+(@_@d+t+w+:@*.<@[@& | 6 - - $ $ ",
"P P { , | | | }@N |@1@2@3@3@4@4@4@3@S+5@y+.@6@7@- | - { $ # # # ",
"- - | { $ 5 5 5 ; 8@9@0@a@b@c@b@b@d@e@f@g@h@8@$ i@& $ - - - - - ",
"P P 7 - 7 j@- & & & & - & 8 } k@l@$ & m@7 r+7 - O j@j@j@& - P P ",
"n@o@b t p@k t n@n@q@t t 1 t 1 1 1 1 r@t b n@k t s@s s s n@r n@n@"};
