/* XPM */
static char * exit_xpm[] = {
"32 32 433 2",
"  	c #C19D61",
". 	c #C29E62",
"+ 	c #AF8F56",
"@ 	c #B8955F",
"# 	c #B6925E",
"$ 	c #A78755",
"% 	c #5C482F",
"& 	c #272015",
"* 	c #5A482D",
"= 	c #997D4E",
"- 	c #77613C",
"; 	c #241D13",
"> 	c #000000",
", 	c #040203",
"' 	c #372C1C",
") 	c #826842",
"! 	c #8A7148",
"~ 	c #453923",
"{ 	c #292116",
"] 	c #6E5A39",
"^ 	c #B6935D",
"/ 	c #C09C60",
"( 	c #AE8E55",
"_ 	c #957441",
": 	c #B7945E",
"< 	c #B18D5B",
"[ 	c #9F8052",
"} 	c #826843",
"| 	c #58472D",
"1 	c #3D301E",
"2 	c #56472A",
"3 	c #705C37",
"4 	c #514328",
"5 	c #1A160D",
"6 	c #020202",
"7 	c #281F15",
"8 	c #645033",
"9 	c #755E3E",
"0 	c #4F4029",
"a 	c #403321",
"b 	c #5E4D2F",
"c 	c #856D41",
"d 	c #9F814D",
"e 	c #AC8C53",
"f 	c #AF8F55",
"g 	c #9E854D",
"h 	c #A38354",
"i 	c #695532",
"j 	c #493A23",
"k 	c #504227",
"l 	c #5D4829",
"m 	c #544629",
"n 	c #372E1B",
"o 	c #221C10",
"p 	c #090804",
"q 	c #010101",
"r 	c #100D08",
"s 	c #2A2216",
"t 	c #453921",
"u 	c #655231",
"v 	c #60502F",
"w 	c #4C3E24",
"x 	c #4B3D23",
"y 	c #6D5934",
"z 	c #AD8C59",
"A 	c #B7935F",
"B 	c #9F844D",
"C 	c #9F854E",
"D 	c #9E834C",
"E 	c #917747",
"F 	c #4A3C25",
"G 	c #4D3E28",
"H 	c #715C36",
"I 	c #4F4026",
"J 	c #17120B",
"K 	c #010201",
"L 	c #000001",
"M 	c #040302",
"N 	c #231D11",
"O 	c #624F32",
"P 	c #745D3D",
"Q 	c #3E3220",
"R 	c #614E33",
"S 	c #A58556",
"T 	c #AA8959",
"U 	c #947948",
"V 	c #9C7F4B",
"W 	c #9A804B",
"X 	c #A0854E",
"Y 	c #AD8D54",
"Z 	c #917647",
"` 	c #4C3D28",
" .	c #131009",
"..	c #3B301D",
"+.	c #282015",
"@.	c #070604",
"#.	c #0B0A06",
"$.	c #2A2213",
"%.	c #322918",
"&.	c #19150C",
"*.	c #634F32",
"=.	c #987C4A",
"-.	c #736038",
";.	c #4E4026",
">.	c #61512F",
",.	c #9B7F4D",
"'.	c #9B804C",
").	c #917947",
"!.	c #725F37",
"~.	c #3E331F",
"{.	c #0A0905",
"].	c #020001",
"^.	c #050402",
"/.	c #030001",
"(.	c #060503",
"_.	c #524228",
":.	c #7F683E",
"<.	c #614E2E",
"[.	c #372D1A",
"}.	c #5A492D",
"|.	c #9E7F50",
"1.	c #967542",
"2.	c #A28355",
"3.	c #3F3420",
"4.	c #1C180D",
"5.	c #080703",
"6.	c #2A2215",
"7.	c #433822",
"8.	c #635030",
"9.	c #A1834D",
"0.	c #7E6137",
"a.	c #93723F",
"b.	c #664F2D",
"c.	c #3D2F1C",
"d.	c #0D0A05",
"e.	c #030201",
"f.	c #0E0B06",
"g.	c #2B2213",
"h.	c #4D3C20",
"i.	c #5D4928",
"j.	c #7A5F34",
"k.	c #7E6135",
"l.	c #69502D",
"m.	c #68502C",
"n.	c #C09C62",
"o.	c #BD995F",
"p.	c #91744B",
"q.	c #392E1A",
"r.	c #292114",
"s.	c #554629",
"t.	c #937A49",
"u.	c #B99660",
"v.	c #866D46",
"w.	c #3A2F1C",
"x.	c #070602",
"y.	c #060501",
"z.	c #1B160E",
"A.	c #514127",
"B.	c #9C7F4D",
"C.	c #806741",
"D.	c #54432B",
"E.	c #251E14",
"F.	c #3E331E",
"G.	c #846E3F",
"H.	c #B4905C",
"I.	c #79643A",
"J.	c #17130B",
"K.	c #B38F5B",
"L.	c #7E673E",
"M.	c #2E2617",
"N.	c #40341F",
"O.	c #927948",
"P.	c #9B804B",
"Q.	c #030302",
"R.	c #0C0B07",
"S.	c #4B3C27",
"T.	c #826B3F",
"U.	c #A98A52",
"V.	c #735D36",
"W.	c #2D2516",
"X.	c #161209",
"Y.	c #2F2718",
"Z.	c #4A3D23",
"`.	c #645431",
" +	c #8B7244",
".+	c #A3854F",
"++	c #654F2B",
"@+	c #4B3A20",
"#+	c #1F190D",
"$+	c #020201",
"%+	c #080704",
"&+	c #352A17",
"*+	c #4E3D21",
"=+	c #533F24",
"-+	c #372A17",
";+	c #41321D",
">+	c #574426",
",+	c #67512C",
"'+	c #B5915F",
")+	c #987C4D",
"!+	c #5A492F",
"~+	c #0F0C07",
"{+	c #0D0B07",
"]+	c #453825",
"^+	c #7A643F",
"/+	c #695435",
"(+	c #433623",
"_+	c #5B4A30",
":+	c #9F844E",
"<+	c #A28450",
"[+	c #876E41",
"}+	c #655134",
"|+	c #2C2316",
"1+	c #392D1E",
"2+	c #56442C",
"3+	c #6D5935",
"4+	c #897043",
"5+	c #AB8959",
"6+	c #AE8D59",
"7+	c #9B7C50",
"8+	c #6B5834",
"9+	c #2C2415",
"0+	c #41351F",
"a+	c #836C40",
"b+	c #9A7B4F",
"c+	c #695436",
"d+	c #3B301E",
"e+	c #18130D",
"f+	c #030305",
"g+	c #473821",
"h+	c #957A4A",
"i+	c #B99560",
"j+	c #947340",
"k+	c #766138",
"l+	c #362D1A",
"m+	c #7E663D",
"n+	c #A0824E",
"o+	c #B5905C",
"p+	c #B28E5A",
"q+	c #7C653C",
"r+	c #2B2314",
"s+	c #1E170E",
"t+	c #745D3B",
"u+	c #A18154",
"v+	c #997F4A",
"w+	c #776138",
"x+	c #3F331D",
"y+	c #110E07",
"z+	c #040301",
"A+	c #030000",
"B+	c #1E1A0F",
"C+	c #4F4126",
"D+	c #836C3E",
"E+	c #7D6136",
"F+	c #6E542F",
"G+	c #42341B",
"H+	c #322715",
"I+	c #16110B",
"J+	c #030200",
"K+	c #130E08",
"L+	c #2B2212",
"M+	c #47371E",
"N+	c #69512D",
"O+	c #C19D62",
"P+	c #A0824D",
"Q+	c #6E5B35",
"R+	c #352C19",
"S+	c #080200",
"T+	c #0F0601",
"U+	c #0C0401",
"V+	c #060200",
"W+	c #050300",
"X+	c #0D0400",
"Y+	c #0D0500",
"Z+	c #010000",
"`+	c #010102",
" @	c #120E08",
".@	c #423522",
"+@	c #856C44",
"@@	c #AC8B57",
"#@	c #BB985F",
"$@	c #C09C61",
"%@	c #9C814A",
"&@	c #3A2F1B",
"*@	c #020100",
"=@	c #1E1100",
"-@	c #2E1A01",
";@	c #291700",
">@	c #160900",
",@	c #170A01",
"'@	c #2B1700",
")@	c #1B0D00",
"!@	c #241E12",
"~@	c #4A3B26",
"{@	c #5B4A2E",
"]@	c #7E673D",
"^@	c #A98958",
"/@	c #B28E5C",
"(@	c #8C7047",
"_@	c #463724",
":@	c #130900",
"<@	c #2F1901",
"[@	c #412500",
"}@	c #3B2300",
"|@	c #261400",
"1@	c #271500",
"2@	c #3E2400",
"3@	c #2D1900",
"4@	c #0C0A06",
"5@	c #473824",
"6@	c #755F38",
"7@	c #645131",
"8@	c #53432A",
"9@	c #90744B",
"0@	c #A88951",
"a@	c #A68655",
"b@	c #665332",
"c@	c #180A01",
"d@	c #291400",
"e@	c #351D01",
"f@	c #3B2201",
"g@	c #392000",
"h@	c #321A00",
"i@	c #331B01",
"j@	c #3A2101",
"k@	c #321D00",
"l@	c #271501",
"m@	c #332A19",
"n@	c #4F3E22",
"o@	c #443820",
"p@	c #493D23",
"q@	c #625030",
"r@	c #6C5835",
"s@	c #A78850",
"t@	c #504027",
"u@	c #3C311D",
"v@	c #5B4A2C",
"w@	c #615130",
"x@	c #352C1A",
"y@	c #150800",
"z@	c #331E00",
"A@	c #442900",
"B@	c #402601",
"C@	c #311C00",
"D@	c #362000",
"E@	c #442800",
"F@	c #432700",
"G@	c #402600",
"H@	c #110702",
"I@	c #251F11",
"J@	c #745F3A",
"K@	c #6E5737",
"L@	c #403320",
"M@	c #2A2217",
"N@	c #6D5B35",
"O@	c #5C4D2C",
"P@	c #624F2F",
"Q@	c #655234",
"R@	c #372B1B",
"S@	c #120A05",
"T@	c #190D01",
"U@	c #352001",
"V@	c #573800",
"W@	c #6B4901",
"X@	c #604100",
"Y@	c #452D01",
"Z@	c #4E3200",
"`@	c #694700",
" #	c #664500",
".#	c #4B3100",
"+#	c #644202",
"@#	c #543700",
"##	c #301C01",
"$#	c #0B0602",
"%#	c #18140B",
"&#	c #4D3F25",
"*#	c #5A4B2C",
"=#	c #3F341E",
"-#	c #302917",
";#	c #2F2617",
">#	c #453822",
",#	c #5E4E2D",
"'#	c #625230",
")#	c #463A22",
"!#	c #261E11",
"~#	c #130E09",
"{#	c #140A00",
"]#	c #2E1801",
"^#	c #4E3201",
"/#	c #775300",
"(#	c #8F6501",
"_#	c #805A00",
":#	c #614202",
"<#	c #8A6200",
"[#	c #886000",
"}#	c #684700",
"|#	c #614201",
"1#	c #845C00",
"2#	c #744F00",
"3#	c #492E01",
"4#	c #291500",
"5#	c #190F05",
"6#	c #57482B",
"7#	c #3F331F",
"8#	c #433721",
"9#	c #6D5937",
"0#	c #80693F",
"a#	c #1F160D",
"b#	c #574327",
"c#	c #5E4A2A",
"d#	c #2F2415",
"e#	c #351E00",
"f#	c #593900",
"g#	c #855D00",
"h#	c #9F7101",
"i#	c #8F6400",
"j#	c #6D4801",
"k#	c #785200",
"l#	c #996D00",
"m#	c #976C00",
"n#	c #754F00",
"o#	c #6E4A00",
"p#	c #926700",
"q#	c #9E7001",
"r#	c #815A00",
"s#	c #543401",
"t#	c #311901",
"u#	c #1C1004",
"v#	c #312613",
"w#	c #514022",
"x#	c #3C301A",
"y#	c #211B0F",
"z#	c #654E2B",
"  .   + @ + # $ % & * = - ; > , ' ) ! ~ { ] ^ /   . . .   @ ( _ ",
"+ @ @ @ : < [ } | 1 2 3 4 5 > 6 7 8 9 0 a b c d e @ @ @ f @ @ g ",
"@ @ + + # h i j k l m n o p > q r s t u v w x y z + A B B + + B ",
"f f f C D E F ; G H I J K > > > L M N O P Q o R S T U V W B B B ",
"B B X ( Y Z `  .o ..+.@.> > > > > > #.$.%.&.&.*.=.-.;.>.,.@ : _ ",
"@ + + '.).!.~.{.].@.^.q > > > > > > /.(.(.6  ._.:.<.[.}.|.@ ( 1.",
"B B # 2.3 3.4.^.> > > > > > > > > > > > > q 5.6.7.2 8.:.9.B X _ ",
"0.1.a.b.c.d.].> > > > > > > > > > > > > > > q e.f.g.h.i.j.k.l.m.",
": n.o.p.q.^.> > > > > > > > > > > > > > > > > > (.r.s.-.t.( D ( ",
"u.# z v.w.x.> > > > > > > > > > > > > > > > > > q y.z.A.t.@ @ @ ",
"( B.C.D.E.^.> > > > > > > > > > > > > > > > > > > > (.F.G.B + @ ",
"H.I.t J.@.q > > > > > > > > > > > > > > > > > > > > 5.t Z ( @ @ ",
"K.L.M.6 > > > > > > > > > > > > > > > > > > > > > > (.N.O.f + + ",
"P.!.%.Q.> > > > > > > > > > > > > > > > > > > > > q R.S.T.D B X ",
"U.V.W.q > > > > > > > > > > > > > > > > > > > > ^.X.Y.Z.`. +.+( ",
"++@+#+$+> > > > > > > > > > > > > > > > > > > > %+&+*+=+-+;+>+,+",
"'+)+!+r.~+6 > > > > > > > > > > > > > > > > > > {+]+^+/+(+_+E :+",
"Y <+[+}+|+(.> > > > > > > > > > > > > > > > > > ^.&.1+2+3+4+5+B ",
": 6+7+8+9+(.> > > > > > > > > > > > > > > > > > > q f.0+a+D B _ ",
"e b+c+d+e+f+> > > > > > > > > > > > > > > > > > > > (.g+h+i+: j+",
"W k+q.p q > > > > > > > > > > > > > > > > > > > > > @.l+m+n+o+D ",
"p+q+r+> > > > > > > > > > > > > > > > > > > > > > > ^.s+]+t+u+B ",
"v+w+x+y+z+A+> > > > > > > > > > > > > > > > > > > > ].p B+C+D+j+",
"E+F+G+H+I+J+> > > > > > > > > > > > > > > > > > > > q K+L+M+i.N+",
"O+o.P+Q+R+@.> > > > > ].S+T+U+V+W+X+Y+V+Z+> > > `+z+ @.@+@@@#@$@",
"@ B %@ +&@(.> > > > > *@=@-@;@>@,@'@-@)@> > > > (.!@~@{@8.]@^@@ ",
"B Y /@(@_@R.6 Z+> Z+$+:@<@[@}@|@1@}@2@3@T+q Z+> 4@5@6@7@..8@9@0@",
"# a@+@b@A.w.5 ^.> *@c@d@e@f@g@h@i@j@f@k@l@>@Z+> p m@m n@o@p@q@r@",
"s@c t@u@v@w@x@5.*@y@z@A@B@C@D@E@F@z@C@G@A@C@H@Z+z+r I@A.J@K@L@M@",
"N@O@t t P@Q@R@S@T@U@V@W@X@Y@Z@`@ #.#Y@+#W@@###>@$#%#%.&#>.*#=#-#",
";#>#,#'#)#!#~#{#]#^#/#(#_#:#W@<#[#}#|#1#(#2#3#4#5#n w@6#7#8#9#0#",
"^.a#b#c#d#(.J+,@e#f#g#h#i#j#k#l#m#n#o#p#q#r#s#t#u#v#w#x#X.y#n@z#"};
