/* XPM */
static char * player3_xpm[] = {
"32 32 577 2",
"  	c #BF9B60",
". 	c #C09C61",
"+ 	c #BE9B60",
"@ 	c #B39259",
"# 	c #B6935D",
"$ 	c #B29159",
"% 	c #B8955F",
"& 	c #BF9B62",
"* 	c #BF9B61",
"= 	c #BA9760",
"- 	c #B99660",
"; 	c #B9965F",
"> 	c #C09C62",
", 	c #BF9A60",
"' 	c #AE8D56",
") 	c #9A7945",
"! 	c #B8955E",
"~ 	c #B7945E",
"{ 	c #B5935C",
"] 	c #AF8E56",
"^ 	c #AF8F56",
"/ 	c #B29158",
"( 	c #B5935D",
"_ 	c #B19057",
": 	c #B09056",
"< 	c #B29058",
"[ 	c #B3915B",
"} 	c #A1844E",
"| 	c #AF8F57",
"1 	c #B5925C",
"2 	c #B19058",
"3 	c #A68751",
"4 	c #9E7E48",
"5 	c #A2854E",
"6 	c #A58850",
"7 	c #B09057",
"8 	c #B4925C",
"9 	c #A68952",
"0 	c #A68851",
"a 	c #AC8D54",
"b 	c #A88952",
"c 	c #B4915C",
"d 	c #B39159",
"e 	c #A68852",
"f 	c #A3874F",
"g 	c #AD8D55",
"h 	c #AC8D55",
"i 	c #A1854E",
"j 	c #AE8E55",
"k 	c #A48850",
"l 	c #A58851",
"m 	c #B4915B",
"n 	c #AE8D55",
"o 	c #B08F5A",
"p 	c #A28650",
"q 	c #AA8B54",
"r 	c #AB8C54",
"s 	c #AF8E5A",
"t 	c #AF8E57",
"u 	c #AE8E56",
"v 	c #AA8B53",
"w 	c #A3864F",
"x 	c #A38750",
"y 	c #A38650",
"z 	c #9F834C",
"A 	c #B4925B",
"B 	c #9C804F",
"C 	c #5C4E37",
"D 	c #554933",
"E 	c #544933",
"F 	c #534732",
"G 	c #524732",
"H 	c #534833",
"I 	c #544833",
"J 	c #574B35",
"K 	c #715F41",
"L 	c #B08F5B",
"M 	c #AE8E57",
"N 	c #B18E59",
"O 	c #9A7A45",
"P 	c #B1905A",
"Q 	c #967C4B",
"R 	c #4F4637",
"S 	c #314143",
"T 	c #355C43",
"U 	c #355E42",
"V 	c #3C573E",
"W 	c #6D5C3E",
"X 	c #AA8C54",
"Y 	c #AD8E55",
"Z 	c #AC8C55",
"` 	c #987743",
" .	c #9F824C",
"..	c #B08E59",
"+.	c #AE8C58",
"@.	c #A98952",
"#.	c #9D824C",
"$.	c #9D814C",
"%.	c #9E814B",
"&.	c #A0844D",
"*.	c #A88951",
"=.	c #917749",
"-.	c #303030",
";.	c #334A4F",
">.	c #3D7050",
",.	c #3D734F",
"'.	c #376045",
").	c #4D4431",
"!.	c #9A7E4A",
"~.	c #A58750",
"{.	c #A78851",
"].	c #A98953",
"^.	c #A0834D",
"/.	c #9A7E49",
"(.	c #917240",
"_.	c #8C6E40",
":.	c #9B7A46",
"<.	c #9D7B47",
"[.	c #907143",
"}.	c #977744",
"|.	c #8D6F40",
"1.	c #8B6E3F",
"2.	c #977745",
"3.	c #997945",
"4.	c #8B6E40",
"5.	c #765F39",
"6.	c #2C2D2E",
"7.	c #3D724F",
"8.	c #3D714F",
"9.	c #365F44",
"0.	c #3F372A",
"a.	c #765D36",
"b.	c #796036",
"c.	c #866A3C",
"d.	c #775F35",
"e.	c #765D34",
"f.	c #B3905B",
"g.	c #BA965E",
"h.	c #A68750",
"i.	c #B5925A",
"j.	c #B8955C",
"k.	c #A98957",
"l.	c #6E5C3F",
"m.	c #9C7F51",
"n.	c #594B36",
"o.	c #493E30",
"p.	c #282A2E",
"q.	c #3B6950",
"r.	c #355351",
"s.	c #344F50",
"t.	c #355151",
"u.	c #355051",
"v.	c #2F4445",
"w.	c #534634",
"x.	c #AA8957",
"y.	c #9D804B",
"z.	c #9E824C",
"A.	c #9F824D",
"B.	c #B08F57",
"C.	c #B08E5A",
"D.	c #866E49",
"E.	c #4F4434",
"F.	c #2F2525",
"G.	c #47222A",
"H.	c #28282D",
"I.	c #3C6D50",
"J.	c #365C49",
"K.	c #282F32",
"L.	c #2B3A38",
"M.	c #39644F",
"N.	c #3A6751",
"O.	c #355949",
"P.	c #262B2E",
"Q.	c #514533",
"R.	c #AE8D5A",
"S.	c #B2915B",
"T.	c #A78857",
"U.	c #69583B",
"V.	c #93794C",
"W.	c #2E353D",
"X.	c #312427",
"Y.	c #52232C",
"Z.	c #2A282D",
"`.	c #3E7151",
" +	c #3E684B",
".+	c #252927",
"++	c #29392F",
"@+	c #3C6F4D",
"#+	c #376145",
"$+	c #272928",
"%+	c #35322E",
"&+	c #6A593C",
"*+	c #A48651",
"=+	c #A48750",
"-+	c #A2864F",
";+	c #B18F58",
">+	c #A78952",
",+	c #A98A54",
"'+	c #4E4537",
")+	c #2F3841",
"!+	c #272C30",
"~+	c #302326",
"{+	c #33494E",
"]+	c #62856B",
"^+	c #ACB6AA",
"/+	c #414C56",
"(+	c #324A49",
"_+	c #3C704F",
":+	c #3C684F",
"<+	c #686E72",
"[+	c #A19E99",
"}+	c #564A39",
"|+	c #AD8D59",
"1+	c #977D4B",
"2+	c #504532",
"3+	c #282B2D",
"4+	c #31454C",
"5+	c #335440",
"6+	c #312827",
"7+	c #2F3D48",
"8+	c #646A63",
"9+	c #E8E4DB",
"0+	c #B8BDB5",
"a+	c #436C55",
"b+	c #3C6F4E",
"c+	c #3C704E",
"d+	c #6A8A72",
"e+	c #D9D7D0",
"f+	c #C9C4BD",
"g+	c #534937",
"h+	c #A0854F",
"i+	c #7F6944",
"j+	c #30302F",
"k+	c #32474E",
"l+	c #376048",
"m+	c #312928",
"n+	c #2F3D4B",
"o+	c #636970",
"p+	c #EAE6DE",
"q+	c #CECEC3",
"r+	c #38463B",
"s+	c #2A3C30",
"t+	c #6B7369",
"u+	c #EEEBE0",
"v+	c #C5C2BA",
"w+	c #574B3A",
"x+	c #B0905A",
"y+	c #AF8F5A",
"z+	c #A3854F",
"A+	c #9A7F4A",
"B+	c #9A804A",
"C+	c #9B804B",
"D+	c #9F834D",
"E+	c #997D4C",
"F+	c #4E4330",
"G+	c #282A2C",
"H+	c #30414E",
"I+	c #31474A",
"J+	c #312629",
"K+	c #53232C",
"L+	c #2D2526",
"M+	c #292E36",
"N+	c #3D4A58",
"O+	c #6A7779",
"P+	c #65856E",
"Q+	c #3A6249",
"R+	c #376046",
"S+	c #466C52",
"T+	c #709177",
"U+	c #5E7763",
"V+	c #514633",
"W+	c #A0834C",
"X+	c #A58650",
"Y+	c #A5864F",
"Z+	c #7A6138",
"`+	c #796037",
" @	c #7B6238",
".@	c #876A3D",
"+@	c #7B6239",
"@@	c #6B5636",
"#@	c #2D2D2D",
"$@	c #32454E",
"%@	c #355749",
"&@	c #322828",
"*@	c #62282D",
"=@	c #693428",
"-@	c #2C2A2D",
";@	c #2F3E4D",
">@	c #31424F",
",@	c #334B4F",
"'@	c #334B4E",
")@	c #304747",
"!@	c #28332D",
"~@	c #473D2C",
"{@	c #957644",
"]@	c #8F7141",
"^@	c #9A7946",
"/@	c #997946",
"(@	c #7B6237",
"_@	c #785F36",
":@	c #AF8D59",
"<@	c #B6935B",
"[@	c #B6935C",
"}@	c #B7945D",
"|@	c #B18F5B",
"1@	c #A18353",
"2@	c #353330",
"3@	c #30404E",
"4@	c #31454A",
"5@	c #312A2A",
"6@	c #64292D",
"7@	c #78382A",
"8@	c #322625",
"9@	c #272A2E",
"0@	c #282E31",
"a@	c #293337",
"b@	c #2B373E",
"c@	c #564936",
"d@	c #B9955D",
"e@	c #B08D59",
"f@	c #A78852",
"g@	c #B19158",
"h@	c #B29258",
"i@	c #B6945E",
"j@	c #B4935D",
"k@	c #9C8050",
"l@	c #343330",
"m@	c #303F4D",
"n@	c #334A50",
"o@	c #365642",
"p@	c #3E2929",
"q@	c #6B2C2C",
"r@	c #6B3528",
"s@	c #32332A",
"t@	c #365B42",
"u@	c #375F44",
"v@	c #386446",
"w@	c #386346",
"x@	c #386147",
"y@	c #386349",
"z@	c #345844",
"A@	c #544834",
"B@	c #AF8F58",
"C@	c #AE8F56",
"D@	c #B09059",
"E@	c #917748",
"F@	c #32312F",
"G@	c #3A6650",
"H@	c #396548",
"I@	c #322E2A",
"J@	c #863C2A",
"K@	c #6E3A29",
"L@	c #35372C",
"M@	c #324434",
"N@	c #3B6B4B",
"O@	c #3B6A50",
"P@	c #375951",
"Q@	c #365E45",
"R@	c #A4864F",
"S@	c #987844",
"T@	c #B5925D",
"U@	c #997D4D",
"V@	c #34322F",
"W@	c #3B6B4E",
"X@	c #375B42",
"Y@	c #3E2D2B",
"Z@	c #6C2E2D",
"`@	c #7D3B28",
" #	c #6D3929",
".#	c #35372D",
"+#	c #334435",
"@#	c #3B6C4B",
"##	c #3B6D4D",
"$#	c #3B6A4F",
"%#	c #3C6C50",
"&#	c #524734",
"*#	c #A98A53",
"=#	c #AA8C53",
"-#	c #B18F5A",
";#	c #AF8E58",
">#	c #8C7447",
",#	c #32302E",
"'#	c #2F3C4A",
")#	c #31414F",
"!#	c #34504E",
"~#	c #3A674B",
"{#	c #36553F",
"]#	c #412829",
"^#	c #722F2C",
"/#	c #8C3F29",
"(#	c #8A3F29",
"_#	c #6C3929",
":#	c #34362C",
"<#	c #334535",
"[#	c #3B6D4C",
"}#	c #355B42",
"|#	c #4B4230",
"1#	c #997E4B",
"2#	c #A1864F",
"3#	c #A58656",
"4#	c #493F30",
"5#	c #2B2526",
"6#	c #2B282C",
"7#	c #2B282D",
"8#	c #2C2B2D",
"9#	c #30352C",
"0#	c #3A322C",
"a#	c #632B2C",
"b#	c #863B2A",
"c#	c #8E4029",
"d#	c #7E3B28",
"e#	c #34352B",
"f#	c #31362B",
"g#	c #303129",
"h#	c #312B26",
"i#	c #625338",
"j#	c #B2905A",
"k#	c #9E824D",
"l#	c #392E28",
"m#	c #53232B",
"n#	c #58232C",
"o#	c #632A2C",
"p#	c #7B3928",
"q#	c #7F3B28",
"r#	c #883C2A",
"s#	c #673426",
"t#	c #4D422F",
"u#	c #997E4A",
"v#	c #9E814C",
"w#	c #9C7F4B",
"x#	c #937441",
"y#	c #896C3E",
"z#	c #7D6338",
"A#	c #896C40",
"B#	c #382B28",
"C#	c #5D232D",
"D#	c #62232E",
"E#	c #69272E",
"F#	c #83392B",
"G#	c #8D3F29",
"H#	c #8D4029",
"I#	c #723627",
"J#	c #423729",
"K#	c #82673B",
"L#	c #7B6138",
"M#	c #7B6137",
"N#	c #7A6037",
"O#	c #B4925A",
"P#	c #9E8051",
"Q#	c #3D302A",
"R#	c #63232E",
"S#	c #67262F",
"T#	c #732F2D",
"U#	c #8C3F2A",
"V#	c #8C3E29",
"W#	c #8B3E29",
"X#	c #82382B",
"Y#	c #5A272B",
"Z#	c #524531",
"`#	c #A78753",
" $	c #B6935A",
".$	c #B7935C",
"+$	c #AC8C54",
"@$	c #68272E",
"#$	c #893C2A",
"$$	c #873B2B",
"%$	c #78312C",
"&$	c #853A2B",
"*$	c #6F2B2E",
"=$	c #6B282E",
"-$	c #554834",
";$	c #B2905B",
">$	c #A28354",
",$	c #3D302B",
"'$	c #64242E",
")$	c #722D2D",
"!$	c #8A3D2A",
"~$	c #873B2A",
"{$	c #7B342C",
"]$	c #54232C",
"^$	c #564835",
"/$	c #AB8C55",
"($	c #B3925B",
"_$	c #9B7F4E",
":$	c #3B2F29",
"<$	c #57232C",
"[$	c #63272D",
"}$	c #7C342C",
"|$	c #712D2D",
"1$	c #873C2A",
"2$	c #853D29",
"3$	c #863D29",
"4$	c #81382A",
"5$	c #4E232B",
"6$	c #524632",
"7$	c #9D7D48",
"8$	c #A3854E",
"9$	c #947B4A",
"0$	c #41392D",
"a$	c #392D29",
"b$	c #392426",
"c$	c #63262D",
"d$	c #64242F",
"e$	c #5F272C",
"f$	c #3B2925",
"g$	c #433329",
"h$	c #443429",
"i$	c #413127",
"j$	c #423328",
"k$	c #423329",
"l$	c #3F3027",
"m$	c #422726",
"n$	c #61272C",
"o$	c #56262B",
"p$	c #322626",
"q$	c #392F29",
"r$	c #584B33",
"s$	c #9F844D",
"t$	c #A98A52",
"u$	c #AE8D59",
"v$	c #A38455",
"w$	c #90764E",
"x$	c #3A2D29",
"y$	c #43392C",
"z$	c #967B4D",
"A$	c #9E8252",
"B$	c #927949",
"C$	c #937A49",
"D$	c #7F6B42",
"E$	c #3C352B",
"F$	c #3D312A",
"G$	c #3E312B",
"H$	c #3C312A",
"I$	c #554934",
"J$	c #9C8051",
"K$	c #A08350",
"L$	c #A4854F",
"M$	c #9C814B",
"N$	c #9D814B",
"O$	c #9C804C",
"P$	c #93784A",
"Q$	c #5B232D",
"R$	c #51232C",
"S$	c #453A2D",
"T$	c #977D4A",
"U$	c #A88851",
"V$	c #AA8A52",
"W$	c #A48650",
"X$	c #987C4B",
"Y$	c #907647",
"Z$	c #94794A",
"`$	c #8D7446",
" %	c #917847",
".%	c #9B804C",
"+%	c #9A7F4B",
"@%	c #A2844E",
"#%	c #705932",
"$%	c #735B33",
"%%	c #806439",
"&%	c #82663A",
"*%	c #7F6439",
"=%	c #7E6338",
"-%	c #675231",
";%	c #2B2724",
">%	c #2B2224",
",%	c #2C2224",
"'%	c #2A2224",
")%	c #3E3529",
"!%	c #81663A",
"~%	c #947442",
"{%	c #967542",
"]%	c #87693C",
"^%	c #84673B",
"/%	c #715932",
"(%	c #7D6238",
"_%	c #6E5831",
":%	c #6F5831",
"  . + @ # $ % & .         * = & & - ; & .         . > . , % ' ) ",
"@ % ! ~ % ~ ~ ! { ] ^ ^ / ~ ~ ; - % ~ ! ( _ _ : @ ! % # < # [ } ",
"# # _ | 1 # 2 | 3 4 5 6 ] 7 | 8 ~ # _ | 9 0 a b c d 8 e f g h i ",
"j j a k l ^ 7 1 m n j ^ 8 o p p q r r o s o t 8 # 8 u v w x y z ",
"k f k v r j A _ $ # # [ B C D E F F G H I J K L | l x 0 M 8 N O ",
"P h g l f f h u [ 8 | Q R S T U U U U U U U V W X Y u [ ( 8 Z ` ",
" .5 ..+.@.#.$.%.&.5 *.=.-.;.>.,.,.,.,.,.,.,.'.).!.~.{.b ].^./.(.",
"_.:.<.[.}.|.1.|.2.3.4.5.6.;.>.7.8.8.8.8.8.8.9.0.a.b.b.b.c.c.d.e.",
"f.g.g...h.i.j.k.l.m.n.o.p.;.q.r.s.s.t.t.t.u.v.w.x.].3 y.z.{.A.3 ",
"~ % - ~ B._ | C.D.E.F.G.H.;.I.J.K.L.M.N.N.O.P.Q.R.8 [ h h S.8 ~ ",
"7 B.# ~ # T.U.V.R W.X.Y.Z.;.`. +.+++@+,.,.#+$+%+&+*+=+-+-+l ;+~ ",
"8 >+g u u ,+D.'+)+!+~+Y.Z.{+]+^+/+(+_+,.,.:+<+[+}+|+h r g u { ~ ",
"8 r k f =+1+2+3+4+5+6+Y.Z.7+8+9+0+a+b+c+c+d+e+f+g+h+=+l a Y j j ",
"x w v a P |+i+j+k+l+m+Y.Z.n+o+p+q+r+s+s+s+t+u+v+w+,+x+y+=+w w w ",
"z+A+B+C+D+E+F+G+H+I+J+K+L+M+N+O+P+Q+R+R+R+S+T+U+V+$.A.^.W+h.X+Y+",
"Z+`+`+ @.@+@@@#@$@%@&@*@=@-@;@>@,@'@'@'@'@'@)@!@~@{@]@^@/@1.(@_@",
":@A <@[@}@|@1@2@3@4@5@6@7@8@9@0@0@0@0@0@0@0@a@b@c@<@d@g.m e@f@A+",
"g@h@h@~ i@j@k@l@m@n@o@p@q@r@s@t@u@v@v@v@w@x@y@z@A@B@~ # | C@D@&.",
"# ~ ~ ;+>+l E@F@$@G@H@I@6@J@K@L@M@N@@+,.O@t.P@Q@c@|@u 3 w =+R@S@",
"| 8 ~ # T@[ U@V@3@t.W@X@Y@Z@J@`@ #.#+#@###$#%#u@&#*#=+=#j [ -#^@",
"=+0 g B.# ;#>#,#'#)#!#~#{#]#^#/#(#`@_#:#<#N@[#}#|#1#2#l ^ / 8 } ",
"P r =+l 8 3#4#5#6#7#8#9#0#a#b#c#c#c#(#d#_#e#f#g#h#i#*#j#( # S.} ",
"k#z.R@{.v U@l#m#n#n#o#p#q#r#c#c#c#c#c#c#(#d#`@`@s#t#u#v#3 3 w#x#",
"4.y#z#.@|.A#B#C#D#E#F#G#c#c#c#c#c#c#c#c#c#c#c#H#I#J#K#L#M# @N#_@",
"d@O#3 D+{.P#Q#C#R#S#T#U#c#c#c#c#c#c#c#G#V#G#W#X#Y#Z#`#:@i. $[@.$",
"8 >+0 +$>+k@Q#C#@$X##$c#c#c#c#c#c#c#c#$$%$&$*$=$K+-$;$# / @ % % ",
"9 u 8 ( 1 >$,$C#'$)$#$c#c#c#c#c#c#c#c#G#!$G#~${$]$^$/$g u ($# 2 ",
"8 # # | ] _$:$<$[$}$|$1$2$2$2$2$2$2$2$3$!$!$4$[$5$6$A.7$8$>+| 7 ",
"j j g 6 f 9$0$a$b$c$d$e$f$g$h$i$j$k$l$m$n$[$o$p$q$r$s$t$+$P 8 8 ",
"w w w v +$u$v$w$x$C#D#<$y$z$A$E@B$C$D$E$F$G$H$I$J$K$v -+w p =+=+",
"X+L$M$M$N$O$A.P$a$<$Q$R$S$T$ .:.U$V$W$X$Y$Z$`$ %.%+%+%+%@%C+z+X+",
"#%$%%%&%*%$%=%-%;%>%,%'%)%!%~%{%` {%]%^%%%$%/%(%/%_%_%:%#%:%#%#%"};
