/* XPM */
static char * player4_xpm[] = {
"32 32 557 2",
"  	c #BF9B60",
". 	c #C09C61",
"+ 	c #BE9B60",
"@ 	c #B39259",
"# 	c #B6935D",
"$ 	c #B29159",
"% 	c #B8955F",
"& 	c #BF9B62",
"* 	c #BF9B61",
"= 	c #BA9760",
"- 	c #B99660",
"; 	c #B9965F",
"> 	c #C09C62",
", 	c #BF9A60",
"' 	c #AE8D56",
") 	c #9A7945",
"! 	c #B8955E",
"~ 	c #B7945E",
"{ 	c #B5935C",
"] 	c #AF8E56",
"^ 	c #AF8F56",
"/ 	c #B29158",
"( 	c #B5935D",
"_ 	c #B19057",
": 	c #B09056",
"< 	c #B29058",
"[ 	c #B3915B",
"} 	c #A1844E",
"| 	c #AF8F57",
"1 	c #B5925C",
"2 	c #B19058",
"3 	c #A68751",
"4 	c #9E7E48",
"5 	c #A2854E",
"6 	c #A58850",
"7 	c #B09057",
"8 	c #B4925C",
"9 	c #A68952",
"0 	c #A68851",
"a 	c #AC8D54",
"b 	c #A88952",
"c 	c #B4915C",
"d 	c #B39159",
"e 	c #A68852",
"f 	c #A3874F",
"g 	c #AD8D55",
"h 	c #AC8D55",
"i 	c #A1854E",
"j 	c #AE8E55",
"k 	c #A48850",
"l 	c #A58851",
"m 	c #B4915B",
"n 	c #AE8D55",
"o 	c #B2915B",
"p 	c #B4925D",
"q 	c #AE8E56",
"r 	c #AA8B53",
"s 	c #A3864F",
"t 	c #A38750",
"u 	c #A38650",
"v 	c #9F834C",
"w 	c #AB8C54",
"x 	c #B4925B",
"y 	c #B3925B",
"z 	c #AC8C54",
"A 	c #A48750",
"B 	c #A78953",
"C 	c #B08F58",
"D 	c #AE8E57",
"E 	c #B18E59",
"F 	c #9A7A45",
"G 	c #B1905A",
"H 	c #A1854F",
"I 	c #997F4C",
"J 	c #997F4B",
"K 	c #A0834F",
"L 	c #A28551",
"M 	c #A78857",
"N 	c #A88857",
"O 	c #A88957",
"P 	c #A78853",
"Q 	c #AE8F56",
"R 	c #AD8E55",
"S 	c #AC8C55",
"T 	c #987743",
"U 	c #9F824C",
"V 	c #B08E59",
"W 	c #AE8C58",
"X 	c #A98952",
"Y 	c #9D824C",
"Z 	c #9D814C",
"` 	c #9E814B",
" .	c #A0844D",
"..	c #A88951",
"+.	c #A68750",
"@.	c #8E7548",
"#.	c #484032",
"$.	c #413C30",
"%.	c #3F3C2E",
"&.	c #3F3C2F",
"*.	c #403D2F",
"=.	c #423E31",
"-.	c #413D30",
";.	c #554C35",
">.	c #997E4C",
",.	c #9E814C",
"'.	c #A58750",
").	c #A78851",
"!.	c #A98953",
"~.	c #A0834D",
"{.	c #9A7E49",
"].	c #917240",
"^.	c #8C6E40",
"/.	c #9B7A46",
"(.	c #9D7B47",
"_.	c #907143",
":.	c #977744",
"<.	c #8D6F40",
"[.	c #8B6E3F",
"}.	c #9A7A46",
"|.	c #8F7041",
"1.	c #7E643C",
"2.	c #3A362F",
"3.	c #314447",
"4.	c #386448",
"5.	c #396748",
"6.	c #385B41",
"7.	c #463D2C",
"8.	c #765D36",
"9.	c #796036",
"0.	c #866A3C",
"a.	c #775F35",
"b.	c #765D34",
"c.	c #B3905B",
"d.	c #BA965E",
"e.	c #B5925A",
"f.	c #B8955C",
"g.	c #B9955D",
"h.	c #BB975E",
"i.	c #A18353",
"j.	c #343230",
"k.	c #32494E",
"l.	c #3C6F4F",
"m.	c #3D734F",
"n.	c #376346",
"o.	c #4C4332",
"p.	c #A88756",
"q.	c #9D804B",
"r.	c #9E824C",
"s.	c #9F824D",
"t.	c #B08F57",
"u.	c #B7945D",
"v.	c #B7935E",
"w.	c #9C804F",
"x.	c #333230",
"y.	c #3C6E4F",
"z.	c #3C6F50",
"A.	c #3C6E50",
"B.	c #365F46",
"C.	c #4D4432",
"D.	c #B08E5A",
"E.	c #AD8E56",
"F.	c #9E824F",
"G.	c #A48752",
"H.	c #8F764A",
"I.	c #31302F",
"J.	c #3B6850",
"K.	c #344F50",
"L.	c #32474E",
"M.	c #344D51",
"N.	c #344E52",
"O.	c #344C51",
"P.	c #2F3F45",
"Q.	c #4D4333",
"R.	c #AA8B55",
"S.	c #A78952",
"T.	c #A2864F",
"U.	c #B18F58",
"V.	c #AF8E57",
"W.	c #A68757",
"X.	c #63543C",
"Y.	c #8D734C",
"Z.	c #493F31",
"`.	c #3C332B",
" +	c #27292D",
".+	c #386149",
"++	c #272C2D",
"@+	c #2A3732",
"#+	c #3B684E",
"$+	c #3C6C50",
"%+	c #375E48",
"&+	c #252A2B",
"*+	c #4D4231",
"=+	c #AD8D5A",
"-+	c #A28650",
";+	c #9C814E",
">+	c #AA8A55",
",+	c #8A714C",
"'+	c #413B30",
")+	c #2E2425",
"!+	c #4C222B",
"~+	c #2A282C",
"{+	c #417253",
"]+	c #4B7257",
"^+	c #282D2D",
"/+	c #293830",
"(+	c #3B6E4D",
"_+	c #386447",
":+	c #2C302F",
"<+	c #574E40",
"[+	c #977E4D",
"}+	c #A48655",
"|+	c #5F5138",
"1+	c #8D744C",
"2+	c #464037",
"3+	c #2D353F",
"4+	c #2F2428",
"5+	c #52232C",
"6+	c #2B282C",
"7+	c #32474D",
"8+	c #61826A",
"9+	c #BDC3B9",
"0+	c #555F67",
"a+	c #344E4E",
"b+	c #3C704F",
"c+	c #406C53",
"d+	c #737A7D",
"e+	c #B7B3AB",
"f+	c #60533E",
"g+	c #A88954",
"h+	c #B0905A",
"i+	c #AF8F5A",
"j+	c #A3854F",
"k+	c #9A7F4A",
"l+	c #9A804A",
"m+	c #9B804B",
"n+	c #9F834D",
"o+	c #A1834F",
"p+	c #7B6640",
"q+	c #3E3A31",
"r+	c #2F3A44",
"s+	c #272F2F",
"t+	c #2E2325",
"u+	c #2F3C48",
"v+	c #5D615D",
"w+	c #E9E5DC",
"x+	c #C9CCC2",
"y+	c #476E56",
"z+	c #3A6A4A",
"A+	c #688770",
"B+	c #E2E0D7",
"C+	c #D2CCC4",
"D+	c #504738",
"E+	c #9C804C",
"F+	c #A0834C",
"G+	c #A58650",
"H+	c #A5864F",
"I+	c #7A6138",
"J+	c #796037",
"K+	c #7B6238",
"L+	c #876A3D",
"M+	c #755D37",
"N+	c #43392B",
"O+	c #27292B",
"P+	c #31454C",
"Q+	c #355B44",
"R+	c #302928",
"S+	c #2A272C",
"T+	c #2E3B49",
"U+	c #5B636B",
"V+	c #DCDAD3",
"W+	c #C9CABF",
"X+	c #3A463D",
"Y+	c #29372E",
"Z+	c #5F675E",
"`+	c #E0E0D4",
" @	c #C3C2B8",
".@	c #494134",
"+@	c #937444",
"@@	c #8F7141",
"#@	c #9A7946",
"$@	c #997946",
"%@	c #7B6237",
"&@	c #785F36",
"*@	c #AF8D59",
"=@	c #B6935B",
"-@	c #B6935C",
";@	c #AD8B59",
">@	c #8A714A",
",@	c #32302F",
"'@	c #32464D",
")@	c #375D49",
"!@	c #302A28",
"~@	c #55232C",
"{@	c #342625",
"]@	c #282B31",
"^@	c #364453",
"/@	c #526367",
"(@	c #547861",
"_@	c #3A654C",
":@	c #38634A",
"<@	c #406950",
"[@	c #597F65",
"}@	c #4F6C57",
"|@	c #504634",
"1@	c #B3915A",
"2@	c #B08D59",
"3@	c #A78852",
"4@	c #B19158",
"5@	c #B29258",
"6@	c #B6945E",
"7@	c #504532",
"8@	c #282A2C",
"9@	c #30404E",
"0@	c #31464B",
"a@	c #2F2629",
"b@	c #64282D",
"c@	c #713628",
"d@	c #2E292B",
"e@	c #2F3C4A",
"f@	c #303F4C",
"g@	c #31444C",
"h@	c #2F4046",
"i@	c #272F2E",
"j@	c #4C4231",
"k@	c #AD8D57",
"l@	c #B09059",
"m@	c #877045",
"n@	c #31302E",
"o@	c #32454E",
"p@	c #36594A",
"q@	c #302929",
"r@	c #66282D",
"s@	c #7A392A",
"t@	c #2E2625",
"u@	c #25292D",
"v@	c #25292E",
"w@	c #282E36",
"x@	c #2C3742",
"y@	c #4E4334",
"z@	c #AE8E5A",
"A@	c #A4864F",
"B@	c #987844",
"C@	c #B5925D",
"D@	c #B08F5A",
"E@	c #8E764A",
"F@	c #343433",
"G@	c #31424B",
"H@	c #302F2D",
"I@	c #5F282C",
"J@	c #773629",
"K@	c #3A2B2B",
"L@	c #2E3A45",
"M@	c #31464C",
"N@	c #32464E",
"O@	c #304349",
"P@	c #484534",
"Q@	c #AA8C53",
"R@	c #B18F5A",
"S@	c #A18352",
"T@	c #423C32",
"U@	c #303D4A",
"V@	c #314251",
"W@	c #344E51",
"X@	c #375C45",
"Y@	c #372A29",
"Z@	c #682A2C",
"`@	c #743829",
" #	c #3C3730",
".#	c #385F48",
"+#	c #39654B",
"@#	c #3C6D50",
"##	c #3B6C50",
"$#	c #3A6750",
"%#	c #3B684F",
"&#	c #395E43",
"*#	c #524933",
"=#	c #9D824D",
"-#	c #A38455",
";#	c #363430",
">#	c #303E4D",
",#	c #334752",
"'#	c #3A6550",
")#	c #396749",
"!#	c #32342D",
"~#	c #843B2B",
"{#	c #773B29",
"]#	c #3E3129",
"^#	c #373C2F",
"/#	c #396547",
"(#	c #3A6B4A",
"_#	c #3D724F",
":#	c #3C6B50",
"<#	c #355051",
"[#	c #365750",
"}#	c #376046",
"|#	c #4C4331",
"1#	c #B2905A",
"2#	c #9E824D",
"3#	c #9A7E4D",
"4#	c #34322F",
"5#	c #3B694F",
"6#	c #396246",
"7#	c #39332E",
"8#	c #642B2C",
"9#	c #853B2A",
"0#	c #853D29",
"a#	c #763A29",
"b#	c #3D3128",
"c#	c #373D2F",
"d#	c #3D714F",
"e#	c #463F2F",
"f#	c #987D4A",
"g#	c #9C7F4B",
"h#	c #937441",
"i#	c #8B6E40",
"j#	c #896C3E",
"k#	c #7D6338",
"l#	c #8A6D3F",
"m#	c #7D643D",
"n#	c #302D2C",
"o#	c #2E3A47",
"p#	c #2F3C4B",
"q#	c #2F3D4B",
"r#	c #32494B",
"s#	c #396449",
"t#	c #36573F",
"u#	c #3F292A",
"v#	c #702E2C",
"w#	c #8C3E29",
"x#	c #8C3F29",
"y#	c #763A28",
"z#	c #3D3129",
"A#	c #383D30",
"B#	c #3A6547",
"C#	c #3A6849",
"D#	c #355A41",
"E#	c #383328",
"F#	c #765E38",
"G#	c #7A6037",
"H#	c #7B6137",
"I#	c #B4925A",
"J#	c #987C4B",
"K#	c #41382D",
"L#	c #2F2529",
"M#	c #2F252A",
"N#	c #31272A",
"O#	c #382F29",
"P#	c #412E29",
"Q#	c #682C2D",
"R#	c #883C2A",
"S#	c #8E4029",
"T#	c #3D3028",
"U#	c #393028",
"V#	c #392E27",
"W#	c #342824",
"X#	c #534732",
"Y#	c #AA8A57",
"Z#	c #B6935A",
"`#	c #B7935C",
" $	c #967C4C",
".$	c #3C302A",
"+$	c #57232D",
"@$	c #5D232E",
"#$	c #5E242E",
"$$	c #692B2D",
"%$	c #823C29",
"&$	c #863D29",
"*$	c #8B3E2A",
"=$	c #853E28",
"-$	c #853D28",
";$	c #713727",
">$	c #514433",
",$	c #B18F5B",
"'$	c #A28455",
")$	c #3D302B",
"!$	c #5C232D",
"~$	c #62232E",
"{$	c #68272E",
"]$	c #83382B",
"^$	c #8D3F29",
"/$	c #733628",
"($	c #4F4230",
"_$	c #A88953",
":$	c #9D814F",
"<$	c #3D302A",
"[$	c #63242E",
"}$	c #6A282E",
"|$	c #732E2D",
"1$	c #8C3E2A",
"2$	c #893D2A",
"3$	c #80372B",
"4$	c #5A262B",
"5$	c #493E2E",
"6$	c #997A47",
"7$	c #A3854E",
"8$	c #937A4A",
"9$	c #3B2F29",
"0$	c #82382C",
"a$	c #78312C",
"b$	c #863A2A",
"c$	c #702C2D",
"d$	c #6B292E",
"e$	c #4A3F2E",
"f$	c #A48650",
"g$	c #9B7F4E",
"h$	c #64242F",
"i$	c #712D2E",
"j$	c #863B2A",
"k$	c #8D4029",
"l$	c #7D342C",
"m$	c #56242B",
"n$	c #4B402F",
"o$	c #A4854F",
"p$	c #9C814B",
"q$	c #8D7546",
"r$	c #392E29",
"s$	c #53232C",
"t$	c #58232D",
"u$	c #5D272C",
"v$	c #73342A",
"w$	c #6D2B2E",
"x$	c #84392B",
"y$	c #873B2B",
"z$	c #7E3B28",
"A$	c #763629",
"B$	c #5D262D",
"C$	c #4D232A",
"D$	c #473D2D",
"E$	c #967C49",
"F$	c #A2844E",
"G$	c #705932",
"H$	c #735B33",
"I$	c #806439",
"J$	c #82663A",
"K$	c #765E36",
"L$	c #3B3227",
"M$	c #3B3129",
"N$	c #372D27",
"O$	c #372C27",
"P$	c #412E28",
"Q$	c #643131",
"R$	c #6B3431",
"S$	c #6F3733",
"T$	c #6C3432",
"U$	c #703834",
"V$	c #6F3734",
"W$	c #6B3432",
"X$	c #6B3331",
"Y$	c #6A3331",
"Z$	c #5E2F2E",
"`$	c #3D2F27",
" %	c #3D3228",
".%	c #362C26",
"+%	c #413728",
"@%	c #6C5630",
"#%	c #6F5831",
"  . + @ # $ % & .         * = & & - ; & .         . > . , % ' ) ",
"@ % ! ~ % ~ ~ ! { ] ^ ^ / ~ ~ ; - % ~ ! ( _ _ : @ ! % # < # [ } ",
"# # _ | 1 # 2 | 3 4 5 6 ] 7 | 8 ~ # _ | 9 0 a b c d 8 e f g h i ",
"j j a k l ^ 7 1 m n j ^ 1 [ l l g j j [ o [ 2 p # 8 q r s t u v ",
"k f k r w j x _ $ # # y ^ j z r k f A l B C # # | l t 0 D 8 E F ",
"G h g l f f h q [ 8 | l H I J I K L M N M O P Q R R q [ ( 8 S T ",
"U 5 V W X Y Z `  .5 ..+.@.#.$.%.&.*.=.-.*.*.;.>.,.'.).b !.~.{.].",
"^./.(._.:.<.[.<.}./.|.1.2.3.4.5.5.5.5.5.5.5.6.7.8.9.9.9.0.0.a.b.",
"c.d.d.V +.e.f.g.h.h.f.i.j.k.l.m.m.m.m.m.m.m.n.o.p.!.3 q.r.).s.3 ",
"~ % - ~ t./ / u.v.# d w.x.k.y.z.A.A.A.A.A.A.B.C.D.8 [ h h o 8 ~ ",
"7 t.# ~ # # 2 E.F.G.N H.I.k.J.K.L.L.M.N.N.O.P.Q.R.S.A T.T.l U.~ ",
"8 S.g q q V.y W.X.Y.Z.`. +k.A..+++@+#+$+$+%+&+*+=+G h w g q { ~ ",
"8 w k f A -+;+>+,+'+)+!+~+k.{+]+^+/+(+m.m._+:+<+[+t A l a R j j ",
"t s r a G }+|+1+2+3+4+5+6+7+8+9+0+a+b+m.m.c+d+e+f+g+h+i+A s s s ",
"j+k+l+m+n+o+p+q+r+s+t+5+6+u+v+w+x+y+z+z+z+A+B+C+D+E+s.~.F++.G+H+",
"I+J+J+K+L+M+N+O+P+Q+R+5+S+T+U+V+W+X+Y+Y+Y+Z+`+ @.@+@@@#@$@[.%@&@",
"*@x =@-@u.;@>@,@'@)@!@~@{@]@^@/@(@_@:@:@:@<@[@}@|@1@g.d.m 2@3@k+",
"4@5@5@~ 6@W.7@8@9@0@a@b@c@d@e@f@g@P+P+P+P+P+h@i@j@k@~ # | Q l@ .",
"# ~ ~ U.S.u m@n@o@p@q@r@s@t@u@v@v@v@v@v@v@v@w@x@y@z@q 3 s A A@B@",
"| 8 ~ # C@D@E@F@9@G@H@I@J@K@L@P+M@M@M@M@M@M@N@O@P@w.t Q@j [ R@#@",
"A 0 g t.# S@T@U@V@W@X@Y@Z@`@ #.#+#@#A.A.A.##$#%#&#*#=#l ^ / 8 } ",
"G w A l 8 -#;#>#,#'#)#!#I@~#{#]#^#/#(#_#m.:#<#[#}#|#P 1#( # o } ",
"2#r.A@).r 3#4#>#V@M.5#6#7#8#9#0#a#b#c#/#(#d#A.z.n.e#f#,.3 3 g#h#",
"i#j#k#L+l#m#n#o#p#q#r#s#t#u#v#w#x#0#y#z#A#B#C#C#D#E#F#G#H#K+G#&@",
"g.I#3 n+J#K#)+L#M#M#N#O#P#Q#R#S#S#S#x#0#y#T#U#U#V#W#X#Y#e.Z#-@`#",
"8 S.0 z  $.$+$@$@$#$$$%$&$*$S#S#S#S#S#S#x#=$=$-$-$;$>$,$/ @ % % ",
"9 q 8 ( '$)$!$~$~${$]$^$S#S#S#S#S#S#S#S#S#S#S#S#^$/$($_$q y # 2 ",
"8 # # | :$<$!$~$[$}$|$1$S#S#S#S#S#S#S#S#^$2$x#R#3$4$5$6$7$S.| 7 ",
"j j g 6 8$9$!$~${$0$*$S#S#S#S#S#S#S#S#S#R#a$b$c$d$~@e$f$z G 8 8 ",
"s s s r g$<$!$~$h$i$j$k$S#S#S#S#S#S#S#S#k$w#^$2$l$m$n$=#s -+A A ",
"G+o$p$p$q$r$s$t$u$v$w$x$y$y$y$y$y$y$y$y$y$9#z$A$B$C$D$E$F$m+j+G+",
"G$H$I$J$K$L$M$N$O$P$Q$R$S$T$S$U$U$V$W$X$Y$Z$`$ %N$.%+%@%G$#%G$G$"};
