/* XPM */
static char * player2_xpm[] = {
"32 32 569 2",
"  	c #BF9B60",
". 	c #C09C61",
"+ 	c #BE9B60",
"@ 	c #B39259",
"# 	c #B6935D",
"$ 	c #B29159",
"% 	c #B8955F",
"& 	c #BF9B62",
"* 	c #BF9B61",
"= 	c #BA9760",
"- 	c #B99660",
"; 	c #B9965F",
"> 	c #C09C62",
", 	c #BF9A60",
"' 	c #AE8D56",
") 	c #9A7945",
"! 	c #B8955E",
"~ 	c #B7945E",
"{ 	c #B5935C",
"] 	c #AF8E56",
"^ 	c #AF8F56",
"/ 	c #B29158",
"( 	c #B5935D",
"_ 	c #B19057",
": 	c #B09056",
"< 	c #B29058",
"[ 	c #B3915B",
"} 	c #A1844E",
"| 	c #AF8F57",
"1 	c #B5925C",
"2 	c #B19058",
"3 	c #A68751",
"4 	c #9E7E48",
"5 	c #A2854E",
"6 	c #A58850",
"7 	c #B09057",
"8 	c #B4925C",
"9 	c #A68952",
"0 	c #A68851",
"a 	c #AC8D54",
"b 	c #A88952",
"c 	c #B4915C",
"d 	c #B39159",
"e 	c #A68852",
"f 	c #A3874F",
"g 	c #AD8D55",
"h 	c #AC8D55",
"i 	c #A1854E",
"j 	c #AE8E55",
"k 	c #A48850",
"l 	c #A58851",
"m 	c #B4915B",
"n 	c #AE8D55",
"o 	c #B2915B",
"p 	c #B4925D",
"q 	c #AE8E56",
"r 	c #AA8B53",
"s 	c #A3864F",
"t 	c #A38750",
"u 	c #A38650",
"v 	c #9F834C",
"w 	c #AB8C54",
"x 	c #B4925B",
"y 	c #B3925B",
"z 	c #AD8D56",
"A 	c #A08351",
"B 	c #9C814F",
"C 	c #9B804E",
"D 	c #957C4B",
"E 	c #947C4A",
"F 	c #957B4B",
"G 	c #967C4C",
"H 	c #987D4D",
"I 	c #A88858",
"J 	c #B5925D",
"K 	c #AE8E57",
"L 	c #B18E59",
"M 	c #9A7A45",
"N 	c #B1905A",
"O 	c #887246",
"P 	c #413C31",
"Q 	c #38392E",
"R 	c #383A2E",
"S 	c #393A2F",
"T 	c #3A3B2F",
"U 	c #3B3B30",
"V 	c #4E4935",
"W 	c #9A7F4E",
"X 	c #AD8E55",
"Y 	c #AC8C55",
"Z 	c #987743",
"` 	c #9F824C",
" .	c #B08E59",
"..	c #AE8C58",
"+.	c #A98952",
"@.	c #9D824C",
"#.	c #9D814C",
"$.	c #9E814B",
"%.	c #A0844D",
"&.	c #A88951",
"*.	c #977B4A",
"=.	c #413B32",
"-.	c #324449",
";.	c #3A664B",
">.	c #3B6A4A",
",.	c #396145",
"'.	c #4C4531",
").	c #957B49",
"!.	c #A58750",
"~.	c #A78851",
"{.	c #A98953",
"].	c #A0834D",
"^.	c #9A7E49",
"/.	c #917240",
"(.	c #8C6E40",
"_.	c #9B7A46",
":.	c #9D7B47",
"<.	c #907143",
"[.	c #977744",
"}.	c #8D6F40",
"|.	c #8B6E3F",
"1.	c #8B6E40",
"2.	c #8E7142",
"3.	c #967645",
"4.	c #82673D",
"5.	c #715B38",
"6.	c #2D2D2D",
"7.	c #32474E",
"8.	c #3C6F4F",
"9.	c #3D734F",
"0.	c #396648",
"a.	c #36352A",
"b.	c #725A35",
"c.	c #796036",
"d.	c #866A3C",
"e.	c #775F35",
"f.	c #765D34",
"g.	c #B3905B",
"h.	c #BA965E",
"i.	c #A68750",
"j.	c #B5925A",
"k.	c #B8955C",
"l.	c #A98957",
"m.	c #64543B",
"n.	c #8E744B",
"o.	c #433A2D",
"p.	c #382E28",
"q.	c #27282B",
"r.	c #3C6E4F",
"s.	c #3C6D4F",
"t.	c #386148",
"u.	c #433E30",
"v.	c #A48454",
"w.	c #9D804B",
"x.	c #9E824C",
"y.	c #9F824D",
"z.	c #B08F57",
"A.	c #A68853",
"B.	c #B08E5B",
"C.	c #8B724D",
"D.	c #403A31",
"E.	c #2E2425",
"F.	c #4E232B",
"G.	c #2A272C",
"H.	c #3B6850",
"I.	c #345050",
"J.	c #31454D",
"K.	c #344D51",
"L.	c #344E52",
"M.	c #344C51",
"N.	c #2F3F46",
"O.	c #3E392E",
"P.	c #9E8153",
"Q.	c #B3915C",
"R.	c #A68756",
"S.	c #605139",
"T.	c #877048",
"U.	c #413C35",
"V.	c #2C353F",
"W.	c #2F2428",
"X.	c #53232C",
"Y.	c #2B272C",
"Z.	c #386349",
"`.	c #262D2C",
" +	c #283330",
".+	c #3A684C",
"++	c #3C6E50",
"@+	c #262C2B",
"#+	c #262524",
"$+	c #4D4331",
"%+	c #9D814F",
"&+	c #A48750",
"*+	c #A2864F",
"=+	c #B18F58",
"-+	c #A78952",
";+	c #AA8A54",
">+	c #88704A",
",+	c #403A33",
"'+	c #2F3B45",
")+	c #283030",
"!+	c #2F2426",
"~+	c #417253",
"{+	c #51765C",
"]+	c #2A3130",
"^+	c #293530",
"/+	c #3B6D4C",
"(+	c #396749",
"_+	c #2C3332",
":+	c #403F3D",
"<+	c #443C2F",
"[+	c #A68856",
"}+	c #977D4B",
"|+	c #4C4230",
"1+	c #282A2C",
"2+	c #32454C",
"3+	c #365C45",
"4+	c #302A28",
"5+	c #32464D",
"6+	c #5D7D66",
"7+	c #C2C7BD",
"8+	c #5F686F",
"9+	c #364F4F",
"0+	c #406E53",
"a+	c #6F787B",
"b+	c #BBB9B2",
"c+	c #4D473D",
"d+	c #9A804D",
"e+	c #AD8D59",
"f+	c #826C45",
"g+	c #31302E",
"h+	c #375E49",
"i+	c #302A29",
"j+	c #2E3C48",
"k+	c #565A58",
"l+	c #E8E3DB",
"m+	c #D2D3C9",
"n+	c #4D725A",
"o+	c #3A694A",
"p+	c #3A6949",
"q+	c #5F8067",
"r+	c #DFDED4",
"s+	c #DAD6CD",
"t+	c #514B41",
"u+	c #A28551",
"v+	c #B0905A",
"w+	c #AF8F5A",
"x+	c #A3854F",
"y+	c #9A7F4A",
"z+	c #9A804A",
"A+	c #9B804B",
"B+	c #9F834D",
"C+	c #987C4C",
"D+	c #49402E",
"E+	c #28292B",
"F+	c #30404D",
"G+	c #31464B",
"H+	c #2F272A",
"I+	c #2B262B",
"J+	c #2E3B48",
"K+	c #555D67",
"L+	c #D6D4CE",
"M+	c #CBCCC1",
"N+	c #3F4B42",
"O+	c #29382F",
"P+	c #525C52",
"Q+	c #D7D8CC",
"R+	c #C9C9BE",
"S+	c #977C4A",
"T+	c #A0834C",
"U+	c #A58650",
"V+	c #A5864F",
"W+	c #7A6138",
"X+	c #796037",
"Y+	c #7B6238",
"Z+	c #876A3D",
"`+	c #7D6339",
" @	c #725B38",
".@	c #2F2E2D",
"+@	c #31454E",
"@@	c #36594A",
"#@	c #55242D",
"$@	c #362625",
"%@	c #272A2F",
"&@	c #354252",
"*@	c #4D5E64",
"=@	c #517560",
"-@	c #3B664D",
";@	c #39644C",
">@	c #3E684F",
",@	c #537A61",
"'@	c #4D6D56",
")@	c #3D392D",
"!@	c #8F7141",
"~@	c #9A7946",
"{@	c #997946",
"]@	c #7B6237",
"^@	c #785F36",
"/@	c #AF8D59",
"(@	c #B6935B",
"_@	c #B6935C",
":@	c #B7945D",
"<@	c #B18F5B",
"[@	c #A28353",
"}@	c #363330",
"|@	c #303F4D",
"1@	c #30434C",
"2@	c #30302E",
"3@	c #5C282C",
"4@	c #6D3329",
"5@	c #2E292A",
"6@	c #2F3E4C",
"7@	c #31434C",
"8@	c #2F4047",
"9@	c #272F2F",
"0@	c #443C2E",
"a@	c #AE8D58",
"b@	c #B9955D",
"c@	c #B08D59",
"d@	c #A78852",
"e@	c #B19158",
"f@	c #B29258",
"g@	c #B6945E",
"h@	c #B4935D",
"i@	c #9D8150",
"j@	c #36332F",
"k@	c #375D46",
"l@	c #362B2A",
"m@	c #59262C",
"n@	c #3A2725",
"o@	c #332929",
"p@	c #262629",
"q@	c #25272A",
"r@	c #28312E",
"s@	c #28322F",
"t@	c #28312F",
"u@	c #262A2F",
"v@	c #282F34",
"w@	c #2E3E43",
"x@	c #433C30",
"y@	c #A88955",
"z@	c #AE8F56",
"A@	c #B09059",
"B@	c #927848",
"C@	c #33312E",
"D@	c #32454E",
"E@	c #3A6550",
"F@	c #39684A",
"G@	c #31352E",
"H@	c #5B282C",
"I@	c #7C382A",
"J@	c #783928",
"K@	c #3E2923",
"L@	c #353129",
"M@	c #365B41",
"N@	c #386245",
"O@	c #39654B",
"P@	c #334A4D",
"Q@	c #334D4D",
"R@	c #375E48",
"S@	c #443F31",
"T@	c #AA8A58",
"U@	c #A4864F",
"V@	c #987844",
"W@	c #9A7E4E",
"X@	c #35332F",
"Y@	c #3A684F",
"Z@	c #386246",
"`@	c #37342E",
" #	c #622B2D",
".#	c #843A2A",
"+#	c #853D28",
"@#	c #793B28",
"##	c #3F3129",
"$#	c #383A2F",
"%#	c #396447",
"&#	c #AA8C53",
"*#	c #B18F5A",
"=#	c #AE8D57",
"-#	c #877045",
";#	c #31302D",
">#	c #2E3A48",
",#	c #32494C",
"'#	c #386449",
")#	c #365840",
"!#	c #3E2A2A",
"~#	c #6F2D2C",
"{#	c #8B3E2A",
"]#	c #8C4029",
"^#	c #853D29",
"/#	c #793B29",
"(#	c #396446",
"_#	c #365D43",
":#	c #3C392C",
"<#	c #8C7547",
"[#	c #A0854E",
"}#	c #A48555",
"|#	c #41382C",
"1#	c #2D2425",
"2#	c #2E2529",
"3#	c #2E252A",
"4#	c #30272A",
"5#	c #372F29",
"6#	c #3F2E29",
"7#	c #662C2C",
"8#	c #873C2A",
"9#	c #8E4029",
"0#	c #8C3F29",
"a#	c #3F3128",
"b#	c #372F28",
"c#	c #372E28",
"d#	c #342824",
"e#	c #4C412F",
"f#	c #A38551",
"g#	c #B2905A",
"h#	c #9E824D",
"i#	c #997D4D",
"j#	c #3A2E29",
"k#	c #57232C",
"l#	c #5C232D",
"m#	c #5D242D",
"n#	c #682B2D",
"o#	c #823B29",
"p#	c #8A3E2A",
"q#	c #8D4029",
"r#	c #753927",
"s#	c #43372A",
"t#	c #937A48",
"u#	c #9E814C",
"v#	c #9C7F4B",
"w#	c #937441",
"x#	c #896C3E",
"y#	c #7D6338",
"z#	c #896C41",
"A#	c #392C28",
"B#	c #62232E",
"C#	c #68272E",
"D#	c #83382B",
"E#	c #8D3F29",
"F#	c #793829",
"G#	c #3C3127",
"H#	c #7D643A",
"I#	c #7B6138",
"J#	c #7B6137",
"K#	c #7A6037",
"L#	c #B4925A",
"M#	c #9E8052",
"N#	c #3E302A",
"O#	c #63242E",
"P#	c #69282E",
"Q#	c #732E2D",
"R#	c #8A3D29",
"S#	c #893C2A",
"T#	c #5F272C",
"U#	c #43382C",
"V#	c #A18250",
"W#	c #B6935A",
"X#	c #B7935C",
"Y#	c #AC8C54",
"Z#	c #9D8050",
"`#	c #82382B",
" $	c #76302D",
".$	c #873B2B",
"+$	c #712C2D",
"@$	c #6C292E",
"#$	c #59232C",
"$$	c #463A2E",
"%$	c #AB8A58",
"&$	c #A28454",
"*$	c #3E302B",
"=$	c #64242E",
"-$	c #712D2D",
";$	c #873B2A",
">$	c #8B3E29",
",$	c #8A3D2A",
"'$	c #7F362B",
")$	c #5B252C",
"!$	c #A48652",
"~$	c #9C804F",
"{$	c #3B2F29",
"]$	c #54232C",
"^$	c #5F272D",
"/$	c #74342A",
"($	c #682B2C",
"_$	c #853A2B",
":$	c #893C2B",
"<$	c #813C29",
"[$	c #803C28",
"}$	c #883C2A",
"|$	c #7B3829",
"1$	c #61282D",
"2$	c #51232B",
"3$	c #43382D",
"4$	c #987D4A",
"5$	c #9D7D48",
"6$	c #A3854E",
"7$	c #483E2E",
"8$	c #40352C",
"9$	c #43372C",
"0$	c #42352B",
"a$	c #362526",
"b$	c #62262D",
"c$	c #67262E",
"d$	c #5F262D",
"e$	c #382825",
"f$	c #413328",
"g$	c #413429",
"h$	c #392725",
"i$	c #5B262C",
"j$	c #57262B",
"k$	c #372826",
"l$	c #43362B",
"m$	c #41352B",
"n$	c #3F352C",
"o$	c #504531",
"p$	c #9A7F4B",
"q$	c #A98A52",
"r$	c #AF8E59",
"s$	c #A78857",
"t$	c #A88857",
"u$	c #A98958",
"v$	c #967A50",
"w$	c #3A2D29",
"x$	c #5D232D",
"y$	c #59232D",
"z$	c #40352B",
"A$	c #8B7346",
"B$	c #453C2E",
"C$	c #41362B",
"D$	c #41362C",
"E$	c #534734",
"F$	c #9D8052",
"G$	c #A18451",
"H$	c #A48654",
"I$	c #A98A53",
"J$	c #A28650",
"K$	c #A4854F",
"L$	c #9C814B",
"M$	c #9D814B",
"N$	c #9C804C",
"O$	c #A88852",
"P$	c #967A4B",
"Q$	c #3F342A",
"R$	c #907342",
"S$	c #A68650",
"T$	c #9F824E",
"U$	c #9C7F4C",
"V$	c #9B7F4C",
"W$	c #947948",
"X$	c #9A7E4C",
"Y$	c #A2844E",
"Z$	c #705932",
"`$	c #735B33",
" %	c #806439",
".%	c #82663A",
"+%	c #7F6439",
"@%	c #7E6338",
"#%	c #675230",
"$%	c #2E2925",
"%%	c #292223",
"&%	c #282223",
"*%	c #3A3227",
"=%	c #8C6E3F",
"-%	c #967542",
";%	c #87693C",
">%	c #84673B",
",%	c #715932",
"'%	c #7D6238",
")%	c #6E5831",
"!%	c #6F5831",
"  . + @ # $ % & .         * = & & - ; & .         . > . , % ' ) ",
"@ % ! ~ % ~ ~ ! { ] ^ ^ / ~ ~ ; - % ~ ! ( _ _ : @ ! % # < # [ } ",
"# # _ | 1 # 2 | 3 4 5 6 ] 7 | 8 ~ # _ | 9 0 a b c d 8 e f g h i ",
"j j a k l ^ 7 1 m n j ^ 1 [ l l g j j [ o [ 2 p # 8 q r s t u v ",
"k f k r w j x _ $ # # y z A B C D E F G H A I J | l t 0 K 8 L M ",
"N h g l f f h q [ 8 | u O P Q R S S T T T U V W a X q [ ( 8 Y Z ",
"` 5  ...+.@.#.$.%.5 &.*.=.-.;.>.>.>.>.>.>.>.,.'.).!.~.b {.].^./.",
"(._.:.<.[.}.|.1.2.3.4.5.6.7.8.9.9.9.9.9.9.9.0.a.b.c.c.c.d.d.e.f.",
"g.h.h. .i.j.k.l.m.n.o.p.q.7.r.r.s.s.s.s.s.s.t.u.v.{.3 w.x.~.y.3 ",
"~ % - ~ z.z.A.B.C.D.E.F.G.7.H.I.J.J.K.L.L.M.N.O.P.Q.[ h h o 8 ~ ",
"7 z.# ~ # R.S.T.U.V.W.X.Y.7.r.Z.`. +.+++++Z.@+#+$+%+&+*+*+l =+~ ",
"8 -+g q q ;+>+,+'+)+!+X.Y.7.~+{+]+^+/+9.9.(+_+:+<+[+h w g q { ~ ",
"8 w k f &+}+|+1+2+3+4+X.Y.5+6+7+8+9+8.9.9.0+a+b+c+d+&+l a X j j ",
"t s r a N e+f+g+5+h+i+X.Y.j+k+l+m+n+o+p+p+q+r+s+t+u+v+w+&+s s s ",
"x+y+z+A+B+C+D+E+F+G+H+X.I+J+K+L+M+N+O+O+O+P+Q+R+c+S+y.].T+i.U+V+",
"W+X+X+Y+Z+`+ @.@+@@@i+#@$@%@&@*@=@-@;@;@;@>@,@'@)@<.!@~@{@|.]@^@",
"/@x (@_@:@<@[@}@|@1@2@3@4@5@J+6@7@7@7@7@7@7@8@9@0@a@b@h.m c@d@y+",
"e@f@f@~ g@h@i@j@F+K.k@l@m@n@o@p@q@r@s@s@t@u@v@w@x@y@~ # | z@A@%.",
"# ~ ~ =+-+l B@C@D@E@F@G@H@I@J@K@L@M@N@>.O@P@Q@R@S@T@q 3 s &+U@V@",
"| 8 ~ # J [ W@X@|@M.Y@Z@`@ #.#+#@###$#%#o+r.8.0.u.u+&+&#j [ *#~@",
"&+0 g z.# =#-#;#>#6@,#'#)#!#~#{#]#^#/###$#(#p+_#:#<#[#l ^ / 8 } ",
"N w &+l 8 }#|#1#2#3#4#5#6#7#8#9#9#9#0#^#/#a#b#c#d#e#f#g#( # o } ",
"h#x.U@~.r i#j#k#l#m#n#o#^#p#9#9#9#9#9#9#q#^#^#^#r#s#t#u#3 3 v#w#",
"1.x#y#Z+}.z#A#l#B#C#D#E#9#9#9#9#9#9#9#9#9#9#9#E#F#G#H#I#J#Y+K#^@",
"b@L#3 B+~.M#N#l#O#P#Q#{#9#9#9#9#9#9#9#E#R#E#S#D#T#U#V#/@j.W#_@X#",
"8 -+0 Y#-+Z#N#l#C#`#p#9#9#9#9#9#9#9#9#S# $.$+$@$#$$$%$# / @ % % ",
"9 q 8 ( 1 &$*$l#=$-$;$9#9#9#9#9#9#9#9#q#>$E#,$'$)$$$!$g q y # 2 ",
"8 # # | ] ~${$]$^$/$($_$:$8#<$[$[$<$}$:$8#<$|$1$2$3$4$5$6$-+| 7 ",
"j j g 6 f D 7$8$9$0$a$b$c$d$e$f$g$h$i$d$j$k$l$m$n$o$p$q$Y#N 8 8 ",
"s s s r Y#r$s$t$u$v$w$x$B#y$z$A$O B$z$C$D$E$F$G$H$u+I$*+s J$&+&+",
"U+K$L$L$M$N$y.~.O$P$j#]$y$2$Q$R$S$T$U$V$W$X$N$#.N$p$p$p$Y$A+x+U+",
"Z$`$ %.%+%`$@%`$Z$#%$%%%%%&%*%=%Z -%;%>% %`$,%'%,%)%)%!%Z$!%Z$Z$"};
