/* XPM */
static char * player1_xpm[] = {
"32 32 566 2",
"  	c #BF9B60",
". 	c #C09C61",
"+ 	c #BE9B60",
"@ 	c #B39259",
"# 	c #B6935D",
"$ 	c #B29159",
"% 	c #B8955F",
"& 	c #BF9B62",
"* 	c #BF9B61",
"= 	c #BA9760",
"- 	c #B99660",
"; 	c #B9965F",
"> 	c #C09C62",
", 	c #BF9A60",
"' 	c #AE8D56",
") 	c #9A7945",
"! 	c #B8955E",
"~ 	c #B7945E",
"{ 	c #B5935C",
"] 	c #AF8E56",
"^ 	c #AF8F56",
"/ 	c #B29158",
"( 	c #B5935D",
"_ 	c #B19057",
": 	c #B09056",
"< 	c #B29058",
"[ 	c #B3915B",
"} 	c #A1844E",
"| 	c #AF8F57",
"1 	c #B5925C",
"2 	c #B19058",
"3 	c #A68751",
"4 	c #9E7E48",
"5 	c #A2854E",
"6 	c #A58850",
"7 	c #B09057",
"8 	c #B4925C",
"9 	c #A68952",
"0 	c #A68851",
"a 	c #AC8D54",
"b 	c #A88952",
"c 	c #B4915C",
"d 	c #B39159",
"e 	c #A68852",
"f 	c #A3874F",
"g 	c #AD8D55",
"h 	c #AC8D55",
"i 	c #A1854E",
"j 	c #AE8E55",
"k 	c #A48850",
"l 	c #A58851",
"m 	c #B4915B",
"n 	c #AE8D55",
"o 	c #B2915B",
"p 	c #B4925D",
"q 	c #AE8E56",
"r 	c #AA8B53",
"s 	c #A3864F",
"t 	c #A38750",
"u 	c #A38650",
"v 	c #9F834C",
"w 	c #AB8C54",
"x 	c #B4925B",
"y 	c #B3925B",
"z 	c #AC8C54",
"A 	c #A48750",
"B 	c #A78953",
"C 	c #B08F58",
"D 	c #AE8E57",
"E 	c #B18E59",
"F 	c #9A7A45",
"G 	c #B1905A",
"H 	c #A1854F",
"I 	c #957B4A",
"J 	c #937A4A",
"K 	c #947B4A",
"L 	c #9B7F4D",
"M 	c #9D804F",
"N 	c #A18454",
"O 	c #A28355",
"P 	c #A28455",
"Q 	c #A38455",
"R 	c #A28452",
"S 	c #AD8E55",
"T 	c #AC8C55",
"U 	c #987743",
"V 	c #9F824C",
"W 	c #B08E59",
"X 	c #AE8C58",
"Y 	c #A98952",
"Z 	c #9D824C",
"` 	c #9D814C",
" .	c #9E814B",
"..	c #A0844D",
"+.	c #A88951",
"@.	c #A58750",
"#.	c #8C7347",
"$.	c #423C31",
"%.	c #383A2E",
"&.	c #37392D",
"*.	c #393B2F",
"=.	c #383A2F",
"-.	c #393A2F",
";.	c #4A4633",
">.	c #927949",
",.	c #9D814B",
"'.	c #A78851",
").	c #A98953",
"!.	c #A0834D",
"~.	c #9A7E49",
"{.	c #917240",
"].	c #8C6E40",
"^.	c #9B7A46",
"/.	c #9D7B47",
"(.	c #907143",
"_.	c #977744",
":.	c #8D6F40",
"<.	c #8B6E3F",
"[.	c #9A7A46",
"}.	c #8F7041",
"|.	c #7F653C",
"1.	c #38342E",
"2.	c #314349",
"3.	c #39674B",
"4.	c #3A6B4B",
"5.	c #386144",
"6.	c #3F3A2B",
"7.	c #735B35",
"8.	c #796036",
"9.	c #866A3C",
"0.	c #775F35",
"a.	c #765D34",
"b.	c #B3905B",
"c.	c #BA965E",
"d.	c #A68750",
"e.	c #B5925A",
"f.	c #B8955C",
"g.	c #B9955D",
"h.	c #BB975E",
"i.	c #A48554",
"j.	c #373430",
"k.	c #32474D",
"l.	c #3C6E4F",
"m.	c #3D734F",
"n.	c #396648",
"o.	c #443F30",
"p.	c #A48454",
"q.	c #9D804B",
"r.	c #9E824C",
"s.	c #9F824D",
"t.	c #B08F57",
"u.	c #B5925D",
"v.	c #A98958",
"w.	c #B18F5B",
"x.	c #A38552",
"y.	c #90764A",
"z.	c #34322F",
"A.	c #3C6D50",
"B.	c #3C6C50",
"C.	c #386048",
"D.	c #AB8B59",
"E.	c #5C4F37",
"F.	c #7F6A44",
"G.	c #423A2E",
"H.	c #382E29",
"I.	c #27282B",
"J.	c #3B6850",
"K.	c #355050",
"L.	c #31434C",
"M.	c #31444D",
"N.	c #344D51",
"O.	c #334C50",
"P.	c #2E3E46",
"Q.	c #443C31",
"R.	c #A68753",
"S.	c #A78952",
"T.	c #A2864F",
"U.	c #B18F58",
"V.	c #AD8C55",
"W.	c #A68656",
"X.	c #AE8D5A",
"Y.	c #8A724C",
"Z.	c #3E3931",
"`.	c #2E2425",
" +	c #4E232C",
".+	c #2B272C",
"++	c #3C6D4F",
"@+	c #38644A",
"#+	c #262D2C",
"$+	c #28332F",
"%+	c #3A684C",
"&+	c #386349",
"*+	c #252C2A",
"=+	c #3F372C",
"-+	c #9C7F52",
";+	c #AF8F5A",
">+	c #987E4C",
",+	c #5C4E36",
"'+	c #866F48",
")+	c #433E37",
"!+	c #2D363F",
"~+	c #2E2528",
"{+	c #53232C",
"]+	c #2C272C",
"^+	c #427254",
"/+	c #54795F",
"(+	c #2B3232",
"_+	c #293631",
":+	c #3B6D4C",
"<+	c #396749",
"[+	c #2E3433",
"}+	c #454342",
"|+	c #4B4232",
"1+	c #9B814D",
"2+	c #AE8E59",
"3+	c #856E46",
"4+	c #3F3932",
"5+	c #2F3B45",
"6+	c #283230",
"7+	c #2D2426",
"8+	c #31454C",
"9+	c #5C7C65",
"0+	c #C4C9BF",
"a+	c #636C73",
"b+	c #375050",
"c+	c #3C6F4F",
"d+	c #416F54",
"e+	c #737B7E",
"f+	c #BDBAB4",
"g+	c #4F493E",
"h+	c #A38551",
"i+	c #B0905A",
"j+	c #A3854F",
"k+	c #9A7F4A",
"l+	c #9A804A",
"m+	c #9B804B",
"n+	c #9F834D",
"o+	c #997D4C",
"p+	c #4B412F",
"q+	c #28292B",
"r+	c #365D46",
"s+	c #2F2B29",
"t+	c #2E3C48",
"u+	c #545957",
"v+	c #E8E3DA",
"w+	c #D4D5CB",
"x+	c #4D715A",
"y+	c #5F8068",
"z+	c #E1DFD6",
"A+	c #DAD5CC",
"B+	c #987C4A",
"C+	c #A0834C",
"D+	c #A58650",
"E+	c #A5864F",
"F+	c #7A6138",
"G+	c #796037",
"H+	c #7B6238",
"I+	c #876A3D",
"J+	c #7B6138",
"K+	c #675434",
"L+	c #2E2C2C",
"M+	c #31454D",
"N+	c #375D4A",
"O+	c #2B262B",
"P+	c #2E3A48",
"Q+	c #535C66",
"R+	c #D2D0CB",
"S+	c #C8CABE",
"T+	c #404B42",
"U+	c #29382E",
"V+	c #29372E",
"W+	c #525C52",
"X+	c #D4D6C9",
"Y+	c #C5C6BB",
"Z+	c #494339",
"`+	c #907242",
" @	c #8F7141",
".@	c #9A7946",
"+@	c #997946",
"@@	c #7B6237",
"#@	c #785F36",
"$@	c #AF8D59",
"%@	c #B6935B",
"&@	c #B6935C",
"*@	c #B7945D",
"=@	c #A48555",
"-@	c #544734",
";@	c #29292C",
">@	c #30404D",
",@	c #31474B",
"'@	c #2E272A",
")@	c #55242C",
"!@	c #392725",
"~@	c #282A2E",
"{@	c #334251",
"]@	c #495A61",
"^@	c #4E735E",
"/@	c #3B664E",
"(@	c #39644C",
"_@	c #3D674F",
":@	c #50775E",
"<@	c #496953",
"[@	c #474132",
"}@	c #AF8E58",
"|@	c #B08D59",
"1@	c #A78852",
"2@	c #B19158",
"3@	c #B29258",
"4@	c #B6945E",
"5@	c #B3915C",
"6@	c #957B4C",
"7@	c #35322F",
"8@	c #365A4A",
"9@	c #2F2A29",
"0@	c #62272D",
"a@	c #753728",
"b@	c #30292A",
"c@	c #2D3A47",
"d@	c #2F3D4B",
"e@	c #30414B",
"f@	c #30424B",
"g@	c #2E3F46",
"h@	c #272F2F",
"i@	c #433C2E",
"j@	c #A98A55",
"k@	c #AE8F56",
"l@	c #B09059",
"m@	c #937A49",
"n@	c #35322E",
"o@	c #303F4D",
"p@	c #30424C",
"q@	c #2F312F",
"r@	c #5B282C",
"s@	c #77362A",
"t@	c #3E2925",
"u@	c #262728",
"v@	c #28332E",
"w@	c #29342F",
"x@	c #2A3834",
"y@	c #2F4044",
"z@	c #443D31",
"A@	c #AA8A58",
"B@	c #A4864F",
"C@	c #987844",
"D@	c #9C804E",
"E@	c #37332F",
"F@	c #344E50",
"G@	c #375F47",
"H@	c #342C29",
"I@	c #66292C",
"J@	c #783828",
"K@	c #403329",
"L@	c #375A41",
"M@	c #376145",
"N@	c #3A6B4A",
"O@	c #3B6C4B",
"P@	c #3A6B4C",
"Q@	c #39654C",
"R@	c #3A664D",
"S@	c #376248",
"T@	c #433E31",
"U@	c #AA8C53",
"V@	c #B18F5A",
"W@	c #B09058",
"X@	c #967C4B",
"Y@	c #36332F",
"Z@	c #3A6450",
"`@	c #3A694B",
" #	c #31372F",
".#	c #5C282C",
"+#	c #83392A",
"@#	c #7B3B29",
"##	c #423028",
"$#	c #3A382D",
"%#	c #386245",
"&#	c #396949",
"*#	c #3C724E",
"=#	c #355152",
"-#	c #365551",
";#	c #386248",
">#	c #413D2F",
",#	c #997F4B",
"'#	c #9C804F",
")#	c #383430",
"!#	c #334B52",
"~#	c #3A6750",
"{#	c #396447",
"]#	c #36372F",
"^#	c #602A2C",
"/#	c #833A2B",
"(#	c #863D29",
"_#	c #3A392D",
":#	c #3C704F",
"<#	c #386647",
"[#	c #423E30",
"}#	c #B2905A",
"|#	c #9E824D",
"1#	c #846D43",
"2#	c #33302D",
"3#	c #2D3946",
"4#	c #2E3D4A",
"5#	c #31464A",
"6#	c #386148",
"7#	c #365740",
"8#	c #3E2A2A",
"9#	c #6F2E2C",
"0#	c #8B3E2A",
"a#	c #8D4029",
"b#	c #873E29",
"c#	c #3A392E",
"d#	c #396245",
"e#	c #355B42",
"f#	c #3A382C",
"g#	c #877044",
"h#	c #9E814C",
"i#	c #9C7F4B",
"j#	c #937441",
"k#	c #8B6E40",
"l#	c #896C3E",
"m#	c #7D6338",
"n#	c #8C6E42",
"o#	c #3A3228",
"p#	c #2F2325",
"q#	c #302528",
"r#	c #30252A",
"s#	c #322629",
"t#	c #3A2E28",
"u#	c #422E28",
"v#	c #682C2C",
"w#	c #883C2A",
"x#	c #8E4029",
"y#	c #7B3B28",
"z#	c #3B2F28",
"A#	c #3B2E27",
"B#	c #372924",
"C#	c #3D3428",
"D#	c #7E643A",
"E#	c #7B6137",
"F#	c #7A6037",
"G#	c #B4925A",
"H#	c #A08253",
"I#	c #3E322A",
"J#	c #58232D",
"K#	c #5E232E",
"L#	c #5F242E",
"M#	c #6A2B2D",
"N#	c #833C29",
"O#	c #773927",
"P#	c #463B2C",
"Q#	c #A28350",
"R#	c #B6935A",
"S#	c #B7935C",
"T#	c #9F8251",
"U#	c #3F322B",
"V#	c #5C232D",
"W#	c #62232E",
"X#	c #67262E",
"Y#	c #82382B",
"Z#	c #8D3F29",
"`#	c #783729",
" $	c #483D2E",
".$	c #AB8B58",
"+$	c #A48556",
"@$	c #63242E",
"#$	c #6A292E",
"$$	c #732E2D",
"%$	c #893C2A",
"&$	c #8C3F29",
"*$	c #873C2A",
"=$	c #81382B",
"-$	c #5E272C",
";$	c #473C2F",
">$	c #A58652",
",$	c #9E8150",
"'$	c #3E312A",
")$	c #81372B",
"!$	c #893D2A",
"~$	c #77302D",
"{$	c #873B2B",
"]$	c #712D2D",
"^$	c #6C292E",
"/$	c #59232C",
"($	c #45392D",
"_$	c #997E4A",
":$	c #9D7D48",
"<$	c #A3854E",
"[$	c #3C302A",
"}$	c #64242E",
"|$	c #712C2D",
"1$	c #853A2B",
"2$	c #8C3E2A",
"3$	c #8A3D2A",
"4$	c #7F352C",
"5$	c #5B242C",
"6$	c #43382C",
"7$	c #A98A52",
"8$	c #9F8253",
"9$	c #3C312B",
"0$	c #52232B",
"a$	c #5C262C",
"b$	c #71342A",
"c$	c #632A2B",
"d$	c #7B3929",
"e$	c #853B2A",
"f$	c #863B2B",
"g$	c #7D3B28",
"h$	c #7E3B28",
"i$	c #7D3A28",
"j$	c #7C3A28",
"k$	c #773729",
"l$	c #4F232A",
"m$	c #443A2D",
"n$	c #A0834F",
"o$	c #A28650",
"p$	c #A4854F",
"q$	c #9C814B",
"r$	c #907748",
"s$	c #493F2E",
"t$	c #41372C",
"u$	c #42372C",
"v$	c #44382B",
"w$	c #40352B",
"x$	c #362625",
"y$	c #60252E",
"z$	c #65252E",
"A$	c #5D252D",
"B$	c #322524",
"C$	c #342424",
"D$	c #57252C",
"E$	c #5B252D",
"F$	c #53252B",
"G$	c #342825",
"H$	c #41362A",
"I$	c #42362A",
"J$	c #41362B",
"K$	c #3F352A",
"L$	c #4F432F",
"M$	c #937A48",
"N$	c #9A7F4B",
"O$	c #A2844E",
"P$	c #705932",
"Q$	c #735B33",
"R$	c #806439",
"S$	c #82663A",
"T$	c #7F6439",
"U$	c #725A32",
"V$	c #775E36",
"W$	c #6C5530",
"X$	c #69532F",
"Y$	c #705935",
"Z$	c #4A3A2C",
"`$	c #693933",
" %	c #6A3631",
".%	c #683B33",
"+%	c #4B3C2E",
"@%	c #493C2E",
"#%	c #4A3B2E",
"$%	c #43362A",
"%%	c #41352A",
"&%	c #463B2A",
"*%	c #665130",
"=%	c #6B5430",
"-%	c #765D36",
";%	c #6A542F",
">%	c #6E5730",
",%	c #6F5831",
"  . + @ # $ % & .         * = & & - ; & .         . > . , % ' ) ",
"@ % ! ~ % ~ ~ ! { ] ^ ^ / ~ ~ ; - % ~ ! ( _ _ : @ ! % # < # [ } ",
"# # _ | 1 # 2 | 3 4 5 6 ] 7 | 8 ~ # _ | 9 0 a b c d 8 e f g h i ",
"j j a k l ^ 7 1 m n j ^ 1 [ l l g j j [ o [ 2 p # 8 q r s t u v ",
"k f k r w j x _ $ # # y ^ j z r k f A l B C # # | l t 0 D 8 E F ",
"G h g l f f h q [ 8 | l H I J K L M N O P Q R q S S q [ ( 8 T U ",
"V 5 W X Y Z `  ...5 +.@.#.$.%.&.%.%.*.=.-.%.;.>.,.@.'.b ).!.~.{.",
"].^./.(._.:.<.:.[.^.}.|.1.2.3.4.4.4.4.4.4.4.5.6.7.8.8.8.9.9.0.a.",
"b.c.c.W d.e.f.g.h.h.f.i.j.k.l.m.m.m.m.m.m.m.n.o.p.).3 q.r.'.s.3 ",
"~ % - ~ t./ / u.v.w.x.y.z.k.A.A.B.B.B.B.B.B.C.o.D.8 [ h h o 8 ~ ",
"7 t.# ~ # # 2 x.E.F.G.H.I.k.J.K.L.M.N.N.N.O.P.Q.R.S.A T.T.l U.~ ",
"8 S.g q q V.W.X.Y.Z.`. +.+k.++@+#+$+%+l.l.&+*+=+-+;+h w g q { ~ ",
"8 w k f A >+,+'+)+!+~+{+]+k.^+/+(+_+:+m.m.<+[+}+|+1+A l a S j j ",
"t s r a G 2+3+4+5+6+7+{+]+8+9+0+a+b+c+m.m.d+e+f+g+h+i+;+A s s s ",
"j+k+l+m+n+o+p+q+8+r+s+{+]+t+u+v+w+x+<+<+<+y+z+A+g+B+s.!.C+d.D+E+",
"F+G+G+H+I+J+K+L+M+N+s+{+O+P+Q+R+S+T+U+V+V+W+X+Y+Z+`+ @.@+@<.@@#@",
"$@x %@&@*@=@-@;@>@,@'@)@!@~@{@]@^@/@(@(@(@_@:@<@[@}@g.c.m |@1@k+",
"2@3@3@~ 4@5@6@7@M.8@9@0@a@b@c@d@e@f@f@f@f@f@g@h@i@j@~ # | k@l@..",
"# ~ ~ U.S.l m@n@o@p@q@r@s@t@u@v@w@w@w@w@w@w@x@y@z@A@q 3 s A B@C@",
"| 8 ~ # u.[ D@E@o@F@G@H@I@J@K@L@M@N@O@O@P@Q@R@S@T@h+A U@j [ V@.@",
"A 0 g t.# W@X@Y@M.Z@`@ #.#+#@###$#%#&#*#++=#-#;#>#,#T.l ^ / 8 } ",
"G w A l 8 8 '#)#o@!#~#{#]#^#/#(#@###_#%#<+l.:#<#[#H a }#( # o } ",
"|#r.B@'.r b 1#2#3#4#5#6#7#8#9#0#a#b#@###c#d#n.e#f#g#m+h#3 3 i#j#",
"k#l#m#I+:.n#o#p#q#r#s#t#u#v#w#x#x#x#a#b#y###z#A#B#C#D#J+E#H+F##@",
"g.G#3 n+'.H#I#J#K#L#M#N#b#0#x#x#x#x#x#x#a#b#b#b#O#P#Q#$@e.R#&@S#",
"8 S.0 z S.T#U#V#W#X#Y#Z#x#x#x#x#x#x#x#x#x#x#x#Z#`# $.$# / @ % % ",
"9 q 8 ( 1 +$U#V#@$#$$$0#x#x#x#x#x#x#x#Z#%$&$*$=$-$;$>$g q y # 2 ",
"8 # # | ] ,$'$V#X#)$0#x#x#x#x#x#x#x#x#!$~${$]$^$/$($_$:$<$S.| 7 ",
"j j g 6 f K [$V#}$|$1$a#x#x#x#x#x#x#x#x#2$Z#3$4$5$6$,#7$z G 8 8 ",
"s s s r z 8$9$0$a$b$c$d$e$f$e$g$h$e$f$e$i$j$k$-$l$m$n$T.s o$A A ",
"D+p$q$q$,.r$s$t$u$v$w$x$y$z$A$B$C$D$E$F$G$H$I$J$K$L$M$N$O$m+j+D+",
"P$Q$R$S$T$U$V$W$X$W$Y$Z$`$ %.%+%@%#%$%%%&%*%=%-%;%X$>%,%P$,%P$P$"};
