/* XPM */
static char * wall_xpm[] = {
"32 32 9 1",
" 	c #A9948D",
".	c #A2867D",
"+	c #C66851",
"@	c #B1624D",
"#	c #8B6E67",
"$	c #9B5643",
"%	c #8F503F",
"&	c #7C4536",
"*	c #733F31",
"@++@@@$#++@@@+@@+++@@@$.+++@@@@@",
"$$@@$$%#&%$$$@@$$$@@$$%.&$$$$@$$",
"$%$$@$%.&%$@$$$$$@$$$$%.&$%$@$$$",
"%$$$$%%.&%%$$%$$%$$$%%%.&%$$%$$%",
"$%%%%&* &&%%%$$$$%%%$%*.&%%$$%%%",
"*%%&&&* *&&%$%%%$$%&&&&.*&%$%%&*",
"**&&*** **&%&&&%%&&&***.*&&%%&&*",
"####..  ..########....  ..######",
"++@$+++@@$$@++$.++@@++@@$$@++@$#",
"$@$@$$$$@@$$@@&.&@@$$$$@@$$$@@&#",
"&@$$@$$@$$$$%@&.&%$@$$%$$$$@$%&.",
"&$%$$$$$$%$%%%&.&%%%$%$$$%$%%%&.",
"&%$%$$@%$$%$%&* &&%$$%%%$$%%%&*.",
"&&%%$$%%%%%%&&* *&%%%%%$%%%&&&*.",
"&&&%%%&&&%&&&** **&&%%&&%%&&&** ",
"..########....  ....########..  ",
"@@$@@@$.++@@@++@$$@@++$.++@+++@@",
"@$@$$@%.%@@%$$$@@$$@@@&.%@@$$++@",
"$$$$$$%.%$$$$@$$$$@$$%&.%$$@$$$$",
"$%$$%$%.%%$$$$%$$%$$%%&.%%$$$@$%",
"%$@$$%%.%$%$%%$$@$%$%%& &%$%$$%%",
"%%$$%&*.&%%%%$$%%%%%%%& &%%$%%%&",
"&%%&&&*.&&&&&%%$&&&%%&* &&%%%&&&",
"##....  ..##########..  ..######",
"$@@++@@@@$$@@@$#+@@++@@$%$@@@@$.",
"&@++@@$$@@$$$@%#%@+@@$%$$@$$@@&.",
"&%%@@$$@$$$$$$%.%$%$$@$$$$$@$$&.",
"&&%%$@%$$$$%%$%.%%$@%$$@$$$%$%&.",
"*&%$$%$$%$%$%%% %%%$$%%$$%%%$&* ",
"*&&%%%%%%$$%%%* %%%%%%$$$$&&%&* ",
"**&**&&&&&***&* **&&&&****&&&** ",
"..##########..  ....######..    "};
