/* XPM */
static char * enemy5_xpm[] = {
"32 32 638 2",
"  	c #BF9B60",
". 	c #C09C61",
"+ 	c #BE9A60",
"@ 	c #B39259",
"# 	c #B6935D",
"$ 	c #B29159",
"% 	c #B8955F",
"& 	c #BF9B62",
"* 	c #BF9B61",
"= 	c #BA9660",
"- 	c #B99660",
"; 	c #B9965F",
"> 	c #C09C62",
", 	c #BF9A60",
"' 	c #B8955E",
") 	c #AE8D56",
"! 	c #997945",
"~ 	c #B7945E",
"{ 	c #AF8E56",
"] 	c #AF8F56",
"^ 	c #AF9056",
"/ 	c #B29158",
"( 	c #B19057",
"_ 	c #B09057",
": 	c #B09056",
"< 	c #B39158",
"[ 	c #B19058",
"} 	c #B3915B",
"| 	c #A1844E",
"1 	c #AF8F57",
"2 	c #B5925C",
"3 	c #A68751",
"4 	c #9E7E48",
"5 	c #A2854E",
"6 	c #A58850",
"7 	c #B08F57",
"8 	c #B4925C",
"9 	c #B4925D",
"0 	c #A78857",
"a 	c #AF8E57",
"b 	c #A78952",
"c 	c #A68851",
"d 	c #AC8D54",
"e 	c #A78A53",
"f 	c #A68852",
"g 	c #A3874F",
"h 	c #AD8D55",
"i 	c #AC8D55",
"j 	c #A1854E",
"k 	c #AE8E55",
"l 	c #A48750",
"m 	c #A58851",
"n 	c #AE8E56",
"o 	c #B4915B",
"p 	c #AE8D55",
"q 	c #B1905A",
"r 	c #977D4B",
"s 	c #A0844F",
"t 	c #92784B",
"u 	c #605239",
"v 	c #A48652",
"w 	c #AF8E59",
"x 	c #A38554",
"y 	c #B3925B",
"z 	c #AE8F56",
"A 	c #AA8B53",
"B 	c #A3864F",
"C 	c #A38750",
"D 	c #A38650",
"E 	c #9F834C",
"F 	c #A58751",
"G 	c #AB8C53",
"H 	c #B4925B",
"I 	c #93794B",
"J 	c #4F4431",
"K 	c #8D7549",
"L 	c #4D4330",
"M 	c #8C7447",
"N 	c #937A4A",
"O 	c #A0834F",
"P 	c #877046",
"Q 	c #65553A",
"R 	c #AE8D5A",
"S 	c #A48650",
"T 	c #AE8E57",
"U 	c #B18E59",
"V 	c #9A7A45",
"W 	c #A18354",
"X 	c #9E8153",
"Y 	c #997E4E",
"Z 	c #91784A",
"` 	c #867045",
" .	c #3F382B",
"..	c #322E27",
"+.	c #75623F",
"@.	c #41392C",
"#.	c #7C6843",
"$.	c #4D4332",
"%.	c #816A47",
"&.	c #4F4433",
"*.	c #9C7F52",
"=.	c #9E8250",
"-.	c #AD8E55",
";.	c #AC8B55",
">.	c #987743",
",.	c #9F824D",
"'.	c #B08E59",
").	c #AE8D58",
"!.	c #A98952",
"~.	c #9D814C",
"{.	c #997E4A",
"].	c #594C34",
"^.	c #332F27",
"/.	c #2F2C26",
"(.	c #2E2B26",
"_.	c #282423",
":.	c #4B2B26",
"<.	c #523029",
"[.	c #44262C",
"}.	c #482B2D",
"|.	c #502C28",
"1.	c #52302A",
"2.	c #4E3430",
"3.	c #74603F",
"4.	c #4A402F",
"5.	c #907648",
"6.	c #9D804B",
"7.	c #A58750",
"8.	c #A78851",
"9.	c #A88952",
"0.	c #A0834D",
"a.	c #9A7E49",
"b.	c #917240",
"c.	c #8C6E40",
"d.	c #9B7A46",
"e.	c #9C7B47",
"f.	c #917143",
"g.	c #977744",
"h.	c #7A613A",
"i.	c #775F39",
"j.	c #765E3A",
"k.	c #383028",
"l.	c #392329",
"m.	c #2A2224",
"n.	c #3D2726",
"o.	c #B94634",
"p.	c #CB4D3E",
"q.	c #B15D6C",
"r.	c #B25C6B",
"s.	c #CB4D3D",
"t.	c #C94E41",
"u.	c #9C5360",
"v.	c #382B2C",
"w.	c #3A252A",
"x.	c #393127",
"y.	c #675332",
"z.	c #785F36",
"A.	c #796036",
"B.	c #866A3C",
"C.	c #775F35",
"D.	c #765D34",
"E.	c #B2905B",
"F.	c #BA965E",
"G.	c #A4864F",
"H.	c #997D4F",
"I.	c #493F2F",
"J.	c #2E2A26",
"K.	c #402A2C",
"L.	c #342527",
"M.	c #892E3E",
"N.	c #682D30",
"O.	c #812942",
"P.	c #4A282B",
"Q.	c #C34935",
"R.	c #DE6453",
"S.	c #F5DBD2",
"T.	c #F4D8CF",
"U.	c #DE624F",
"V.	c #DF6C5A",
"W.	c #D5BEB6",
"X.	c #4F3A3C",
"Y.	c #8A2D3F",
"Z.	c #46252D",
"`.	c #453B2E",
" +	c #8D7348",
".+	c #A58650",
"++	c #9D814B",
"@+	c #9F824C",
"#+	c #B6935E",
"$+	c #967C4D",
"%+	c #494030",
"&+	c #242423",
"*+	c #2B2225",
"=+	c #7E2841",
"-+	c #6C2F30",
";+	c #C14636",
">+	c #CF4A39",
",+	c #A83543",
"'+	c #4E292B",
")+	c #D9604D",
"!+	c #D4C0B7",
"~+	c #D4BEB5",
"{+	c #D95D4A",
"]+	c #D86553",
"^+	c #B9A79F",
"/+	c #573A36",
"(+	c #C1443A",
"_+	c #93303F",
":+	c #2E2425",
"<+	c #514533",
"[+	c #AD8C59",
"}+	c #B2915B",
"|+	c #B2905C",
"1+	c #564935",
"2+	c #453C2E",
"3+	c #4B4030",
"4+	c #312927",
"5+	c #78283E",
"6+	c #B93F3E",
"7+	c #CC463D",
"8+	c #D74C38",
"9+	c #CB4937",
"0+	c #672D30",
"a+	c #A54032",
"b+	c #A64233",
"c+	c #44322F",
"d+	c #463330",
"e+	c #A84233",
"f+	c #A24132",
"g+	c #402F2F",
"h+	c #632D2F",
"i+	c #CF4A37",
"j+	c #B84434",
"k+	c #312524",
"l+	c #473E2E",
"m+	c #9E834E",
"n+	c #A2864F",
"o+	c #AA8B54",
"p+	c #69583B",
"q+	c #90764D",
"r+	c #40372D",
"s+	c #4A242F",
"t+	c #932A47",
"u+	c #B13547",
"v+	c #D34A3A",
"w+	c #D54B39",
"x+	c #A93642",
"y+	c #5C2732",
"z+	c #4D252F",
"A+	c #49242F",
"B+	c #5B2633",
"C+	c #AC3742",
"D+	c #D64C39",
"E+	c #BA4633",
"F+	c #382C27",
"G+	c #64543A",
"H+	c #AD8D54",
"I+	c #AB8C54",
"J+	c #A48850",
"K+	c #A0854F",
"L+	c #9D824E",
"M+	c #2A2325",
"N+	c #6F263D",
"O+	c #992A4A",
"P+	c #AE3F39",
"Q+	c #CE4B37",
"R+	c #BA4634",
"S+	c #C84739",
"T+	c #8E2E41",
"U+	c #9F3045",
"V+	c #872A43",
"W+	c #9F3046",
"X+	c #902F41",
"Y+	c #C94838",
"Z+	c #B34433",
"`+	c #973D2F",
" @	c #493D2E",
".@	c #9A804D",
"+@	c #AF8F59",
"@@	c #93784E",
"#@	c #3F372B",
"$@	c #222222",
"%@	c #2D2326",
"&@	c #6A263B",
"*@	c #45272A",
"=@	c #8E3B2E",
"-@	c #4E2C26",
";@	c #934135",
">@	c #79605B",
",@	c #98493F",
"'@	c #97493F",
")@	c #79605A",
"!@	c #984A3F",
"~@	c #675B58",
"{@	c #2D2827",
"]@	c #493F30",
"^@	c #A68853",
"/@	c #B08F5A",
"(@	c #A3854F",
"_@	c #9A7F4A",
":@	c #9A804B",
"<@	c #9A7F4B",
"[@	c #866F45",
"}@	c #433A2D",
"|@	c #433A2C",
"1@	c #4C412E",
"2@	c #4C412F",
"3@	c #2E2926",
"4@	c #232222",
"5@	c #272322",
"6@	c #242222",
"7@	c #3C3836",
"8@	c #9B9691",
"9@	c #585451",
"0@	c #C8C2BA",
"a@	c #9A9691",
"b@	c #5D5956",
"c@	c #C3BFB7",
"d@	c #585350",
"e@	c #97948E",
"f@	c #373431",
"g@	c #605137",
"h@	c #9C804C",
"i@	c #A1834D",
"j@	c #A0834C",
"k@	c #A68750",
"l@	c #7A6038",
"m@	c #796037",
"n@	c #594A31",
"o@	c #483D2C",
"p@	c #79613A",
"q@	c #876B3E",
"r@	c #84683D",
"s@	c #3F372A",
"t@	c #42392B",
"u@	c #292724",
"v@	c #232323",
"w@	c #272727",
"x@	c #3C3B3A",
"y@	c #9E9B95",
"z@	c #3A3938",
"A@	c #272726",
"B@	c #444341",
"C@	c #9B9892",
"D@	c #343332",
"E@	c #2E2C28",
"F@	c #554630",
"G@	c #886C3F",
"H@	c #987845",
"I@	c #8F7141",
"J@	c #9A7946",
"K@	c #997946",
"L@	c #8B6E3F",
"M@	c #7B6237",
"N@	c #AF8D59",
"O@	c #B5935B",
"P@	c #B6935C",
"Q@	c #B5925B",
"R@	c #B18F5A",
"S@	c #AA8956",
"T@	c #6F5C3D",
"U@	c #94794B",
"V@	c #645439",
"W@	c #2C2925",
"X@	c #262626",
"Y@	c #302D2A",
"Z@	c #4E4332",
"`@	c #483E30",
" #	c #A88756",
".#	c #B7945B",
"+#	c #BA965C",
"@#	c #B9955D",
"##	c #B08D59",
"$#	c #A78852",
"%#	c #B19158",
"&#	c #B39258",
"*#	c #B6945E",
"=#	c #92774D",
"-#	c #A98957",
";#	c #886F49",
">#	c #363129",
",#	c #373129",
"'#	c #73603F",
")#	c #6D5B3D",
"!#	c #AB8C55",
"~#	c #B29259",
"{#	c #B5935D",
"]#	c #B08F59",
"^#	c #A0844D",
"/#	c #B18F58",
"(#	c #7C6740",
"_#	c #7B633C",
":#	c #927948",
"<#	c #483F2F",
"[#	c #6C5B3C",
"}#	c #383229",
"|#	c #393329",
"1#	c #7D6743",
"2#	c #B3915C",
"3#	c #987844",
"4#	c #766242",
"5#	c #5B4D35",
"6#	c #363128",
"7#	c #6A593D",
"8#	c #232322",
"9#	c #2E2E2D",
"0#	c #6B6966",
"a#	c #2F2F2E",
"b#	c #353433",
"c#	c #6A6864",
"d#	c #2B2A2A",
"e#	c #3C352B",
"f#	c #7F6944",
"g#	c #8B7349",
"h#	c #AD8D57",
"i#	c #7E6A42",
"j#	c #373229",
"k#	c #2D2D2C",
"l#	c #6E6B68",
"m#	c #4D4B49",
"n#	c #C9C5BD",
"o#	c #4E4D4B",
"p#	c #6E6C68",
"q#	c #6D6B67",
"r#	c #595755",
"s#	c #C6C1BA",
"t#	c #484745",
"u#	c #6C6A66",
"v#	c #292928",
"w#	c #473E2D",
"x#	c #9C824D",
"y#	c #8F754D",
"z#	c #7F6946",
"A#	c #3B342A",
"B#	c #272224",
"C#	c #4D2430",
"D#	c #312227",
"E#	c #59353D",
"F#	c #9A8E8A",
"G#	c #7E524A",
"H#	c #9F918B",
"I#	c #9D908A",
"J#	c #7E524B",
"K#	c #9C8F89",
"L#	c #7F544C",
"M#	c #9A8D8A",
"N#	c #6D4C53",
"O#	c #918C87",
"P#	c #39352F",
"Q#	c #6F5D3C",
"R#	c #A88A53",
"S#	c #B5935C",
"T#	c #9E824D",
"U#	c #9E824C",
"V#	c #725F3D",
"W#	c #615137",
"X#	c #594B33",
"Y#	c #332D27",
"Z#	c #3A2428",
"`#	c #9A353D",
" $	c #8A3632",
".$	c #A7383F",
"+$	c #8D3931",
"@$	c #C04836",
"#$	c #913C2F",
"$$	c #C04835",
"%$	c #903C2F",
"&$	c #BF4835",
"*$	c #8C3832",
"=$	c #A23540",
"-$	c #5A2633",
";$	c #443B2D",
">$	c #957B49",
",$	c #9C814B",
"'$	c #9E814C",
")$	c #9C7F4B",
"!$	c #937441",
"~$	c #8B6D3F",
"{$	c #896C3E",
"]$	c #7D6338",
"^$	c #876A3C",
"/$	c #8C6F40",
"($	c #997845",
"_$	c #8A6D40",
":$	c #46382D",
"<$	c #842744",
"[$	c #71283C",
"}$	c #B03A40",
"|$	c #C44041",
"1$	c #D64B3A",
"2$	c #DA4E37",
"3$	c #D44A3A",
"4$	c #A1373D",
"5$	c #43352A",
"6$	c #775E36",
"7$	c #84693C",
"8$	c #7B6138",
"9$	c #7B6238",
"0$	c #7A6037",
"a$	c #B4925A",
"b$	c #9F834D",
"c$	c #B2905A",
"d$	c #4E4132",
"e$	c #642538",
"f$	c #96284B",
"g$	c #A22B4E",
"h$	c #B83945",
"i$	c #D54B3A",
"j$	c #C74240",
"k$	c #D74C39",
"l$	c #4F4030",
"m$	c #A1844F",
"n$	c #AA8A54",
"o$	c #B5925A",
"p$	c #B6935B",
"q$	c #AC8C54",
"r$	c #AE8D57",
"s$	c #856D49",
"t$	c #3B332B",
"u$	c #5C2535",
"v$	c #94284A",
"w$	c #BA3A44",
"x$	c #C03D42",
"y$	c #BC3B44",
"z$	c #A72E4B",
"A$	c #C34041",
"B$	c #D64B39",
"C$	c #C23F41",
"D$	c #C44140",
"E$	c #D84D38",
"F$	c #41342A",
"G$	c #806A44",
"H$	c #B3905B",
"I$	c #866E49",
"J$	c #756042",
"K$	c #39322A",
"L$	c #892846",
"M$	c #A0294F",
"N$	c #A42C4D",
"O$	c #BB3B45",
"P$	c #B93A45",
"Q$	c #A52D4D",
"R$	c #BC3C44",
"S$	c #A3383D",
"T$	c #2E2424",
"U$	c #4C4131",
"V$	c #A98A53",
"W$	c #7F6943",
"X$	c #6B5B3B",
"Y$	c #393129",
"Z$	c #5E2536",
"`$	c #9A294D",
" %	c #70263D",
".%	c #69263A",
"+%	c #70263C",
"@%	c #95284A",
"#%	c #5F2537",
"$%	c #39312A",
"%%	c #786440",
"&%	c #9D7D48",
"*%	c #A3854E",
"=%	c #A68952",
"-%	c #9F834E",
";%	c #4B3E30",
">%	c #882746",
",%	c #9B294D",
"'%	c #662538",
")%	c #652B39",
"!%	c #725A40",
"~%	c #6A5636",
"{%	c #715E3D",
"]%	c #725F3E",
"^%	c #6E573D",
"/%	c #6E2C3D",
"(%	c #95284B",
"_%	c #612537",
":%	c #362F29",
"<%	c #72603D",
"[%	c #A0844E",
"}%	c #A98A52",
"|%	c #B3925C",
"1%	c #AB8B58",
"2%	c #504032",
"3%	c #832744",
"4%	c #642A38",
"5%	c #6A543B",
"6%	c #6E5D3C",
"7%	c #7A6541",
"8%	c #9C814D",
"9%	c #745D40",
"0%	c #652538",
"a%	c #6F263C",
"b%	c #902849",
"c%	c #4B3F2F",
"d%	c #A48751",
"e%	c #A28650",
"f%	c #977C4A",
"g%	c #473C2D",
"h%	c #502431",
"i%	c #342728",
"j%	c #655538",
"k%	c #9B7F4C",
"l%	c #A88951",
"m%	c #A88851",
"n%	c #AA8A52",
"o%	c #9F824E",
"p%	c #705D3B",
"q%	c #6D5B3A",
"r%	c #644E37",
"s%	c #612937",
"t%	c #603037",
"u%	c #715D3B",
"v%	c #987D4A",
"w%	c #A2844E",
"x%	c #9B804B",
"y%	c #705932",
"z%	c #735B33",
"A%	c #806439",
"B%	c #82663A",
"C%	c #7F6439",
"D%	c #715A32",
"E%	c #604D2F",
"F%	c #50412A",
"G%	c #6C5531",
"H%	c #81653A",
"I%	c #85683B",
"J%	c #947341",
"K%	c #886A3C",
"L%	c #947442",
"M%	c #967542",
"N%	c #84673B",
"O%	c #725A33",
"P%	c #6A5430",
"Q%	c #5B492E",
"R%	c #56452B",
"S%	c #6D5630",
"T%	c #6E5831",
"U%	c #6F5831",
"  . + @ # $ % & .         * = & & - ; & .         . > . , ' ) ! ",
"@ % ' # % ~ ~ ' # { ] ^ / ~ ~ ; - % ~ ' # ( _ : < ' % # [ # } | ",
"# # ( 1 2 # [ 1 3 4 5 6 ] _ 7 8 9 0 a 1 b c d e 8 $ 8 f g h i j ",
"k k d l m n _ 2 o p k ] 2 q r s t u v } w x 1 8 # y z A B C D E ",
"F l l A G k H ( / # # H h I J K L M N O P Q R # 1 c S c T 8 U V ",
"q i h m g g i i W X Y Z `  ...+.@.#.$.%.&.*.=.n -.-.n } # 8 ;.>.",
",.5 '.).!.~.~.{.].^././.(._.:.<.[.}.|.1.2.3.4.5.6.7.8.9.!.0.a.b.",
"c.d.e.f.g.c.h.i.j.k.l.m.l.n.o.p.q.r.s.t.u.v.w.x.y.z.A.A.B.B.C.D.",
"E.F.F.'.G.H.I.J.K.L.M.N.O.P.Q.R.S.T.U.V.W.X.Y.Z.`. +.+++@+8.,.3 ",
"~ % - #+$+%+&+*+=+-+;+>+,+'+Q.)+!+~+{+]+^+/+(+_+:+<+[+i i }+8 ~ ",
"_ 7 # |+1+2+3+4+5+6+7+8+9+0+a+b+c+d+e+f+g+h+i+j+k+l+m+n+n+m [ ~ ",
"8 b h o+p+I q+r+s+t+u+v+w+x+y+z+A+A+z+z+B+C+D+E+F+G+9.G H+n 2 ~ ",
"8 I+J+g K+L+4.M+N+O+P+Q+R+S+T+U+V+W+V+U+X+Y+Z+`+ @.@l m d -.k k ",
"C B A d +@@@#@$@%@&@*@=@-@;@>@,@>@'@)@'@)@!@~@{@]@^@q /@l B g g ",
"(@_@:@<@[@}@|@1@2@3@4@5@6@7@8@9@0@9@a@b@c@d@e@f@g@h@,.i@j@k@.+.+",
"l@m@m@m@n@o@p@q@r@s@t@u@$@v@w@x@y@z@A@B@C@D@E@F@G@H@I@J@K@L@M@C.",
"N@H O@P@2 N@Q@R@S@T@U@V@W@$@$@v@X@v@$@v@Y@Z@`@ #.#+#@#F.o ##$#_@",
"_ %#&#~ *#8 7 h I+=#-#;#>#$@$@$@$@$@$@$@,#'#)#!#/ ~#~ {#] ] ]#^#",
"# ~ # /#m ` (#_#:#<#[#}#$@$@$@$@$@$@$@$@$@|#1#=#2#2 n 3 G.l G.3#",
"1 8 ~ # E.4#5#6#7#}#8#$@$@$@9#0#a#$@$@$@b#c#d#e#f#g#n+A k } R@J@",
"l c h 7 # h#i#j#8#$@$@$@k#l#m#n#o#p#x@q#r#s#t#u#v#w#x#m ] $ 8 | ",
"q G l l y#z#A#$@$@B#C#D#E#F#G#H#G#I#J#K#L#M#N#O#P#Q#R#q S## }+| ",
"T#U#G..+V#W#X#Y#C#Z#`# $.$+$@$#$$$%$$$#$&$*$=$-$;$>$,$'$3 3 )$!$",
"~${$]$^$/$($_$:$<$[$}$|$1$2$2$2$2$2$2$2$2$2$3$4$5$6$7$8$9$9$0$z.",
"@#a$k@b$8.c$R@d$e$f$g$h$i$2$8+j$k$2$2$2$2$2$2$E+l$m$n$N@o$o$p$P@",
"8 b c q$b r$s$t$u$v$g$w$x$x$y$z$y$A$k$B$C$D$E$E+F$G$H$# / @ % % ",
"f n 8 2#I$J$K$*+L$M$M$M$M$M$M$M$M$N$O$P$g$Q$R$S$T$U$V$h k y # [ ",
"8 # # h W$X$Y$Z$v$M$M$M$`$ %.%.%.%.%+%`$M$M$@%#%$%%%b$&%*%=%1 _ ",
"n n h 6 g -%;%>%M$,%+%'%)%!%3.~%{%]%^%/%`$M$(%_%:%<%[%}%q$q |%8 ",
"B B B A q$1%2%3%+%4%5%6%7%^@]#i@n+B 8%9%4%0%a%b%_%c%d%B B e%l l ",
".+G.,$,$,$f%g%h%i%j%k%@+l%0.@+d.m%n%l%o%p%q%r%s%t%u%v%_@w%x%(@.+",
"y%z%A%B%C%D%E%F%F%G%H%I%J%K%L%M%>.M%^$N%A%O%P%Q%R%S%T%U%y%U%y%y%"};
