/* XPM */
static char * enemy2_xpm[] = {
"32 32 630 2",
"  	c #BF9B60",
". 	c #C09C61",
"+ 	c #BE9A60",
"@ 	c #B39259",
"# 	c #B6935D",
"$ 	c #B29159",
"% 	c #B8955F",
"& 	c #BF9B62",
"* 	c #BF9B61",
"= 	c #BA9660",
"- 	c #B3915D",
"; 	c #B6935E",
"> 	c #C09C62",
", 	c #BF9A60",
"' 	c #B8955E",
") 	c #AE8D56",
"! 	c #997945",
"~ 	c #B7945E",
"{ 	c #AF8E56",
"] 	c #AF8F56",
"^ 	c #AF9056",
"/ 	c #B29158",
"( 	c #B2905C",
"_ 	c #B18F5C",
": 	c #725F42",
"< 	c #987C51",
"[ 	c #B5935D",
"} 	c #AB8C55",
"| 	c #AE8E56",
"1 	c #B09056",
"2 	c #B39158",
"3 	c #B19058",
"4 	c #B3915B",
"5 	c #A1844E",
"6 	c #B19057",
"7 	c #AF8F57",
"8 	c #B5925C",
"9 	c #A0834F",
"0 	c #967846",
"a 	c #9A7F4B",
"b 	c #9C824D",
"c 	c #AB8C54",
"d 	c #A98A55",
"e 	c #6A593C",
"f 	c #8B724C",
"g 	c #6D5A40",
"h 	c #796444",
"i 	c #9F8251",
"j 	c #A78854",
"k 	c #9C814E",
"l 	c #67573A",
"m 	c #907749",
"n 	c #A78A53",
"o 	c #B4925C",
"p 	c #A68852",
"q 	c #A3874F",
"r 	c #AD8D55",
"s 	c #AC8D55",
"t 	c #A1854E",
"u 	c #AE8E55",
"v 	c #AC8D54",
"w 	c #A48750",
"x 	c #A58851",
"y 	c #B09057",
"z 	c #AE8D59",
"A 	c #6D5B3E",
"B 	c #443B2C",
"C 	c #473C2E",
"D 	c #473D2F",
"E 	c #8A714A",
"F 	c #6C5A3E",
"G 	c #362D27",
"H 	c #43352B",
"I 	c #382C29",
"J 	c #41352D",
"K 	c #4E3E30",
"L 	c #503F31",
"M 	c #4E3E32",
"N 	c #7B6444",
"O 	c #A08251",
"P 	c #AB8B58",
"Q 	c #AD8D5A",
"R 	c #B18F5A",
"S 	c #AE8F56",
"T 	c #AA8B53",
"U 	c #A3864F",
"V 	c #A38750",
"W 	c #A38650",
"X 	c #9F834C",
"Y 	c #A58751",
"Z 	c #AB8C53",
"` 	c #AD8D58",
" .	c #6C5A3D",
"..	c #2F2B26",
"+.	c #232222",
"@.	c #6C2738",
"#.	c #4E252F",
"$.	c #3D332B",
"%.	c #332B27",
"&.	c #8F3B2E",
"*.	c #BA4534",
"=.	c #A03E4B",
"-.	c #933C54",
";.	c #AE423F",
">.	c #9E3E4A",
",.	c #5C3A39",
"'.	c #4A3D30",
").	c #493E30",
"!.	c #483E2F",
"~.	c #836D44",
"{.	c #A68851",
"].	c #AE8E57",
"^.	c #B18E59",
"/.	c #9A7A45",
"(.	c #B1905A",
"_.	c #9D824D",
":.	c #6D5C3D",
"<.	c #38332A",
"[.	c #262523",
"}.	c #2B2325",
"|.	c #9C3B34",
"1.	c #72322D",
"2.	c #6D273A",
"3.	c #4D242F",
"4.	c #A54131",
"5.	c #DB503A",
"6.	c #E6ADA6",
"7.	c #ECD2CF",
"8.	c #E07F72",
"9.	c #DB513A",
"0.	c #E2AAA2",
"a.	c #716665",
"b.	c #6F273A",
"c.	c #49252D",
"d.	c #2B2925",
"e.	c #3F382C",
"f.	c #91774A",
"g.	c #AC8B55",
"h.	c #987743",
"i.	c #9F824D",
"j.	c #A2854E",
"k.	c #B08E59",
"l.	c #AE8D58",
"m.	c #A88952",
"n.	c #6A5939",
"o.	c #6F5D3B",
"p.	c #806B42",
"q.	c #493F2E",
"r.	c #642638",
"s.	c #B93F3D",
"t.	c #C44736",
"u.	c #A73345",
"v.	c #562532",
"w.	c #E8BBB0",
"x.	c #EEE6DC",
"y.	c #E18778",
"z.	c #DB513B",
"A.	c #E3B8AC",
"B.	c #726F6B",
"C.	c #9C3C35",
"D.	c #63302C",
"E.	c #635437",
"F.	c #4B412F",
"G.	c #876F44",
"H.	c #A98952",
"I.	c #A0834D",
"J.	c #9A7E49",
"K.	c #917240",
"L.	c #8C6E40",
"M.	c #9B7A46",
"N.	c #9C7B47",
"O.	c #917143",
"P.	c #977744",
"Q.	c #82673D",
"R.	c #7D643B",
"S.	c #56472F",
"T.	c #2C2924",
"U.	c #3C232A",
"V.	c #8E2E3F",
"W.	c #CB443E",
"X.	c #B53845",
"Y.	c #5D2634",
"Z.	c #9E3E31",
"`.	c #CC4B37",
" +	c #81514A",
".+	c #5A5754",
"++	c #AA4D3F",
"@+	c #7F5149",
"#+	c #3C3434",
"$+	c #A74133",
"%+	c #67312A",
"&+	c #312C25",
"*+	c #55462E",
"=+	c #725A34",
"-+	c #796036",
";+	c #866A3C",
">+	c #775F35",
",+	c #765D34",
"'+	c #B2905B",
")+	c #BA965E",
"!+	c #A58750",
"~+	c #AD8C57",
"{+	c #6C5A3C",
"]+	c #2E2A26",
"^+	c #AC3B3D",
"/+	c #D14A39",
"(+	c #D2493B",
"_+	c #A23342",
":+	c #602A32",
"<+	c #512B29",
"[+	c #342525",
"}+	c #432826",
"|+	c #352525",
"1+	c #70273B",
"2+	c #B4403B",
"3+	c #623029",
"4+	c #2C2A26",
"5+	c #3B342A",
"6+	c #897046",
"7+	c #9D814B",
"8+	c #9F824C",
"9+	c #A78851",
"0+	c #A68751",
"a+	c #B99660",
"b+	c #6F5D3E",
"c+	c #272524",
"d+	c #342328",
"e+	c #4A2928",
"f+	c #A44031",
"g+	c #CD4A36",
"h+	c #A83544",
"i+	c #5B333D",
"j+	c #682C3E",
"k+	c #52333B",
"l+	c #692C3E",
"m+	c #52323B",
"n+	c #782D43",
"o+	c #6C373E",
"p+	c #372D2B",
"q+	c #7B6544",
"r+	c #584A36",
"s+	c #90764C",
"t+	c #B2915B",
"u+	c #B08F57",
"v+	c #B5925D",
"w+	c #63523B",
"x+	c #2C2A25",
"y+	c #766240",
"z+	c #514631",
"A+	c #222222",
"B+	c #3E2825",
"C+	c #4D2B26",
"D+	c #45282C",
"E+	c #9A918D",
"F+	c #716463",
"G+	c #A79F9A",
"H+	c #776B6B",
"I+	c #9B928E",
"J+	c #6F6262",
"K+	c #A8A09B",
"L+	c #756868",
"M+	c #9C948F",
"N+	c #68645E",
"O+	c #8D7449",
"P+	c #987E4C",
"Q+	c #9D824E",
"R+	c #A2864F",
"S+	c #A78952",
"T+	c #65563A",
"U+	c #7A6544",
"V+	c #AB8B59",
"W+	c #68563C",
"X+	c #272624",
"Y+	c #232323",
"Z+	c #444341",
"`+	c #363634",
" @	c #AEABA4",
".@	c #73716D",
"+@	c #363635",
"@@	c #B0ADA5",
"#@	c #716E6B",
"$@	c #474643",
"%@	c #877150",
"&@	c #AD8C59",
"*@	c #AD8D54",
"=@	c #A48850",
"-@	c #977D4C",
";@	c #9E824F",
">@	c #B08F58",
",@	c #A68756",
"'@	c #544834",
")@	c #272623",
"!@	c #434241",
"~@	c #333332",
"{@	c #323231",
"]@	c #2F2C26",
"^@	c #8C7348",
"/@	c #A68952",
"(@	c #AD8E55",
"_@	c #AD8D56",
":@	c #5B4D36",
"<@	c #6B5A3A",
"[@	c #4E4430",
"}@	c #252423",
"|@	c #7A6642",
"1@	c #A88A54",
"2@	c #B2905A",
"3@	c #B08F5A",
"4@	c #A3854F",
"5@	c #9A7F4A",
"6@	c #9A804B",
"7@	c #9B804B",
"8@	c #9F834D",
"9@	c #A88852",
"0@	c #625238",
"a@	c #7B663F",
"b@	c #584B33",
"c@	c #292724",
"d@	c #2A2824",
"e@	c #866E45",
"f@	c #AA8A52",
"g@	c #A98A52",
"h@	c #A1834D",
"i@	c #A0834C",
"j@	c #A68750",
"k@	c #A58650",
"l@	c #7A6038",
"m@	c #796037",
"n@	c #7B6238",
"o@	c #876A3D",
"p@	c #7E6439",
"q@	c #886C3E",
"r@	c #8A6C3F",
"s@	c #8D6F41",
"t@	c #8E7041",
"u@	c #917242",
"v@	c #4F422D",
"w@	c #57472E",
"x@	c #43392A",
"y@	c #2B2825",
"z@	c #59482F",
"A@	c #453A2A",
"B@	c #5B4A30",
"C@	c #4A3E2D",
"D@	c #725C39",
"E@	c #8B6E40",
"F@	c #997845",
"G@	c #8F7141",
"H@	c #9A7946",
"I@	c #997946",
"J@	c #8B6E3F",
"K@	c #7B6237",
"L@	c #AF8D59",
"M@	c #B4925B",
"N@	c #B5935B",
"O@	c #B6935C",
"P@	c #B7945C",
"Q@	c #B6935B",
"R@	c #AB8B53",
"S@	c #635338",
"T@	c #8C724A",
"U@	c #69573D",
"V@	c #816A46",
"W@	c #564834",
"X@	c #242423",
"Y@	c #806946",
"Z@	c #AF8E58",
"`@	c #A98956",
" #	c #A18353",
".#	c #AD8C58",
"+#	c #B28F5A",
"@#	c #B7945B",
"##	c #BA965C",
"$#	c #B9955D",
"%#	c #B4915B",
"&#	c #B08D59",
"*#	c #A78852",
"=#	c #B19158",
"-#	c #B39258",
";#	c #B6945E",
">#	c #9F8153",
",#	c #AB8A59",
"'#	c #AA8958",
")#	c #A68657",
"!#	c #574A35",
"~#	c #856D48",
"{#	c #AF8E57",
"]#	c #AA8B54",
"^#	c #6F5E3E",
"/#	c #947A4C",
"(#	c #B29259",
"_#	c #B08F59",
":#	c #A0844D",
"<#	c #B18F58",
"[#	c #A3854E",
"}#	c #9E7E48",
"|#	c #9E824E",
"1#	c #846C45",
"2#	c #A28552",
"3#	c #67553C",
"4#	c #2C2925",
"5#	c #39332A",
"6#	c #876F49",
"7#	c #66553C",
"8#	c #93784F",
"9#	c #9D8053",
"0#	c #A58753",
"a#	c #A4864F",
"b#	c #987844",
"c#	c #A48752",
"d#	c #AE8E58",
"e#	c #69583B",
"f#	c #78653F",
"g#	c #524732",
"h#	c #332F27",
"i#	c #3B352A",
"j#	c #353029",
"k#	c #2E2B27",
"l#	c #816A48",
"m#	c #63543A",
"n#	c #897147",
"o#	c #A1844F",
"p#	c #675739",
"q#	c #796640",
"r#	c #9E834E",
"s#	c #584C34",
"t#	c #332E27",
"u#	c #352F28",
"v#	c #2E2B26",
"w#	c #7E6943",
"x#	c #9A7F4D",
"y#	c #5F5136",
"z#	c #867044",
"A#	c #B3925B",
"B#	c #66563A",
"C#	c #7D6842",
"D#	c #564A34",
"E#	c #363534",
"F#	c #2C2C2B",
"G#	c #232322",
"H#	c #373634",
"I#	c #3C3730",
"J#	c #40382D",
"K#	c #806B43",
"L#	c #514531",
"M#	c #8A7147",
"N#	c #B5935C",
"O#	c #9E824D",
"P#	c #9E824C",
"Q#	c #AA8A53",
"R#	c #8D7446",
"S#	c #4D4330",
"T#	c #312E27",
"U#	c #2A2825",
"V#	c #363535",
"W#	c #2F2E2E",
"X#	c #A6A39C",
"Y#	c #6F6D69",
"Z#	c #302F2F",
"`#	c #A9A59F",
" $	c #6B6865",
".$	c #373635",
"+$	c #39352E",
"@$	c #7E6840",
"#$	c #9E814C",
"$$	c #9C7F4B",
"%$	c #937441",
"&$	c #8B6D3F",
"*$	c #896C3E",
"=$	c #7D6338",
"-$	c #876A3C",
";$	c #8C6F40",
">$	c #987845",
",$	c #594931",
"'$	c #2A2724",
")$	c #2C2225",
"!$	c #282224",
"~$	c #2F2528",
"{$	c #99938E",
"]$	c #726763",
"^$	c #B1A9A2",
"/$	c #7D736E",
"($	c #9C948E",
"_$	c #706561",
":$	c #9C958F",
"<$	c #706460",
"[$	c #B2ABA4",
"}$	c #756D6B",
"|$	c #9B9691",
"1$	c #5F5E5B",
"2$	c #2D2A25",
"3$	c #6E5835",
"4$	c #7B6138",
"5$	c #7A6037",
"6$	c #785F36",
"7$	c #B4925A",
"8$	c #B18F59",
"9$	c #2D2225",
"0$	c #292224",
"a$	c #72293A",
"b$	c #602931",
"c$	c #792B3B",
"d$	c #704146",
"e$	c #9F483B",
"f$	c #7F4A41",
"g$	c #7F4A42",
"h$	c #A0483B",
"i$	c #7E4A42",
"j$	c #7D4942",
"k$	c #823645",
"l$	c #674047",
"m$	c #353130",
"n$	c #7B6641",
"o$	c #A68752",
"p$	c #B5925A",
"q$	c #AC8C54",
"r$	c #5A4C37",
"s$	c #6C263B",
"t$	c #582534",
"u$	c #9C3A36",
"v$	c #C2453A",
"w$	c #CB473A",
"x$	c #C94937",
"y$	c #D24C37",
"z$	c #CB4A36",
"A$	c #CC4839",
"B$	c #A73542",
"C$	c #4E282F",
"D$	c #826B45",
"E$	c #A88857",
"F$	c #A78757",
"G$	c #5A4C36",
"H$	c #6F263C",
"I$	c #912849",
"J$	c #9F2C4B",
"K$	c #AC3249",
"L$	c #CB453D",
"M$	c #DA4E37",
"N$	c #D64B39",
"O$	c #D84D38",
"P$	c #642F2A",
"Q$	c #473E2F",
"R$	c #92784A",
"S$	c #AE8D55",
"T$	c #705F3E",
"U$	c #3F382B",
"V$	c #3A232A",
"W$	c #812743",
"X$	c #A02A4F",
"Y$	c #BD3C44",
"Z$	c #D1483C",
"`$	c #D44A3A",
" %	c #D3493B",
".%	c #B73845",
"+%	c #C64140",
"@%	c #D64D37",
"#%	c #663029",
"$%	c #79653F",
"%%	c #997A47",
"&%	c #A58850",
"*%	c #5D4E36",
"=%	c #2A2725",
"-%	c #6E263C",
";%	c #9A294D",
">%	c #A0294F",
",%	c #A52C4D",
"'%	c #A82F4C",
")%	c #A72E4C",
"!%	c #A22B4E",
"~%	c #A52D4D",
"{%	c #B63746",
"]%	c #A92F4B",
"^%	c #C64240",
"/%	c #D0493A",
"(%	c #65312B",
"_%	c #77643F",
":%	c #9E834D",
"<%	c #B3925C",
"[%	c #64533B",
"}%	c #742B3E",
"|%	c #9B294D",
"1%	c #97284B",
"2%	c #92294A",
"3%	c #93294A",
"4%	c #982C48",
"5%	c #A32E4A",
"6%	c #A52D4C",
"7%	c #9C2E47",
"8%	c #593233",
"9%	c #8C7448",
"0%	c #A28650",
"a%	c #9C814B",
"b%	c #9C804B",
"c%	c #9B7E4D",
"d%	c #634D38",
"e%	c #782A3F",
"f%	c #95294B",
"g%	c #5F2C36",
"h%	c #432F2C",
"i%	c #432F2B",
"j%	c #45302D",
"k%	c #45312D",
"l%	c #7B2A41",
"m%	c #94294A",
"n%	c #5D2E36",
"o%	c #77613E",
"p%	c #957C49",
"q%	c #A2844E",
"r%	c #705932",
"s%	c #735B33",
"t%	c #806439",
"u%	c #82663A",
"v%	c #7F6439",
"w%	c #725B33",
"x%	c #68522F",
"y%	c #48342B",
"z%	c #7E2742",
"A%	c #9E294E",
"B%	c #5E2636",
"C%	c #644E33",
"D%	c #896B3E",
"E%	c #886B3E",
"F%	c #785E37",
"G%	c #4D382E",
"H%	c #9D294E",
"I%	c #5A2635",
"J%	c #604B30",
"K%	c #6D5630",
"L%	c #6E5831",
"M%	c #6F5831",
"  . + @ # $ % & .         * = & & - ; & .         . > . , ' ) ! ",
"@ % ' # % ~ ~ ' # { ] ^ / ~ ( ; _ : < ' [ } | 1 2 ' % # 3 # 4 5 ",
"# # 6 7 8 # 3 7 9 0 a b c d e f g h i j k l m n o $ o p q r s t ",
"u u v w x | y z A B C D E F G H I J K L M N O P Q R S T U V W X ",
"Y w w T Z u `  ...+.@.#.$.%.&.*.=.-.;.*.>.,.'.).!.~.t {.].o ^./.",
"(.s r x q _.:.<.[.}.|.1.2.3.4.5.6.7.8.9.0.a.b.c.d.e.f.4 # o g.h.",
"i.j.k.l.m.n.o.p.q.r.s.t.u.v.4.9.w.x.y.z.A.B.C.D.E.F.G.m.H.I.J.K.",
"L.M.N.O.P.Q.R.S.T.U.V.W.X.Y.Z.`. +.+++`.@+#+$+%+&+*+=+-+;+;+>+,+",
"'+)+)+k.!+~+{+]++.r.^+/+(+_+:+<+[+}.}+<+|+1+2+3+4+5+6+7+8+9+i.0+",
"~ % a+~ 7 b+..d.c+d+e+f+g+h+i+j+k+l+k+j+m+n+o+p+q+r+s+s s t+o ~ ",
"y u+# ~ v+w+x+y+z+A+A+B+C+D+E+F+G+H+I+J+K+L+M+N+O+P+Q+R+R+x 3 ~ ",
"o S+r u r T+U+V+W+X+A+A+A+Y+Z+`+ @.@Z++@@@#@$@%@&@(.v Z *@| 8 ~ ",
"o c =@q V -@;@>@,@'@d.)@A+A+A+Y+!@~@A+Y+Z+{@]@^@/@w w x v (@u u ",
"V U T v (.t+_@4 t+:@<@[@A+A+A+A+A+A+A+A+A+}@|@1@2@_@(.3@w U q q ",
"4@5@6@7@8@Y 8+I.9@0@a@b@c@[.A+A+A+A+d@[.d@c@e@f@g@5 i.h@i@j@k@k@",
"l@m@m@n@o@p@q@r@s@t@u@v@w@x@c@[.A+y@z@A@B@C@D@E@t@F@G@H@I@J@K@>+",
"L@M@N@O@P@R Q@R k.r R@S@T@U@V@W@X@Y@Z@`@Z@ #.#+#@###$#)+%#&#*#5@",
"y =#-#~ ;#o u+r ] %#[ >#,#'#)#!#}@~#{#]#s ^#/#=#/ (#~ [ ] ] _#:#",
"# ~ # <#S+Y [#}#4@|#S+e 1#2#3#4#+.5#6#7#8#9#0## # 8 | 0+a#w a#b#",
"7 o ~ # v+4 c#*#d#e#f#g#h#i#d.A+A+A+j#k#l#m#n#t+{#c#o#T u 4 R H@",
"w {.r u+# 7 p#q#r#s#t#d.A+A+A+A+A+A+A+A+u#v#w#x#_.y#z#x ] $ o 5 ",
"(.Z w {.o A#B#5#C#D#A+A+A+A+A+E#F#A+A+A+G#H#I#J#K#L#M#(.N## t+5 ",
"O#P#a#9+Q#T R#S#T#U#A+A+A+V#W#X#Y#V#F#+@Z#`# $.$+$x+@$#$0+0+$$%$",
"&$*$=$-$;$>$,$'$A+A+)$!$~${$]$^$/$($_$:$<$[$}$|$1$2$3$4$n@n@5$6$",
"$#7$j@8@9+8$F U#9$0$a$b$c$d$e$f$e$g$h$i$h$j$k$l$m$n$o$L@p$p$Q@O@",
"o S+{.q$S+<#,#r$s$t$u$v$w$x$y$z$y$z$y$z$y$z$A$B$C$D$E$( / @ % % ",
"p | o # 8 &@F$G$H$I$J$K$L$M$M$N$O$M$M$M$M$M$M$/+P$j#Q$R$u A## 3 ",
"o # # 7 S$T$U$y@V$W$X$Y$Z$`$ %.%+%`$O$M$N$`$O$@%#%t#$%%%[#/@7 y ",
"| | r &%q x#*%=%-%;%>%,%'%'%)%!%~%'%+% %{%]%^%/%(%_%:%g@q$(.<%o ",
"U U U T q$R F$[%}%|%>%>%>%1%2%2%2%3%4%5%!%>%6%7%8%9%T U U 0%w w ",
"k@a#a%a%a%b%i.c%d%e%|%>%f%g%h%i%j%k%j%l%|%>%m%n%o%p%5@5@q%7@4@k@",
"r%s%t%u%v%s%=$w%x%y%z%A%B%C%o@D%r@E%F%G%W$H%I%J%K%L%L%M%r%M%r%r%"};
