/* XPM */
static char * enemy6_xpm[] = {
"32 32 628 2",
"  	c #BF9B60",
". 	c #C09C61",
"+ 	c #BE9B60",
"@ 	c #B39259",
"# 	c #B6935D",
"$ 	c #B29159",
"% 	c #B8955F",
"& 	c #BF9B62",
"* 	c #BF9B61",
"= 	c #BA9660",
"- 	c #B9965F",
"; 	c #C09C62",
"> 	c #BF9A60",
", 	c #B8955E",
"' 	c #AE8D56",
") 	c #9A7945",
"! 	c #B7945D",
"~ 	c #B7945E",
"{ 	c #B5925C",
"] 	c #AE8D55",
"^ 	c #AE8E55",
"/ 	c #AF8F56",
"( 	c #B29158",
"_ 	c #B6945E",
": 	c #AA8A59",
"< 	c #816A48",
"[ 	c #B5925D",
"} 	c #B5935D",
"| 	c #B09057",
"1 	c #B19057",
"2 	c #B09056",
"3 	c #B39158",
"4 	c #B29058",
"5 	c #B3915B",
"6 	c #A1844E",
"7 	c #AF8F57",
"8 	c #B19058",
"9 	c #977C4C",
"0 	c #564831",
"a 	c #534731",
"b 	c #7A6640",
"c 	c #AA8B54",
"d 	c #A98A54",
"e 	c #715E3F",
"f 	c #977B51",
"g 	c #69573E",
"h 	c #8E744D",
"i 	c #AB8B55",
"j 	c #7C6842",
"k 	c #877045",
"l 	c #AB8C54",
"m 	c #A78A53",
"n 	c #B4925C",
"o 	c #B3915A",
"p 	c #A68852",
"q 	c #A3874F",
"r 	c #AD8D55",
"s 	c #AC8D55",
"t 	c #A1854E",
"u 	c #AC8D54",
"v 	c #A48750",
"w 	c #A58851",
"x 	c #AE8E56",
"y 	c #AB8B58",
"z 	c #A38554",
"A 	c #725E3E",
"B 	c #242423",
"C 	c #39312A",
"D 	c #524234",
"E 	c #4D4131",
"F 	c #382D27",
"G 	c #48392D",
"H 	c #372B29",
"I 	c #504032",
"J 	c #554332",
"K 	c #544333",
"L 	c #6F5B40",
"M 	c #63533B",
"N 	c #90764A",
"O 	c #B2915C",
"P 	c #B4915B",
"Q 	c #AA8B53",
"R 	c #A38750",
"S 	c #A38650",
"T 	c #9F834C",
"U 	c #A48751",
"V 	c #AB8C53",
"W 	c #65553B",
"X 	c #4B4231",
"Y 	c #41392C",
"Z 	c #3B322B",
"` 	c #2E2326",
" .	c #612734",
"..	c #912A46",
"+.	c #4F2530",
"@.	c #A14031",
"#.	c #BE4739",
"$.	c #A14A5C",
"%.	c #A54957",
"&.	c #C14736",
"*.	c #B24848",
"=.	c #6C3D45",
"-.	c #362A29",
";.	c #41362D",
">.	c #95794F",
",.	c #AD8D56",
"'.	c #A68851",
").	c #AE8E57",
"!.	c #B18E59",
"~.	c #9A7A45",
"{.	c #B1905A",
"].	c #A2864F",
"^.	c #A28550",
"/.	c #957B4C",
"(.	c #473D2E",
"_.	c #4A242E",
":.	c #79293D",
"<.	c #943A31",
"[.	c #BC3C43",
"}.	c #5C2831",
"|.	c #B44532",
"1.	c #DD624F",
"2.	c #F2D5CE",
"3.	c #EEC5BC",
"4.	c #DB533D",
"5.	c #E5978B",
"6.	c #988F8B",
"7.	c #752B39",
"8.	c #4E262D",
"9.	c #3E372B",
"0.	c #9F824F",
"a.	c #AD8E55",
"b.	c #AC8C55",
"c.	c #987743",
"d.	c #9F824D",
"e.	c #A2854E",
"f.	c #B08E59",
"g.	c #AE8C58",
"h.	c #A98952",
"i.	c #9D824C",
"j.	c #9D814C",
"k.	c #997E4B",
"l.	c #715F3D",
"m.	c #45272D",
"n.	c #9A3241",
"o.	c #C6443E",
"p.	c #D1483B",
"q.	c #6F322B",
"r.	c #D85E49",
"s.	c #D0BDB4",
"t.	c #D0AFA5",
"u.	c #DA523C",
"v.	c #D4887B",
"w.	c #827F7A",
"x.	c #9B3D31",
"y.	c #632F29",
"z.	c #302D26",
"A.	c #8F7646",
"B.	c #A68750",
"C.	c #A78851",
"D.	c #A88952",
"E.	c #A0834D",
"F.	c #9A7E49",
"G.	c #917240",
"H.	c #8C6E40",
"I.	c #9B7A46",
"J.	c #9D7B47",
"K.	c #917143",
"L.	c #977744",
"M.	c #8D6F40",
"N.	c #8B6D3F",
"O.	c #80663C",
"P.	c #312C26",
"Q.	c #322327",
"R.	c #73273D",
"S.	c #AB304A",
"T.	c #CA443E",
"U.	c #863434",
"V.	c #903A31",
"W.	c #993D30",
"X.	c #3A2C2A",
"Y.	c #4E2F2B",
"Z.	c #A23F31",
"`.	c #78372E",
" +	c #41262D",
".+	c #A93F35",
"++	c #653129",
"@+	c #463B2A",
"#+	c #725A35",
"$+	c #796036",
"%+	c #866A3C",
"&+	c #775F35",
"*+	c #765C34",
"=+	c #B2905B",
"-+	c #BA965E",
";+	c #B29059",
">+	c #886F48",
",+	c #725E3F",
"'+	c #2C2925",
")+	c #3B2329",
"!+	c #802742",
"~+	c #993240",
"{+	c #973D2F",
"]+	c #A73A3D",
"^+	c #53282C",
"/+	c #512431",
"(+	c #342328",
"_+	c #502431",
":+	c #3B232A",
"<+	c #4A242F",
"[+	c #7E3036",
"}+	c #9F3B37",
"|+	c #4D2F28",
"1+	c #9B7E50",
"2+	c #AF8D59",
"3+	c #A98953",
"4+	c #A68751",
"5+	c #9D804C",
"6+	c #9F824C",
"7+	c #A68752",
"8+	c #B99660",
"9+	c #B08F57",
"0+	c #856E46",
"a+	c #7E6745",
"b+	c #6C5A3E",
"c+	c #272524",
"d+	c #3D232B",
"e+	c #47242E",
"f+	c #232222",
"g+	c #67342D",
"h+	c #958580",
"i+	c #6F4B52",
"j+	c #918583",
"k+	c #715056",
"l+	c #8D7E7D",
"m+	c #7D6668",
"n+	c #8E716A",
"o+	c #927E77",
"p+	c #53514E",
"q+	c #68573B",
"r+	c #AD8C59",
"s+	c #B2915B",
"t+	c #9E824F",
"u+	c #6A593B",
"v+	c #242323",
"w+	c #222222",
"x+	c #252525",
"y+	c #666461",
"z+	c #4E4D4B",
"A+	c #C0BBB4",
"B+	c #484846",
"C+	c #63615E",
"D+	c #908D87",
"E+	c #9B9790",
"F+	c #605E5B",
"G+	c #454340",
"H+	c #7C6645",
"I+	c #AA8B55",
"J+	c #A78952",
"K+	c #AF8E56",
"L+	c #B4925B",
"M+	c #92774E",
"N+	c #292724",
"O+	c #272624",
"P+	c #2B2A2A",
"Q+	c #575653",
"R+	c #272727",
"S+	c #454442",
"T+	c #494745",
"U+	c #252423",
"V+	c #7A6545",
"W+	c #AF8E5B",
"X+	c #B4915C",
"Y+	c #AD8D54",
"Z+	c #A48850",
"`+	c #B18F58",
" @	c #8F754A",
".@	c #564A34",
"+@	c #68573A",
"@@	c #2C2A25",
"#@	c #282624",
"$@	c #262423",
"%@	c #887146",
"&@	c #A68952",
"*@	c #A3864F",
"=@	c #5C4F35",
"-@	c #705E3C",
";@	c #715E3D",
">@	c #534732",
",@	c #312D27",
"'@	c #302C27",
")@	c #8D7449",
"!@	c #B2905A",
"~@	c #B08F5A",
"{@	c #A3854F",
"]@	c #9A7F4A",
"^@	c #9A7F4B",
"/@	c #9B804B",
"(@	c #9F834D",
"_@	c #A58751",
":@	c #907648",
"<@	c #6A593A",
"[@	c #6F5E3B",
"}@	c #615235",
"|@	c #352F27",
"1@	c #675739",
"2@	c #695739",
"3@	c #8F7548",
"4@	c #AA8A52",
"5@	c #A98A52",
"6@	c #A1834D",
"7@	c #A0834C",
"8@	c #A58650",
"9@	c #7A6038",
"0@	c #796037",
"a@	c #7A6037",
"b@	c #7B6238",
"c@	c #876A3D",
"d@	c #7E6439",
"e@	c #896C3E",
"f@	c #8A6D3F",
"g@	c #8D6F41",
"h@	c #8F7142",
"i@	c #82673D",
"j@	c #635033",
"k@	c #5D4B30",
"l@	c #82673C",
"m@	c #51432E",
"n@	c #282623",
"o@	c #2A2824",
"p@	c #54462F",
"q@	c #625032",
"r@	c #645132",
"s@	c #886B3E",
"t@	c #8B6E40",
"u@	c #8E7041",
"v@	c #987845",
"w@	c #8F7141",
"x@	c #9A7946",
"y@	c #997946",
"z@	c #8B6E3F",
"A@	c #7B6237",
"B@	c #775E35",
"C@	c #B6935B",
"D@	c #B7935C",
"E@	c #B7945C",
"F@	c #B18F5B",
"G@	c #B18F5A",
"H@	c #B08D59",
"I@	c #9A7E4E",
"J@	c #826B44",
"K@	c #75613F",
"L@	c #836B46",
"M@	c #B8945D",
"N@	c #373129",
"O@	c #7A6544",
"P@	c #B5925A",
"Q@	c #967A4E",
"R@	c #A78855",
"S@	c #B28F5A",
"T@	c #B7945B",
"U@	c #BA965C",
"V@	c #B9955D",
"W@	c #A78852",
"X@	c #B19158",
"Y@	c #B39258",
"Z@	c #A28454",
"`@	c #8F754D",
" #	c #846C48",
".#	c #B4925D",
"+#	c #796441",
"@#	c #3A342B",
"##	c #836B47",
"$#	c #997E4E",
"%#	c #967B4D",
"&#	c #645439",
"*#	c #B18F59",
"=#	c #A0844D",
"-#	c #715F3C",
";#	c #937645",
">#	c #A2844E",
",#	c #866F45",
"'#	c #615238",
")#	c #766240",
"!#	c #7B6641",
"~#	c #7E6843",
"{#	c #65543B",
"]#	c #2F2C27",
"^#	c #353029",
"/#	c #67553B",
"(#	c #4E4232",
"_#	c #7B6545",
":#	c #8E754A",
"<#	c #A4864F",
"[#	c #987844",
"}#	c #AE8D59",
"|#	c #4D4230",
"1#	c #4E4330",
"2#	c #69583C",
"3#	c #836D45",
"4#	c #373229",
"5#	c #3D362B",
"6#	c #3F382B",
"7#	c #332E27",
"8#	c #41392E",
"9#	c #3A342A",
"0#	c #856E45",
"a#	c #8A7247",
"b#	c #3C362A",
"c#	c #2A2825",
"d#	c #3B352A",
"e#	c #232323",
"f#	c #323131",
"g#	c #242424",
"h#	c #2E2E2D",
"i#	c #433B2D",
"j#	c #8C7447",
"k#	c #9C814D",
"l#	c #AA8A58",
"m#	c #9E8150",
"n#	c #91774D",
"o#	c #302C26",
"p#	c #3A3938",
"q#	c #393837",
"r#	c #AEAAA4",
"s#	c #424240",
"t#	c #3C3B3A",
"u#	c #2F2E2E",
"v#	c #383736",
"w#	c #96938E",
"x#	c #797772",
"y#	c #3C3B39",
"z#	c #3D382F",
"A#	c #4E4431",
"B#	c #B5935C",
"C#	c #9E824D",
"D#	c #9E824C",
"E#	c #69583B",
"F#	c #40382B",
"G#	c #7A6642",
"H#	c #2E2B26",
"I#	c #2D2326",
"J#	c #342428",
"K#	c #968E8A",
"L#	c #705D59",
"M#	c #B0A7A0",
"N#	c #6E5955",
"O#	c #9E958E",
"P#	c #786661",
"Q#	c #928882",
"R#	c #9D918B",
"S#	c #807573",
"T#	c #99928E",
"U#	c #4D4C49",
"V#	c #483F2D",
"W#	c #937948",
"X#	c #9E814C",
"Y#	c #9C7F4B",
"Z#	c #937441",
"`#	c #7D6338",
" $	c #876A3C",
".$	c #8D6E3F",
"+$	c #917243",
"@$	c #54452F",
"#$	c #2D2925",
"$$	c #2B2325",
"%$	c #5F2931",
"&$	c #883139",
"*$	c #8B323A",
"=$	c #7F393A",
"-$	c #B04636",
";$	c #833F35",
">$	c #B24736",
",$	c #864035",
"'$	c #AC4536",
")$	c #964235",
"!$	c #9C4335",
"~$	c #8F363F",
"{$	c #6C313C",
"]$	c #352C29",
"^$	c #775F39",
"/$	c #7B6137",
"($	c #84693C",
"_$	c #7B6138",
":$	c #785F36",
"<$	c #B49259",
"[$	c #A88851",
"}$	c #69573C",
"|$	c #832744",
"1$	c #833039",
"2$	c #C34140",
"3$	c #CF483B",
"4$	c #D74D37",
"5$	c #D94D37",
"6$	c #D74D36",
"7$	c #D94E37",
"8$	c #D84D37",
"9$	c #D74C38",
"0$	c #B83C40",
"a$	c #51322F",
"b$	c #9F8052",
"c$	c #AA8A54",
"d$	c #B6935A",
"e$	c #B6935C",
"f$	c #AC8C54",
"g$	c #A68757",
"h$	c #402F2C",
"i$	c #792740",
"j$	c #9F294E",
"k$	c #AC3149",
"l$	c #CD463D",
"m$	c #DA4E37",
"n$	c #D84D38",
"o$	c #C8433F",
"p$	c #D74C39",
"q$	c #D34C37",
"r$	c #57312A",
"s$	c #796442",
"t$	c #B3915C",
"u$	c #836B48",
"v$	c #715D40",
"w$	c #65543A",
"x$	c #392829",
"y$	c #7A2740",
"z$	c #9F294F",
"A$	c #AC324A",
"B$	c #BB3A44",
"C$	c #BB3A45",
"D$	c #B93946",
"E$	c #A72E4C",
"F$	c #B73846",
"G$	c #C23F42",
"H$	c #D94D38",
"I$	c #CC463E",
"J$	c #CE473D",
"K$	c #532C27",
"L$	c #3E362B",
"M$	c #B3925B",
"N$	c #8B7348",
"O$	c #3D362A",
"P$	c #45232D",
"Q$	c #9A294D",
"R$	c #A0294F",
"S$	c #9E294E",
"T$	c #9D294E",
"U$	c #A22C4B",
"V$	c #B23646",
"W$	c #AA314A",
"X$	c #AD324A",
"Y$	c #AD3645",
"Z$	c #4F2F2D",
"`$	c #816B46",
" %	c #9D7D48",
".%	c #A3854E",
"+%	c #A58850",
"@%	c #866F46",
"#%	c #3E2F2B",
"$%	c #7A2741",
"%%	c #98294C",
"&%	c #782940",
"*%	c #502B31",
"=%	c #502B32",
"-%	c #502A31",
";%	c #4F2930",
">%	c #4F2A31",
",%	c #702A3D",
"'%	c #652939",
")%	c #7C6441",
"!%	c #A18450",
"~%	c #B3925C",
"{%	c #A88857",
"]%	c #4B3F32",
"^%	c #493130",
"/%	c #4B3131",
"(%	c #4A3030",
"_%	c #6B543B",
":%	c #987C4D",
"<%	c #997D4F",
"[%	c #8C7346",
"}%	c #8E7547",
"|%	c #8F7748",
"1%	c #785F41",
"2%	c #732C3E",
"3%	c #99294C",
"4%	c #512932",
"5%	c #947A4B",
"6%	c #B08F59",
"7%	c #A28650",
"8%	c #A58651",
"9%	c #A48550",
"0%	c #9D814B",
"a%	c #9C814B",
"b%	c #9C804C",
"c%	c #9D814D",
"d%	c #997C4C",
"e%	c #987B4C",
"f%	c #977B4B",
"g%	c #977C49",
"h%	c #A88951",
"i%	c #A1834E",
"j%	c #645038",
"k%	c #792640",
"l%	c #512831",
"m%	c #887044",
"n%	c #A2844F",
"o%	c #A38550",
"p%	c #705932",
"q%	c #735B33",
"r%	c #806439",
"s%	c #82663A",
"t%	c #7F6439",
"u%	c #7E6338",
"v%	c #735A33",
"w%	c #81653A",
"x%	c #85683B",
"y%	c #947341",
"z%	c #886A3C",
"A%	c #947442",
"B%	c #967542",
"C%	c #967543",
"D%	c #84673B",
"E%	c #5F4C30",
"F%	c #73333B",
"G%	c #553330",
"H%	c #705934",
"I%	c #715932",
"J%	c #6E5831",
"K%	c #6F5831",
"  . + @ # $ % & .         * = & & - - & .         . ; . > , ' ) ",
"@ % , ! % ~ ~ , { ] ^ / ( ~ _ % : < [ , } | 1 2 3 , % # 4 # 5 6 ",
"# # 1 7 { # 8 7 9 0 a b c d e f g h i i j k l m n o n p q r s t ",
"^ ^ u v w x d y z A B C D E F G H I J K L M N O # P x Q q R S T ",
"U R v Q V c W X Y Z `  ...+.@.#.$.%.&.*.=.-.;.>.,.'.v '.).n !.~.",
"{.s r w q ].^./.(._.:.<.[.}.|.1.2.3.4.5.6.7.8.9.0.a.^ 5 # n b.c.",
"d.e.f.g.h.i.j.k.l.m.n.o.p.q.|.r.s.t.u.v.w.x.y.z.A.B.C.D.h.E.F.G.",
"H.I.J.K.L.M.N.O.P.Q.R.S.T.U.V.W.X.Y.Z.`. +.+++@+#+$+$+$+%+%+&+*+",
"=+-+-+f.B.;+>+,+'+)+!+~+{+]+^+/+(+_+:+<+[+}+|+1+2+3+4+5+6+C.d.7+",
"~ % 8+~ 9+/ 0+a+b+c+d+e+f+g+h+i+j+k+l+m+n+o+p+q+r+{ 5 s s s+n ~ ",
"| 9+# ~ # # 8 7 t+u+v+w+w+x+y+z+A+B+C+D+E+F+G+H+I+J+v ].].w 8 ~ ",
"n J+r ^ ^ K+L+} } M+N+O+w+w+w+P+Q+R+w+S+T+U+V+W+X+{.s V Y+x { ~ ",
"n l Z+R v v p `+#  @.@+@@@#@w+w+w+w+w+w+w+$@%@a.&@v v w u a.^ ^ ",
"R *@Q u {.s+,.5 n %@=@-@;@>@w+w+w+w+w+w+,@'@)@/ !@,.{.~@v *@q q ",
"{@]@^@/@(@_@6+E.h.:@<@;@[@}@N+w+w+w+'+|@1@2@3@4@5@6 d.6@7@B.8@8@",
"9@0@a@b@c@d@e@f@g@h@i@j@k@l@m@n@w+o@p@q@r@s@t@t@u@v@w@x@y@z@A@B@",
"2+L+C@D@E@F@C@G@H@I@J@K@L@M@G@e N@O@!@P@P@Q@R@S@T@U@V@-+P H@W@]@",
"X@X@Y@~ _ n 9+r K+Z@`@H+ #% .#+#@###8 $#%#&#N X@( @ ~ } 7 / *#=#",
"# ~ # `+J+^.-#;#>#,#'#)#!#~#{#]#w+^#/#(#_#{#:## # { x '.<#v <#[#",
"7 n ~ # [ }#|#1#2#3#4#5#6#7#w+w+w+w+w+w+8#9#0#{.7 r v Q ^ 5 G@x@",
"v '.r 9+# 7 a#b#c#d#f+w+w+w+e#f#g#w+w+w+h#P+i#j#k#].].'./ $ n 6 ",
"{.l v '.n l#m#n#o#w+w+w+w+p#q#r#s#t#u#v#w#x#y#z#A#^.u {.B## s+6 ",
"C#D#<#C.h.E#F#G#H#w+I#Q.J#K#L#M#N#O#P#Q#R#S#T#U#V#W#j.X#4+4+Y#Z#",
"t@e@`# $.$+$@$#$$$d+%$&$*$=$-$;$>$,$'$)$!$~${$]$^$/$($_$b@b@a@:$",
"V@<$4+(@[$S@2+}$m.|$1$2$3$4$5$6$7$4$7$8$8$9$0$a$b$D.c$2+P@d$C@e$",
"n J+'.f$J+8 % g$h$i$j$k$l$m$n$o$p$m$m$m$m$m$q$r$s$b.# # ( @ % % ",
"p x { # t$u$v$w$x$y$z$A$B$C$D$E$F$G$H$I$C$J$q$K$L$l#/ r ^ M$# 8 ",
"n # # 7 ] N$O$f+P$Q$R$S$T$T$T$T$T$U$V$W$R$X$Y$Z$`$d e. %.%J+7 | ",
"x x r +%q S @%#%$%%%Q$&%*%=%-%;%>%>%>%,%T$S$'%)%!%q ].5@f${.~%n ",
"*@*@*@Q u G@{%]%^%/%(%_%9 :%<%[%}%}%|%1%2%3%4%5%6%u Q *@*@7%v v ",
"8%9%0%a%0%b%c%d%e%e%f%g%h%E.6+I.[$4@h%i%j%k%l%m%b%^@^@^@n%/@o%8%",
"p%q%r%s%t%q%u%q%p%v%w%x%y%z%A%B%c.C% $D%E%F%G%H%I%J%J%K%p%K%p%p%"};
