/* XPM */
static char * enemy7_xpm[] = {
"32 32 627 2",
"  	c #BF9B60",
". 	c #C09C61",
"+ 	c #BE9A60",
"@ 	c #B39259",
"# 	c #B6935D",
"$ 	c #B29159",
"% 	c #B8955F",
"& 	c #BF9B62",
"* 	c #BF9B61",
"= 	c #BA9660",
"- 	c #B99660",
"; 	c #B9965F",
"> 	c #C09C62",
", 	c #BF9A60",
"' 	c #B8955E",
") 	c #AE8D56",
"! 	c #997945",
"~ 	c #B7945E",
"{ 	c #AF8E56",
"] 	c #AF8F56",
"^ 	c #AF9056",
"/ 	c #B29158",
"( 	c #B19057",
"_ 	c #B09057",
": 	c #B09056",
"< 	c #B39158",
"[ 	c #B19058",
"} 	c #B3915B",
"| 	c #A1844E",
"1 	c #AF8F57",
"2 	c #B5925C",
"3 	c #A68751",
"4 	c #9E7E48",
"5 	c #A2854E",
"6 	c #A58850",
"7 	c #B08F57",
"8 	c #B4925C",
"9 	c #A78952",
"0 	c #A68851",
"a 	c #AC8D54",
"b 	c #A78A53",
"c 	c #A68852",
"d 	c #A3874F",
"e 	c #AD8D55",
"f 	c #AC8D55",
"g 	c #A1854E",
"h 	c #AE8E55",
"i 	c #A48750",
"j 	c #A58851",
"k 	c #AE8E56",
"l 	c #B4915B",
"m 	c #AE8D55",
"n 	c #9B804E",
"o 	c #A58752",
"p 	c #B2915B",
"q 	c #B3925B",
"r 	c #AE8F56",
"s 	c #AA8B53",
"t 	c #A3864F",
"u 	c #A38750",
"v 	c #A38650",
"w 	c #9F834C",
"x 	c #A58751",
"y 	c #AB8C53",
"z 	c #B4925B",
"A 	c #9A7F4D",
"B 	c #9F824E",
"C 	c #5A4D35",
"D 	c #806B42",
"E 	c #967C4C",
"F 	c #A78854",
"G 	c #A48650",
"H 	c #AE8E57",
"I 	c #B18E59",
"J 	c #9A7A45",
"K 	c #B1905A",
"L 	c #A2874F",
"M 	c #907848",
"N 	c #4F4531",
"O 	c #7D6942",
"P 	c #574B34",
"Q 	c #846D45",
"R 	c #A08253",
"S 	c #A68756",
"T 	c #63533B",
"U 	c #887049",
"V 	c #AD8E55",
"W 	c #AC8B55",
"X 	c #987743",
"Y 	c #9F824D",
"Z 	c #B08E59",
"` 	c #AE8D58",
" .	c #A98952",
"..	c #9D814C",
"+.	c #9E824C",
"@.	c #A1844D",
"#.	c #A88951",
"$.	c #A78851",
"%.	c #A3844F",
"&.	c #584B33",
"*.	c #272623",
"=.	c #675739",
"-.	c #49402F",
";.	c #6A593A",
">.	c #544832",
",.	c #6C5A3B",
"'.	c #4D4230",
").	c #77633E",
"!.	c #A4864F",
"~.	c #9E814B",
"{.	c #A58750",
"].	c #A88952",
"^.	c #A0834D",
"/.	c #9A7E49",
"(.	c #917240",
"_.	c #8C6E40",
":.	c #9B7A46",
"<.	c #9C7B47",
"[.	c #917143",
"}.	c #977744",
"|.	c #8D6F40",
"1.	c #8B6D3F",
"2.	c #896D40",
"3.	c #937443",
"4.	c #8F7141",
"5.	c #7C6238",
"6.	c #433929",
"7.	c #452925",
"8.	c #552E28",
"9.	c #49272B",
"0.	c #45272D",
"a.	c #4F2B29",
"b.	c #562E28",
"c.	c #4A292B",
"d.	c #5B4531",
"e.	c #7F643B",
"f.	c #7D6339",
"g.	c #785F37",
"h.	c #796036",
"i.	c #866A3C",
"j.	c #775F35",
"k.	c #765D34",
"l.	c #B2905B",
"m.	c #BA965E",
"n.	c #B5925A",
"o.	c #B8955C",
"p.	c #5F5038",
"q.	c #816A45",
"r.	c #AF8E58",
"s.	c #B7945B",
"t.	c #B29059",
"u.	c #5C4C36",
"v.	c #A03F30",
"w.	c #CF4C37",
"x.	c #B95861",
"y.	c #AE6073",
"z.	c #C5514D",
"A.	c #CF4B37",
"B.	c #B9575E",
"C.	c #613C44",
"D.	c #8B724A",
"E.	c #B4925A",
"F.	c #AF8D59",
"G.	c #A98953",
"H.	c #9D814B",
"I.	c #9F824C",
"J.	c #B6935E",
"K.	c #9D8150",
"L.	c #AA8B54",
"M.	c #B4915C",
"N.	c #69573D",
"O.	c #36322A",
"P.	c #7D6843",
"Q.	c #A98A54",
"R.	c #A74131",
"S.	c #DB513B",
"T.	c #EEBDB2",
"U.	c #F7E9E1",
"V.	c #E48B7C",
"W.	c #DB503A",
"X.	c #EBB7AC",
"Y.	c #7F7976",
"Z.	c #856E46",
"`.	c #A28552",
" +	c #AC8C59",
".+	c #B3915C",
"++	c #5C4D38",
"@+	c #816B46",
"#+	c #A98A55",
"$+	c #8D7548",
"%+	c #443C2E",
"&+	c #2D2A26",
"*+	c #796541",
"=+	c #8C7447",
"-+	c #4C412F",
";+	c #F2C6B9",
">+	c #FDF5EB",
",+	c #E6907F",
"'+	c #EFBFB3",
")+	c #827F7A",
"!+	c #846D46",
"~+	c #67563C",
"{+	c #746140",
"]+	c #9D824E",
"^+	c #A2864F",
"/+	c #514532",
"(+	c #2F2C26",
"_+	c #816A46",
":+	c #9A7D51",
"<+	c #534634",
"[+	c #252523",
"}+	c #222222",
"|+	c #2B2825",
"1+	c #2E2B26",
"2+	c #2A2624",
"3+	c #817F7A",
"4+	c #746042",
"5+	c #574936",
"6+	c #856E48",
"7+	c #AD8D54",
"8+	c #AB8C54",
"9+	c #A48850",
"0+	c #A0844E",
"a+	c #5E5036",
"b+	c #2B2925",
"c+	c #2A2925",
"d+	c #2E2C27",
"e+	c #262524",
"f+	c #372329",
"g+	c #3F232B",
"h+	c #2C2225",
"i+	c #362328",
"j+	c #2F2325",
"k+	c #817E7A",
"l+	c #3A282B",
"m+	c #42272C",
"n+	c #2D2326",
"o+	c #6B5A3B",
"p+	c #9B814D",
"q+	c #A78856",
"r+	c #62533A",
"s+	c #2C2925",
"t+	c #362329",
"u+	c #2E2326",
"v+	c #822C3D",
"w+	c #A13047",
"x+	c #6B2D32",
"y+	c #7E2940",
"z+	c #4F2530",
"A+	c #DA503A",
"B+	c #D9ACA1",
"C+	c #DAD2CA",
"D+	c #D98172",
"E+	c #DA5039",
"F+	c #D7A79C",
"G+	c #716E6B",
"H+	c #7B2B3B",
"I+	c #A23047",
"J+	c #672836",
"K+	c #342928",
"L+	c #766242",
"M+	c #A68856",
"N+	c #A3854F",
"O+	c #9A7F4A",
"P+	c #9A804B",
"Q+	c #9B804B",
"R+	c #9B7F4D",
"S+	c #4B402F",
"T+	c #76273F",
"U+	c #662B32",
"V+	c #B04234",
"W+	c #D64B39",
"X+	c #CF4A37",
"Y+	c #B33943",
"Z+	c #662835",
"`+	c #963C31",
" @	c #BA4634",
".@	c #6A3C35",
"+@	c #3A3836",
"@@	c #954135",
"#@	c #BB4634",
"$@	c #6D3C35",
"%@	c #3C2A2E",
"&@	c #A53E35",
"*@	c #D54B39",
"=@	c #B53A42",
"-@	c #5A2731",
";@	c #2A2824",
">@	c #7A6540",
",@	c #A0834C",
"'@	c #A68750",
")@	c #A58650",
"!@	c #7A6038",
"~@	c #796037",
"{@	c #7B6138",
"]@	c #796039",
"^@	c #6C5634",
"/@	c #3F3529",
"(@	c #73273C",
"_@	c #B33C3E",
":@	c #CC463C",
"<@	c #D0483C",
"[@	c #D74C39",
"}@	c #B13842",
"|@	c #682A35",
"1@	c #4A272C",
"2@	c #41252B",
"3@	c #3E232B",
"4@	c #45262C",
"5@	c #43252C",
"6@	c #832C3D",
"7@	c #C6433E",
"8@	c #DA4E37",
"9@	c #D64C38",
"0@	c #72332C",
"a@	c #735C3A",
"b@	c #997946",
"c@	c #8B6E3F",
"d@	c #7B6237",
"e@	c #B5935B",
"f@	c #B3915A",
"g@	c #6C5A3E",
"h@	c #353029",
"i@	c #272523",
"j@	c #3F232C",
"k@	c #8B2A44",
"l@	c #AC314A",
"m@	c #B03348",
"n@	c #CD463D",
"o@	c #B23942",
"p@	c #A22F47",
"q@	c #A23046",
"r@	c #C4423E",
"s@	c #D84D38",
"t@	c #D94E37",
"u@	c #75342B",
"v@	c #39332A",
"w@	c #90764D",
"x@	c #B08D59",
"y@	c #A78852",
"z@	c #B19158",
"A@	c #B39258",
"B@	c #AA8A58",
"C@	c #605139",
"D@	c #2D2826",
"E@	c #6A263B",
"F@	c #97294B",
"G@	c #B13C3D",
"H@	c #BA4336",
"I@	c #C74936",
"J@	c #D04B37",
"K@	c #C44737",
"L@	c #CB4839",
"M@	c #C24637",
"N@	c #C34637",
"O@	c #CB4838",
"P@	c #CE4A37",
"Q@	c #C84935",
"R@	c #BF4634",
"S@	c #BE4634",
"T@	c #673129",
"U@	c #7F6846",
"V@	c #B18F5B",
"W@	c #B08F59",
"X@	c #A0844D",
"Y@	c #B18F58",
"Z@	c #A68952",
"`@	c #594C34",
" #	c #342828",
".#	c #71263D",
"+#	c #52272F",
"@#	c #3B2725",
"##	c #953D2F",
"$#	c #69322A",
"%#	c #963D30",
"&#	c #7D4D45",
"*#	c #9D493D",
"=#	c #7E4D46",
"-#	c #9D493C",
";#	c #7F4D45",
">#	c #9C493D",
",#	c #804D45",
"'#	c #9B493D",
")#	c #814D44",
"!#	c #443734",
"~#	c #372624",
"{#	c #3B3229",
"]#	c #866F46",
"^#	c #987844",
"/#	c #A38555",
"(#	c #9B7F4E",
"_#	c #5D4F36",
":#	c #44372E",
"<#	c #2E2826",
"[#	c #312524",
"}#	c #292423",
"|#	c #9B948E",
"1#	c #6E6561",
"2#	c #B2ABA4",
"3#	c #7D7570",
"4#	c #99938C",
"5#	c #716763",
"6#	c #AFA9A3",
"7#	c #817974",
"8#	c #97918B",
"9#	c #6A6865",
"0#	c #353028",
"a#	c #7E6943",
"b#	c #9F844E",
"c#	c #B18F5A",
"d#	c #9A7946",
"e#	c #B2905C",
"f#	c #5D4F38",
"g#	c #786540",
"h#	c #887146",
"i#	c #8F7748",
"j#	c #4B4230",
"k#	c #343332",
"l#	c #2E2D2C",
"m#	c #A5A19A",
"n#	c #6F6C69",
"o#	c #333331",
"p#	c #2D2D2C",
"q#	c #A29F99",
"r#	c #73706D",
"s#	c #333231",
"t#	c #2C2C2B",
"u#	c #72603D",
"v#	c #9E844D",
"w#	c #B08F5A",
"x#	c #332F28",
"y#	c #363129",
"z#	c #7A6641",
"A#	c #232323",
"B#	c #41403E",
"C#	c #3F3E3D",
"D#	c #2B2B2A",
"E#	c #454442",
"F#	c #232322",
"G#	c #72603E",
"H#	c #A48751",
"I#	c #AC8C54",
"J#	c #B5935C",
"K#	c #9E824D",
"L#	c #9E814E",
"M#	c #8D7348",
"N#	c #423A2C",
"O#	c #2D2A25",
"P#	c #262523",
"Q#	c #403F3E",
"R#	c #343333",
"S#	c #AEAAA3",
"T#	c #73716D",
"U#	c #3F3F3D",
"V#	c #323131",
"W#	c #ABA7A1",
"X#	c #797772",
"Y#	c #3B3834",
"Z#	c #6F5D3B",
"`#	c #977D49",
" $	c #9E814C",
".$	c #9C7F4B",
"+$	c #937441",
"@$	c #896C3E",
"#$	c #7D6338",
"$$	c #84683C",
"%$	c #564730",
"&$	c #322327",
"*$	c #2A2224",
"=$	c #36272B",
"-$	c #9D9590",
";$	c #746661",
">$	c #ADA59E",
",$	c #7E706B",
"'$	c #9D948E",
")$	c #766863",
"!$	c #9C938D",
"~$	c #786A65",
"{$	c #ABA29B",
"]$	c #7D7371",
"^$	c #98918C",
"/$	c #6C6A66",
"($	c #292724",
"_$	c #675333",
":$	c #7B6238",
"<$	c #7A6037",
"[$	c #785F36",
"}$	c #B9955D",
"|$	c #9D804E",
"1$	c #5D4E38",
"2$	c #312327",
"3$	c #292224",
"4$	c #3E2726",
"5$	c #822D3C",
"6$	c #642B31",
"7$	c #822D3D",
"8$	c #703C41",
"9$	c #A54639",
"0$	c #81453C",
"a$	c #A44638",
"b$	c #82443C",
"c$	c #A34639",
"d$	c #83443C",
"e$	c #A24639",
"f$	c #843543",
"g$	c #6C3842",
"h$	c #402E32",
"i$	c #2B2325",
"j$	c #7F6843",
"k$	c #B6935B",
"l$	c #B6935C",
"m$	c #A38553",
"n$	c #524434",
"o$	c #74263E",
"p$	c #582533",
"q$	c #9C3B35",
"r$	c #C8453D",
"s$	c #C4443B",
"t$	c #CE483A",
"u$	c #CD4A37",
"v$	c #D44C37",
"w$	c #CF4B36",
"x$	c #CF4A39",
"y$	c #9C2E46",
"z$	c #582731",
"A$	c #866D48",
"B$	c #574836",
"C$	c #922849",
"D$	c #A12C4C",
"E$	c #A62D4D",
"F$	c #AC3149",
"G$	c #CD453D",
"H$	c #D54B3A",
"I$	c #D34A3A",
"J$	c #806A44",
"K$	c #AF8E57",
"L$	c #A38552",
"M$	c #9B7F4F",
"N$	c #4D4130",
"O$	c #3D232B",
"P$	c #872745",
"Q$	c #A0294F",
"R$	c #A12A4F",
"S$	c #BF3D43",
"T$	c #D1483C",
"U$	c #D2493B",
"V$	c #D1493B",
"W$	c #B53746",
"X$	c #C44040",
"Y$	c #D3493B",
"Z$	c #D74C38",
"`$	c #75352B",
" %	c #9D7D48",
".%	c #A3854E",
"+%	c #A2854F",
"@%	c #615236",
"#%	c #383329",
"$%	c #2A2625",
"%%	c #6B263B",
"&%	c #97284B",
"*%	c #A42C4D",
"=%	c #A62E4C",
"-%	c #A22A4E",
";%	c #A72E4C",
">%	c #C44041",
",%	c #D2493C",
"'%	c #B63846",
")%	c #C34042",
"!%	c #71322C",
"~%	c #6E5D3B",
"{%	c #A38550",
"]%	c #B3925C",
"^%	c #9F8350",
"/%	c #594C37",
"(%	c #782740",
"_%	c #912849",
":%	c #9B294D",
"<%	c #9A2B49",
"[%	c #992D46",
"}%	c #942A48",
"|%	c #962B47",
"1%	c #982D46",
"2%	c #5E3034",
"3%	c #41392C",
"4%	c #816C43",
"5%	c #A28650",
"6%	c #9C814B",
"7%	c #8F7647",
"8%	c #514530",
"9%	c #352F27",
"0%	c #3E2F2B",
"a%	c #42302C",
"b%	c #43302D",
"c%	c #45312D",
"d%	c #7A2A40",
"e%	c #95284B",
"f%	c #5F2E36",
"g%	c #422F2C",
"h%	c #412F2C",
"i%	c #715C3C",
"j%	c #8C7445",
"k%	c #957B48",
"l%	c #A2844E",
"m%	c #705932",
"n%	c #735B33",
"o%	c #806439",
"p%	c #82663A",
"q%	c #7F6439",
"r%	c #735A33",
"s%	c #755D35",
"t%	c #67522F",
"u%	c #65502F",
"v%	c #755C36",
"w%	c #7A5F37",
"x%	c #85683D",
"y%	c #4E392E",
"z%	c #802743",
"A%	c #9E294E",
"B%	c #5D2635",
"C%	c #624C32",
"D%	c #775E37",
"E%	c #745C35",
"F%	c #66512F",
"G%	c #725A34",
"H%	c #6A542F",
"I%	c #6E5831",
"J%	c #6F5831",
"  . + @ # $ % & .         * = & & - ; & .         . > . , ' ) ! ",
"@ % ' # % ~ ~ ' # { ] ^ / ~ ~ ; - % ~ ' # ( _ : < ' % # [ # } | ",
"# # ( 1 2 # [ 1 3 4 5 6 ] _ 7 8 ~ # ( 1 9 0 a b 8 $ 8 c d e f g ",
"h h a i j k _ 2 l m h ] 2 } j i n o h } p } [ 8 # q r s t u v w ",
"x i i s y h z ( / # # z ] e A B C D i x E F # # 1 0 G 0 H 8 I J ",
"K f e j d d f k } 8 1 j L M N O P Q R S T U 1 ] V V k } # 8 W X ",
"Y 5 Z `  .....+.@.5 #.$.%.&.*.=.-.;.>.,.'.).+.!.~.{.$.]. .^./.(.",
"_.:.<.[.}.|.1.|.2.3.4.1.5.6.7.8.9.0.a.b.c.d.e.f.g.h.h.h.i.i.j.k.",
"l.m.m.Z {.n.o.2 p.q.r.s.t.u.v.w.x.y.z.A.B.C.D.E.F.G.3 H.I.$.Y 3 ",
"~ % - J.K.L./ M.N.O.P.Q.e u.R.S.T.U.V.W.X.Y.Z.`. +2 } f f p 8 ~ ",
"_ 7 # .+++@+#+r $+%+&+*+=+-+R.S.;+>+,+W.'+)+!+~+{+]+i ^+^+j [ ~ ",
"8 9 e L./+(+_+:+<+[+}+|+1+2+R.S.;+>+,+W.'+3+4+5+|+6+a y 7+k 2 ~ ",
"8 8+9+0+a+b+c+d+e+f+g+h+i+j+R.S.;+>+,+W.'+k+l+m+n+o+p+j a V h h ",
"u t s 8+q+r+s+t+u+v+w+x+y+z+R.A+B+C+D+E+F+G+H+I+J+K+L+M+i t d d ",
"N+O+P+Q+Y R+S+T+U+V+W+X+Y+Z+`+ @.@+@@@#@$@%@&@*@=@-@;@>@,@'@)@)@",
"!@~@~@{@]@^@/@(@_@:@<@[@W+}@|@1@2@3@4@1@5@6@7@8@9@0@}+a@b@c@d@j.",
"F.z e@f@g@h@i@j@k@l@m@n@8@W+o@p@p@p@p@p@q@r@s@8@t@u@v@w@l x@y@O+",
"_ z@A@~ B@C@D@E@F@G@H@A.I@J@K@L@M@L@N@O@N@P@Q@R@S@T@U@V@] ] W@X@",
"# ~ # Y@Z@A `@ #.#+#@###$#%#&#*#=#-#;#>#,#'#)#!#~#{#]#j !.i !.^#",
"1 8 ~ # 8 /#(#_#:#<#}+[#}#K+|#1#2#3#4#5#6#7#8#9#0#a#b#s h } c#d#",
"i 0 e 7 e#f#g#h#i#j#}+}+}+}+k#l#m#n#o#p#q#r#s#t#u#v#^+j ] $ 8 | ",
"K y i 0 w#T x#y#z#j#}+}+}+}+A#B#C#D#}+}+k#E#o#F#G#H#I#K J## p | ",
"K#+.!.$.L#M#N#}+O#P#}+}+A#Q#R#S#T#U#V#U#R#W#X#C#Y#Z#`# $3 3 .$+$",
"1.@$#$$$%$0#P#}+}+}+&$*$=$-$;$>$,$'$)$!$~${$]$^$/$($_${@:$:$<$[$",
"}$E.'@w |$1$|+2$3$4$5$6$7$8$9$0$a$b$c$d$e$d$f$g$h$i$j$F.n.n.k$l$",
"8 9 0 I#9 m$n$o$p$q$r$s$t$u$v$w$v$w$v$w$v$A.x$o@y$z$A$# / @ % % ",
"c k 8 # 2 l.B$o$C$D$E$F$G$8@8@H$[@8@8@8@8@8@8@W+I$0@J$e h q # [ ",
"8 # # K$L$M$N$O$P$Q$R$S$T$U$V$W$X$Y$Z$8@H$Y$[@8@t@`$). %.%Z@1 _ ",
"k k e +%@%#%$%%%&%Q$Q$*%=%=%=%-%*%;%>%,%'%;%)%U$V$!%~%{%I#K ]%8 ",
"t t t s ^%/%($&$(%_%_%_%_%:%Q$Q$Q$Q$<%[%}%_%|%[%1%2%3%4%t 5%i i ",
")@!.6%6%6%7%8%9%0%a%b%a%c%d%:%Q$Q$e%f%b%a%g%h%g%g%i%j%k%l%Q+N+)@",
"m%n%o%p%q%r%s%t%u%t%v%w%x%y%z%Q$A%B%C%D%E%t%F%G%F%H%I%J%m%J%m%m%"};
