/* XPM */
static char * enemy3_xpm[] = {
"32 32 658 2",
"  	c #BF9B60",
". 	c #C09C61",
"+ 	c #BE9A60",
"@ 	c #B39259",
"# 	c #B6935D",
"$ 	c #B29159",
"% 	c #B8955F",
"& 	c #BF9B62",
"* 	c #BF9B61",
"= 	c #BA9660",
"- 	c #B99660",
"; 	c #B9965F",
"> 	c #C09C62",
", 	c #BF9A60",
"' 	c #B8955E",
") 	c #AE8D56",
"! 	c #997945",
"~ 	c #B7945E",
"{ 	c #AF8E56",
"] 	c #AF8F56",
"^ 	c #AF9056",
"/ 	c #B29158",
"( 	c #B19057",
"_ 	c #B09057",
": 	c #B09056",
"< 	c #B39158",
"[ 	c #B19058",
"} 	c #B3915B",
"| 	c #A1844E",
"1 	c #AF8F57",
"2 	c #B5925C",
"3 	c #A68751",
"4 	c #9E7E48",
"5 	c #A2854E",
"6 	c #A58850",
"7 	c #B08F57",
"8 	c #B4925C",
"9 	c #A78952",
"0 	c #A68851",
"a 	c #AC8D54",
"b 	c #A78A53",
"c 	c #A68852",
"d 	c #A3874F",
"e 	c #AD8D55",
"f 	c #AC8D55",
"g 	c #A1854E",
"h 	c #AE8E55",
"i 	c #A48750",
"j 	c #A58851",
"k 	c #AE8E56",
"l 	c #B4915B",
"m 	c #AE8D55",
"n 	c #A28650",
"o 	c #A38551",
"p 	c #B2915B",
"q 	c #B3925B",
"r 	c #AE8F56",
"s 	c #AA8B53",
"t 	c #A3864F",
"u 	c #A38750",
"v 	c #A38650",
"w 	c #9F834C",
"x 	c #A58751",
"y 	c #AB8C53",
"z 	c #B4925B",
"A 	c #AB8C54",
"B 	c #A0834F",
"C 	c #967C4B",
"D 	c #554933",
"E 	c #9C804C",
"F 	c #A38651",
"G 	c #9E824F",
"H 	c #B08E58",
"I 	c #A48650",
"J 	c #AE8E57",
"K 	c #B18E59",
"L 	c #9A7A45",
"M 	c #B1905A",
"N 	c #A0844E",
"O 	c #856F44",
"P 	c #514631",
"Q 	c #846E44",
"R 	c #49402F",
"S 	c #A08350",
"T 	c #A88857",
"U 	c #9B7F52",
"V 	c #5E4F39",
"W 	c #AC8C58",
"X 	c #AD8E55",
"Y 	c #AC8B55",
"Z 	c #987743",
"` 	c #9F824D",
" .	c #B08E59",
"..	c #AE8D58",
"+.	c #A98952",
"@.	c #9D814C",
"#.	c #9E824C",
"$.	c #A1844D",
"%.	c #A88951",
"&.	c #A78851",
"*.	c #937849",
"=.	c #3C352A",
"-.	c #3D362A",
";.	c #74613D",
">.	c #423A2C",
",.	c #7A663F",
"'.	c #564933",
").	c #7A6640",
"!.	c #473E2E",
"~.	c #967B49",
"{.	c #A4864F",
"].	c #9E814B",
"^.	c #A58750",
"/.	c #A88952",
"(.	c #A0834D",
"_.	c #9A7E49",
":.	c #917240",
"<.	c #8C6E40",
"[.	c #9B7A46",
"}.	c #9C7B47",
"|.	c #917143",
"1.	c #977744",
"2.	c #8D6F40",
"3.	c #8B6D3F",
"4.	c #9A7946",
"5.	c #8F7141",
"6.	c #6F5935",
"7.	c #302924",
"8.	c #432A25",
"9.	c #452D27",
"0.	c #392528",
"a.	c #3F2B2A",
"b.	c #412A26",
"c.	c #432E28",
"d.	c #44332B",
"e.	c #715A35",
"f.	c #866A3D",
"g.	c #7D6339",
"h.	c #785F37",
"i.	c #796036",
"j.	c #866A3C",
"k.	c #775F35",
"l.	c #765D34",
"m.	c #B2905B",
"n.	c #BA965E",
"o.	c #B5925A",
"p.	c #B8955C",
"q.	c #B9955D",
"r.	c #BB975E",
"s.	c #B7945B",
"t.	c #9D7F51",
"u.	c #53322A",
"v.	c #BF4734",
"w.	c #C14940",
"x.	c #A34C61",
"y.	c #A84A59",
"z.	c #C34938",
"A.	c #BC473F",
"B.	c #894050",
"C.	c #5C4A37",
"D.	c #B18F59",
"E.	c #B4925A",
"F.	c #AF8D59",
"G.	c #A98953",
"H.	c #9D814B",
"I.	c #9F824C",
"J.	c #B29157",
"K.	c #B7945D",
"L.	c #B7935E",
"M.	c #B39159",
"N.	c #977C4D",
"O.	c #58332B",
"P.	c #CF4B36",
"Q.	c #E07363",
"R.	c #F2DAD4",
"S.	c #EEC5BD",
"T.	c #DC5742",
"U.	c #DF7465",
"V.	c #C7B1AC",
"W.	c #544939",
"X.	c #AC8D56",
"Y.	c #B39258",
"Z.	c #B18F5B",
"`.	c #A08254",
" +	c #A28550",
".+	c #B3905B",
"++	c #8F7649",
"@+	c #59322A",
"#+	c #D04C36",
"$+	c #E27A69",
"%+	c #FCEEE4",
"&+	c #F5D5C9",
"*+	c #E37D6D",
"=+	c #CFC3BB",
"-+	c #544A38",
";+	c #AC8C56",
">+	c #A2864F",
",+	c #997E4D",
"'+	c #4C4231",
")+	c #987C50",
"!+	c #B3915C",
"~+	c #9D8053",
"{+	c #504533",
"]+	c #997D51",
"^+	c #5B322A",
"/+	c #D14C37",
"(+	c #E27C6B",
"_+	c #FCEFE5",
":+	c #F5D4C8",
"<+	c #DB5742",
"[+	c #E37F6E",
"}+	c #CEC2BA",
"|+	c #564B3A",
"1+	c #B08E5B",
"2+	c #AB8B59",
"3+	c #AD8D54",
"4+	c #A48850",
"5+	c #937A4A",
"6+	c #483F2F",
"7+	c #433B2D",
"8+	c #967B4E",
"9+	c #9A7D52",
"0+	c #2F2C27",
"a+	c #4A4030",
"b+	c #947A4C",
"c+	c #846D46",
"d+	c #5B312A",
"e+	c #D14C36",
"f+	c #E27D6C",
"g+	c #FCF0E6",
"h+	c #F5D3C7",
"i+	c #DB5641",
"j+	c #E38170",
"k+	c #CCC1B9",
"l+	c #564A39",
"m+	c #9F8350",
"n+	c #887048",
"o+	c #5E5037",
"p+	c #A1854F",
"q+	c #B08F5A",
"r+	c #957A4F",
"s+	c #2E2B26",
"t+	c #483E2F",
"u+	c #7E6746",
"v+	c #2A2825",
"w+	c #252423",
"x+	c #2E2A25",
"y+	c #5A2E28",
"z+	c #D24C37",
"A+	c #DA7564",
"B+	c #E1D6CD",
"C+	c #E0BDB2",
"D+	c #DA543F",
"E+	c #DD7A6A",
"F+	c #B9AFA7",
"G+	c #514737",
"H+	c #826C44",
"I+	c #383229",
"J+	c #544834",
"K+	c #A98A54",
"L+	c #A3854F",
"M+	c #9A7F4A",
"N+	c #9A804B",
"O+	c #9B804B",
"P+	c #9F834D",
"Q+	c #8E7448",
"R+	c #2C2925",
"S+	c #242323",
"T+	c #302827",
"U+	c #40242C",
"V+	c #39232A",
"W+	c #2E2423",
"X+	c #482927",
"Y+	c #602D2D",
"Z+	c #BA4634",
"`+	c #A34436",
" @	c #463F3D",
".@	c #67423C",
"+@	c #BF4836",
"@@	c #A54638",
"#@	c #443B3A",
"$@	c #39282A",
"%@	c #3C2E2A",
"&@	c #232222",
"*@	c #524632",
"=@	c #9A7F4B",
"-@	c #997E4B",
";@	c #A0834C",
">@	c #A68750",
",@	c #A58650",
"'@	c #7A6038",
")@	c #796037",
"!@	c #775F37",
"~@	c #755D38",
"{@	c #6B5634",
"]@	c #2F2726",
"^@	c #3A232A",
"/@	c #48252C",
"(@	c #9F3045",
"_@	c #923040",
":@	c #73342C",
"<@	c #BE433A",
"[@	c #8F2F40",
"}@	c #4E282D",
"|@	c #47262C",
"1@	c #3C232A",
"2@	c #3E242A",
"3@	c #4A282B",
"4@	c #46272A",
"5@	c #582632",
"6@	c #982D45",
"7@	c #7F2A3E",
"8@	c #372328",
"9@	c #4E3B2F",
"0@	c #715B38",
"a@	c #564730",
"b@	c #987845",
"c@	c #997946",
"d@	c #8B6E3F",
"e@	c #7B6237",
"f@	c #B5935B",
"g@	c #9C7F51",
"h@	c #4A4031",
"i@	c #745F41",
"j@	c #47282E",
"k@	c #832A42",
"l@	c #78342D",
"m@	c #D04A38",
"n@	c #D44B38",
"o@	c #D94D38",
"p@	c #C9443D",
"q@	c #A33046",
"r@	c #A12F46",
"s@	c #9F2F46",
"t@	c #9E2F46",
"u@	c #9D2E46",
"v@	c #AD3643",
"w@	c #D2493B",
"x@	c #C2413E",
"y@	c #9A2E46",
"z@	c #7C2E3D",
"A@	c #362E28",
"B@	c #5D4E37",
"C@	c #B8945D",
"D@	c #B08D59",
"E@	c #A78852",
"F@	c #B19158",
"G@	c #A18354",
"H@	c #4C4131",
"I@	c #292725",
"J@	c #3E232B",
"K@	c #922E41",
"L@	c #C3433D",
"M@	c #CE463C",
"N@	c #D1483B",
"O@	c #DA4E37",
"P@	c #D64B39",
"Q@	c #D54B39",
"R@	c #D54A39",
"S@	c #D54A3A",
"T@	c #D44A3A",
"U@	c #D84D38",
"V@	c #D34A3B",
"W@	c #A23E34",
"X@	c #262322",
"Y@	c #5E4F38",
"Z@	c #B08F59",
"`@	c #A0844D",
" #	c #897247",
".#	c #2C2226",
"+#	c #602536",
"@#	c #A22D4A",
"##	c #AF3349",
"$#	c #BB3A44",
"%#	c #A74031",
"&#	c #2C2825",
"*#	c #625338",
"=#	c #987844",
"-#	c #977C51",
";#	c #3D232B",
">#	c #832744",
",#	c #A23048",
"'#	c #B34236",
")#	c #BE4636",
"!#	c #CF4B37",
"~#	c #C34835",
"{#	c #D04C37",
"]#	c #C54935",
"^#	c #C74935",
"/#	c #C94935",
"(#	c #CA4A36",
"_#	c #C64935",
":#	c #973C2F",
"<#	c #544832",
"[#	c #987E4B",
"}#	c #B18F5A",
"|#	c #9E8153",
"1#	c #493F30",
"2#	c #252323",
"3#	c #45232D",
"4#	c #6D263B",
"5#	c #322424",
"6#	c #5C2E27",
"7#	c #923C2F",
"8#	c #623029",
"9#	c #9C493D",
"0#	c #7C514A",
"a#	c #9D493D",
"b#	c #7D4F48",
"c#	c #9E493C",
"d#	c #7E4D45",
"e#	c #7F4B43",
"f#	c #9E483B",
"g#	c #513F3C",
"h#	c #402825",
"i#	c #362624",
"j#	c #584C33",
"k#	c #A0854E",
"l#	c #9D814E",
"m#	c #92784F",
"n#	c #7D6746",
"o#	c #4F4431",
"p#	c #443A2E",
"q#	c #282324",
"r#	c #222222",
"s#	c #2C2423",
"t#	c #272322",
"u#	c #665E5B",
"v#	c #9A948E",
"w#	c #79716D",
"x#	c #B5AEA6",
"y#	c #6E6461",
"z#	c #99938D",
"A#	c #7D7470",
"B#	c #B0A9A2",
"C#	c #736964",
"D#	c #94928C",
"E#	c #242424",
"F#	c #2A2824",
"G#	c #665639",
"H#	c #B5935C",
"I#	c #9E824D",
"J#	c #917749",
"K#	c #493F2F",
"L#	c #463D2E",
"M#	c #7E6942",
"N#	c #6F5D3D",
"O#	c #282727",
"P#	c #3E3D3C",
"Q#	c #807E79",
"R#	c #A39F99",
"S#	c #2D2D2C",
"T#	c #333231",
"U#	c #706E6A",
"V#	c #ABA7A1",
"W#	c #464644",
"X#	c #363534",
"Y#	c #504531",
"Z#	c #917747",
"`#	c #9C814B",
" $	c #9E814C",
".$	c #9C7F4B",
"+$	c #937441",
"@$	c #896C3E",
"#$	c #7D6338",
"$$	c #705937",
"%$	c #272624",
"&$	c #262523",
"*$	c #373634",
"=$	c #4B4947",
"-$	c #74726E",
";$	c #B3B0A9",
">$	c #42413F",
",$	c #454442",
"'$	c #353433",
")$	c #474644",
"!$	c #82807B",
"~$	c #AAA7A0",
"{$	c #343332",
"]$	c #3C3C3A",
"^$	c #463C2B",
"/$	c #735C36",
"($	c #84693C",
"_$	c #765E36",
":$	c #755D36",
"<$	c #7B6238",
"[$	c #7A6037",
"}$	c #785F36",
"|$	c #9C7F4C",
"1$	c #7D6840",
"2$	c #6B593A",
"3$	c #252523",
"4$	c #2E2226",
"5$	c #47232D",
"6$	c #3B232A",
"7$	c #706161",
"8$	c #9D928D",
"9$	c #7F6D68",
"0$	c #A79D96",
"a$	c #7A6964",
"b$	c #9B918B",
"c$	c #7A6A65",
"d$	c #9B918A",
"e$	c #837670",
"f$	c #A69E99",
"g$	c #766B6A",
"h$	c #928F8A",
"i$	c #5E4F36",
"j$	c #997D4D",
"k$	c #776241",
"l$	c #715D3E",
"m$	c #B5925B",
"n$	c #B6935B",
"o$	c #B6935C",
"p$	c #8F7749",
"q$	c #2F2226",
"r$	c #4B242F",
"s$	c #56282F",
"t$	c #A73246",
"u$	c #91313D",
"v$	c #752F33",
"w$	c #8E3440",
"x$	c #883F36",
"y$	c #A94536",
"z$	c #884137",
"A$	c #A74537",
"B$	c #884238",
"C$	c #A54537",
"D$	c #884338",
"E$	c #A24639",
"F$	c #753A40",
"G$	c #813444",
"H$	c #463438",
"I$	c #392329",
"J$	c #352928",
"K$	c #39322A",
"L$	c #37322A",
"M$	c #715E3D",
"N$	c #4B4031",
"O$	c #4F2530",
"P$	c #99294C",
"Q$	c #772F35",
"R$	c #C7433E",
"S$	c #C8443E",
"T$	c #CB473C",
"U$	c #D54C38",
"V$	c #D44C36",
"W$	c #D64D37",
"X$	c #D34C36",
"Y$	c #D24C36",
"Z$	c #D54D37",
"`$	c #D44D37",
" %	c #CF4A37",
".%	c #C0403F",
"+%	c #9E2E46",
"@%	c #702938",
"#%	c #5E4F37",
"$%	c #9C804F",
"%%	c #AA8958",
"&%	c #957A4C",
"*%	c #856E46",
"=%	c #45262E",
"-%	c #882846",
";%	c #9E294E",
">%	c #9E294D",
",%	c #A22A4E",
"'%	c #A72E4B",
")%	c #BF3D43",
"!%	c #D54B3A",
"~%	c #D44B39",
"{%	c #943B31",
"]%	c #514530",
"^%	c #615035",
"/%	c #6B5A3A",
"(%	c #473F2E",
"_%	c #645538",
":%	c #332428",
"<%	c #6A263A",
"[%	c #A0294F",
"}%	c #AE3349",
"|%	c #CA443F",
"1%	c #CD453E",
"2%	c #CD463D",
"3%	c #BE3D44",
"4%	c #B43647",
"5%	c #CE463D",
"6%	c #D3493B",
"7%	c #D64B3A",
"8%	c #D0483C",
"9%	c #963D2F",
"0%	c #292824",
"a%	c #353028",
"b%	c #725F3E",
"c%	c #B3925C",
"d%	c #8A7346",
"e%	c #522431",
"f%	c #9C294D",
"g%	c #A12A4F",
"h%	c #A22B4E",
"i%	c #A32B4E",
"j%	c #A12A4E",
"k%	c #A32B4D",
"l%	c #B53746",
"m%	c #CF473C",
"n%	c #BE3C43",
"o%	c #A42C4D",
"p%	c #B73845",
"q%	c #8F3931",
"r%	c #2D2A25",
"s%	c #665739",
"t%	c #9B814C",
"u%	c #9C804B",
"v%	c #836C41",
"w%	c #41392B",
"x%	c #46242E",
"y%	c #7E2742",
"z%	c #8B2747",
"A%	c #95284B",
"B%	c #862745",
"C%	c #872745",
"D%	c #882746",
"E%	c #8A2845",
"F%	c #962B48",
"G%	c #A52C4D",
"H%	c #9C2C4A",
"I%	c #942C45",
"J%	c #672736",
"K%	c #5A4D33",
"L%	c #937A48",
"M%	c #A2844E",
"N%	c #705932",
"O%	c #735B33",
"P%	c #806439",
"Q%	c #82653A",
"R%	c #6B5633",
"S%	c #413527",
"T%	c #433627",
"U%	c #5C3232",
"V%	c #953548",
"W%	c #963549",
"X%	c #99394B",
"Y%	c #9A3B4B",
"Z%	c #7D3E3F",
"`%	c #48382A",
" &	c #4F3D2C",
".&	c #503E2C",
"+&	c #513E2C",
"@&	c #4F3D2D",
"#&	c #6A383A",
"$&	c #9B374C",
"%&	c #9B364C",
"&&	c #9A304B",
"*&	c #992F4C",
"=&	c #712A3C",
"-&	c #322325",
";&	c #2A2324",
">&	c #4A3D29",
",&	c #6F5831",
"  . + @ # $ % & .         * = & & - ; & .         . > . , ' ) ! ",
"@ % ' # % ~ ~ ' # { ] ^ / ~ ~ ; - % ~ ' # ( _ : < ' % # [ # } | ",
"# # ( 1 2 # [ 1 3 4 5 6 ] _ 7 8 ~ # ( 1 9 0 a b 8 $ 8 c d e f g ",
"h h a i j k _ 2 l m h ] 2 } j n o e h } p } [ 8 # q r s t u v w ",
"x i i s y h z ( / # # z ] A B C D E i F G H # # 1 0 I 0 J 8 K L ",
"M f e j d d f k } 8 1 j N O P Q R S T U V W 1 ] X X k } # 8 Y Z ",
"` 5  ...+.@.@.#.$.5 %.&.*.=.-.;.>.,.'.).!.~.#.{.].^.&./.+.(._.:.",
"<.[.}.|.1.2.3.2.4.[.5.3.6.7.8.9.0.a.b.c.d.e.f.g.h.i.i.i.j.j.k.l.",
"m.n.n. .^.o.p.q.r.r.p.s.t.u.v.w.x.y.z.A.B.C.D.E.F.G.3 H.I.&.` 3 ",
"~ % - ~ 7 J./ K.L.# M.( N.O.P.Q.R.S.T.U.V.W.X.Y.# 2 } f f p 8 ~ ",
"_ 7 # ~ Z.`.J 1  +N..+1 ++@+#+$+%+&+T.*+=+-+;+# _ 9 i >+>+j [ ~ ",
"8 9 e h ,+'+)+!+~+{+~+8 ]+^+/+(+_+:+<+[+}+|+1+!+2+M a y 3+k 2 ~ ",
"8 A 4+d 5+6+7+8+9+0+a+b+c+d+e+f+g+h+i+j+k+l+m+n+o+p+i j a X h h ",
"u t s a q+r+s+t+u+v+w+s+x+y+z+A+B+C+D+E+F+G+H+I+J+K+M q+i t d d ",
"L+M+N+O+P+Q+R+S+T+U+V+W+X+Y+Z+`+ @.@+@@@#@$@%@&@*@=@-@(.;@>@,@,@",
"'@)@)@!@~@{@]@^@/@(@_@:@<@[@}@|@1@2@3@4@5@6@7@8@9@0@a@b@c@d@e@k.",
"F.z f@g@h@i@j@k@l@m@n@/+o@p@q@r@s@t@u@u@v@w@x@y@z@A@B@C@l D@E@M+",
"_ F@Y.G@H@I@J@K@L@M@N@O@O@o@P@Q@Q@R@S@T@P@O@U@V@W@X@Y@!+] ] Z@`@",
"# ~ # 1  #I@.#+#@###$#U@O@O@O@O@O@O@O@O@O@O@O@O@%#&#*#I {.i {.=#",
"1 8 ~ # -#v+;#>#,#'#)#!#~#{#]#e+^#e+/#/+(#z+]#_#:#<#[#s h } }#4.",
"i 0 e 7 |#1#2#3#4#5#6#7#8#9#0#a#b#c#d#c#e#f#g#h#i#j#k#j ] $ 8 | ",
"M y i l#m#n#o#p#q#r#X@s#t#u#v#w#x#y#z#A#B#C#D#E#F#G#A M H## p | ",
"I##.{.J#K#L#M#N#w+r#r#r#r#O#P#Q#R#S#T#U#V#W#X#r#Y#Z#`# $3 3 .$+$",
"3.@$#$j.$$%$&$&$r#r#r#r#*$=$-$;$>$,$'$)$!$~${$]$^$/$($_$:$<$[$}$",
"q.E.|$1$2$3$r#r#4$5$6$4$7$8$9$0$a$b$c$d$e$f$g$h$I@i$j$k$l$m$n$o$",
"8 9 p$'+&$q$r$J@s$t$u$v$w$x$y$z$A$B$C$D$E$F$G$H$I$J$K$L$M$@ % % ",
"c k 8 ]+N$O$P$>#Q$R$S$T$U$V$W$X$W$Y$Z$Y$`$ %.%t@+%@%R+#%$%} # [ ",
"8 # %%&%*%=%-%;%>%,%'%)%O@O@!%w@O@O@O@O@O@O@U@~%T@{%]%^%/%9 1 _ ",
"k k  #(%_%:%<%;%[%[%}%|%1%2%3%4%5%6%O@7%8%T@O@O@O@9%0%a%b%M c%8 ",
"t t d%6+w+e%f%[%[%[%g%h%h%i%,%j%k%l%m%n%o%p%8%N@N@q%r%s%t%n i i ",
",@{.u%v%w%x%y%z%[%[%[%[%A%B%B%C%D%E%F%h%[%,%G%H%I%J%K%L%M%O+L+,@",
"N%O%P%Q%R%S%T%U%V%W%X%Y%Z%`% &.&+&@&#&$&%&&&*&=&-&;&>&,&N%,&N%N%"};
