/* XPM */
static char * enemy1_xpm[] = {
"32 32 670 2",
"  	c #BF9B60",
". 	c #C09C61",
"+ 	c #BE9B60",
"@ 	c #B39259",
"# 	c #B6935D",
"$ 	c #B29159",
"% 	c #B8955F",
"& 	c #BF9B62",
"* 	c #BF9B61",
"= 	c #BA9660",
"- 	c #BE9A61",
"; 	c #B4925D",
"> 	c #C09C62",
", 	c #BF9A60",
"' 	c #B8955E",
") 	c #AE8D56",
"! 	c #9A7945",
"~ 	c #B7945D",
"{ 	c #B7945E",
"] 	c #AF8E56",
"^ 	c #AF8F56",
"/ 	c #B09056",
"( 	c #B29158",
"_ 	c #B2905C",
": 	c #B7945F",
"< 	c #A28456",
"[ 	c #6B5A40",
"} 	c #AF8E5B",
"| 	c #B4925C",
"1 	c #AC8C55",
"2 	c #B09057",
"3 	c #B39158",
"4 	c #B29058",
"5 	c #B3915B",
"6 	c #A1844E",
"7 	c #B19057",
"8 	c #AF8F57",
"9 	c #B5925C",
"0 	c #B19058",
"a 	c #A58751",
"b 	c #9E7E48",
"c 	c #A2854E",
"d 	c #A58850",
"e 	c #AD8D56",
"f 	c #9B7F4F",
"g 	c #635439",
"h 	c #997C51",
"i 	c #5F513A",
"j 	c #967A50",
"k 	c #A98A55",
"l 	c #92784A",
"m 	c #635438",
"n 	c #A68852",
"o 	c #A78A53",
"p 	c #B3915A",
"q 	c #A3874F",
"r 	c #AD8D55",
"s 	c #AC8D55",
"t 	c #A1854E",
"u 	c #AE8E55",
"v 	c #AC8D54",
"w 	c #A48750",
"x 	c #A58851",
"y 	c #AE8D59",
"z 	c #AC8B58",
"A 	c #A68752",
"B 	c #A98A54",
"C 	c #A38555",
"D 	c #4F4332",
"E 	c #3E372B",
"F 	c #7F6B43",
"G 	c #483F30",
"H 	c #8C7448",
"I 	c #625339",
"J 	c #92774D",
"K 	c #5D4E39",
"L 	c #977C50",
"M 	c #B4915B",
"N 	c #AE8E56",
"O 	c #AA8B53",
"P 	c #A38750",
"Q 	c #A38650",
"R 	c #9F834C",
"S 	c #A48751",
"T 	c #AB8C53",
"U 	c #A68755",
"V 	c #594B36",
"W 	c #4A3F30",
"X 	c #4A4030",
"Y 	c #5B4D37",
"Z 	c #8B7248",
"` 	c #332E27",
" .	c #342925",
"..	c #45382C",
"+.	c #322927",
"@.	c #42362C",
"#.	c #362B26",
"$.	c #44372B",
"%.	c #473A2F",
"&.	c #A18352",
"*.	c #AE8D5A",
"=.	c #AF8E5A",
"-.	c #A68851",
";.	c #AE8E57",
">.	c #B18E59",
",.	c #9A7A45",
"'.	c #B1905A",
").	c #A2864F",
"!.	c #A28551",
"~.	c #806A44",
"{.	c #302C26",
"].	c #232222",
"^.	c #292224",
"/.	c #292624",
"(.	c #3F352C",
"_.	c #442A26",
":.	c #AC4333",
"<.	c #B24339",
"[.	c #933A50",
"}.	c #973B4D",
"|.	c #B54436",
"1.	c #B1433A",
"2.	c #843949",
"3.	c #4E3E32",
"4.	c #4C3F31",
"5.	c #493F2F",
"6.	c #5C4E36",
"7.	c #A18450",
"8.	c #987743",
"9.	c #9F824D",
"0.	c #B08E59",
"a.	c #AD8C58",
"b.	c #A28550",
"c.	c #8C7446",
"d.	c #4D4330",
"e.	c #40382C",
"f.	c #2C2525",
"g.	c #362328",
"h.	c #75283C",
"i.	c #49262C",
"j.	c #70263D",
"k.	c #502B29",
"l.	c #CB4B35",
"m.	c #DD6858",
"n.	c #E9C8C5",
"o.	c #E7BCB7",
"p.	c #DC5946",
"q.	c #DD6A5A",
"r.	c #C8A9A6",
"s.	c #483437",
"t.	c #73283C",
"u.	c #322327",
"v.	c #2B2825",
"w.	c #5E5036",
"x.	c #A2844F",
"y.	c #A88952",
"z.	c #A98952",
"A.	c #A0834D",
"B.	c #9A7E49",
"C.	c #917240",
"D.	c #8C6E40",
"E.	c #9B7A46",
"F.	c #9D7B47",
"G.	c #876A40",
"H.	c #4F422E",
"I.	c #3E362A",
"J.	c #2C2925",
"K.	c #352327",
"L.	c #72263D",
"M.	c #552B2B",
"N.	c #BD4439",
"O.	c #B74139",
"P.	c #902A45",
"Q.	c #522B2A",
"R.	c #DE6E5C",
"S.	c #EEDFD4",
"T.	c #ECD1C6",
"U.	c #DC5C48",
"V.	c #DF715F",
"W.	c #CCBCB3",
"X.	c #573B38",
"Y.	c #B63F3C",
"Z.	c #802B3D",
"`.	c #372D27",
" +	c #625030",
".+	c #785F35",
"++	c #796036",
"@+	c #866A3C",
"#+	c #775F35",
"$+	c #765C34",
"%+	c #B2905B",
"&+	c #BA965E",
"*+	c #9C8050",
"=+	c #886F49",
"-+	c #412D2D",
";+	c #912C44",
">+	c #B74238",
",+	c #D44B38",
"'+	c #D2483C",
")+	c #982D45",
"!+	c #562A2C",
"~+	c #C24834",
"{+	c #BC4D3B",
"]+	c #665955",
"^+	c #725751",
"/+	c #C64C38",
"(+	c #BA4D3B",
"_+	c #5C4E4A",
":+	c #582F2B",
"<+	c #CC4938",
"[+	c #B24037",
"}+	c #362926",
"|+	c #544732",
"1+	c #997D4B",
"2+	c #9C804B",
"3+	c #9F824C",
"4+	c #A78851",
"5+	c #B99660",
"6+	c #B08F57",
"7+	c #A38652",
"8+	c #4F4331",
"9+	c #2B2525",
"0+	c #552631",
"a+	c #A33047",
"b+	c #B53746",
"c+	c #D44A3A",
"d+	c #C5433D",
"e+	c #8B2D3F",
"f+	c #592C2C",
"g+	c #4E2B29",
"h+	c #2F2326",
"i+	c #332426",
"j+	c #4D2A29",
"k+	c #44252C",
"l+	c #98323F",
"m+	c #D54B39",
"n+	c #BA4634",
"o+	c #332724",
"p+	c #342F29",
"q+	c #63533A",
"r+	c #A78952",
"s+	c #B2915B",
"t+	c #A48555",
"u+	c #363028",
"v+	c #332327",
"w+	c #7D2742",
"x+	c #A22D4A",
"y+	c #C3433C",
"z+	c #D64C38",
"A+	c #CF4B37",
"B+	c #C3433D",
"C+	c #8A2A42",
"D+	c #8B2944",
"E+	c #842743",
"F+	c #912E42",
"G+	c #C9463C",
"H+	c #CE4B36",
"I+	c #B14332",
"J+	c #473A2D",
"K+	c #897247",
"L+	c #927949",
"M+	c #9D8150",
"N+	c #262223",
"O+	c #4B2430",
"P+	c #822843",
"Q+	c #6A302D",
"R+	c #AD4332",
"S+	c #6F342B",
"T+	c #AD4436",
"U+	c #6C3B3B",
"V+	c #A4403B",
"W+	c #A4403A",
"X+	c #6C3A3C",
"Y+	c #703C3B",
"Z+	c #AE4637",
"`+	c #613A35",
" @	c #472B26",
".@	c #493F30",
"+@	c #A98A57",
"@@	c #AD8D54",
"#@	c #AB8C54",
"$@	c #A48850",
"%@	c #947B4A",
"&@	c #353028",
"*@	c #2F2B26",
"=@	c #312B27",
"-@	c #382429",
";@	c #2B2424",
">@	c #432926",
",@	c #2C2423",
"'@	c #5F4A45",
")@	c #A69D96",
"!@	c #6D5854",
"~@	c #B3AAA3",
"{@	c #6C5651",
"]@	c #A59C96",
"^@	c #6E5A55",
"/@	c #B2A9A2",
"(@	c #6C5753",
"_@	c #A09B95",
":@	c #323130",
"<@	c #4B4130",
"[@	c #9D824E",
"}@	c #AD8E55",
"|@	c #A3864F",
"1@	c #A28455",
"2@	c #4D4331",
"3@	c #91774D",
"4@	c #8C734C",
"5@	c #302D27",
"6@	c #222222",
"7@	c #2B2B2A",
"8@	c #494846",
"9@	c #53514F",
"0@	c #BBB8B0",
"a@	c #3E3D3C",
"b@	c #565552",
"c@	c #BBB7AF",
"d@	c #3D3C3B",
"e@	c #4A4846",
"f@	c #4A4131",
"g@	c #997E50",
"h@	c #AB8C55",
"i@	c #B08F5A",
"j@	c #A3854F",
"k@	c #9A7F4A",
"l@	c #9A7F4B",
"m@	c #9B804B",
"n@	c #9F834D",
"o@	c #8E7546",
"p@	c #9E814C",
"q@	c #977B4C",
"r@	c #2B2925",
"s@	c #232322",
"t@	c #484745",
"u@	c #262626",
"v@	c #2C2C2B",
"w@	c #282726",
"x@	c #443C2D",
"y@	c #917648",
"z@	c #A88852",
"A@	c #A1834D",
"B@	c #A0834C",
"C@	c #A68750",
"D@	c #A58650",
"E@	c #7A6038",
"F@	c #796037",
"G@	c #7A6037",
"H@	c #7B6238",
"I@	c #876A3D",
"J@	c #7E6439",
"K@	c #896C3E",
"L@	c #8A6D3F",
"M@	c #7F653C",
"N@	c #483D2D",
"O@	c #705A38",
"P@	c #2E2A25",
"Q@	c #2A2724",
"R@	c #242323",
"S@	c #292724",
"T@	c #373127",
"U@	c #79613A",
"V@	c #8A6D40",
"W@	c #8E7041",
"X@	c #987845",
"Y@	c #8F7141",
"Z@	c #9A7946",
"`@	c #997946",
" #	c #8B6E3F",
".#	c #7B6237",
"+#	c #775E35",
"@#	c #AF8D59",
"##	c #B4925B",
"$#	c #B6935B",
"%#	c #B7935C",
"&#	c #B7945C",
"*#	c #B18F5B",
"=#	c #B18F5A",
"-#	c #AD8B58",
";#	c #9E8150",
">#	c #453D2E",
",#	c #866E48",
"'#	c #3D362C",
")#	c #232323",
"!#	c #252423",
"~#	c #4B4030",
"{#	c #876E48",
"]#	c #574A35",
"^#	c #AE8D58",
"/#	c #B28F5A",
"(#	c #B7945B",
"_#	c #BA965C",
":#	c #B9955D",
"<#	c #B08D59",
"[#	c #A78852",
"}#	c #B19158",
"|#	c #B39258",
"1#	c #B6945E",
"2#	c #A18354",
"3#	c #4B4132",
"4#	c #A58656",
"5#	c #866E49",
"6#	c #2E2B27",
"7#	c #3B342A",
"8#	c #8E7549",
"9#	c #987D4D",
"0#	c #B5935D",
"a#	c #B18F59",
"b#	c #A0844D",
"c#	c #B18F58",
"d#	c #9B7F4B",
"e#	c #9C7D48",
"f#	c #9D814E",
"g#	c #473E2F",
"h#	c #887047",
"i#	c #463D2E",
"j#	c #242423",
"k#	c #282624",
"l#	c #564835",
"m#	c #8F754D",
"n#	c #5D4F38",
"o#	c #A08351",
"p#	c #A68853",
"q#	c #A4864F",
"r#	c #987844",
"s#	c #B5925D",
"t#	c #584B35",
"u#	c #987C4C",
"v#	c #9F8252",
"w#	c #7F6A42",
"x#	c #332F28",
"y#	c #363128",
"z#	c #39322A",
"A#	c #514632",
"B#	c #90774A",
"C#	c #5A4D35",
"D#	c #A18452",
"E#	c #41392C",
"F#	c #4A402E",
"G#	c #7F6A43",
"H#	c #342F28",
"I#	c #363635",
"J#	c #242424",
"K#	c #272727",
"L#	c #292725",
"M#	c #504531",
"N#	c #806B42",
"O#	c #3F382B",
"P#	c #9F834F",
"Q#	c #836D45",
"R#	c #332E28",
"S#	c #373735",
"T#	c #4D4C4A",
"U#	c #B1ADA6",
"V#	c #3A3939",
"W#	c #373635",
"X#	c #292928",
"Y#	c #52504D",
"Z#	c #B0ACA6",
"`#	c #373736",
" $	c #3A3936",
".$	c #37322A",
"+$	c #413A2C",
"@$	c #977C4C",
"#$	c #B5935C",
"$$	c #9E824D",
"%$	c #9E824C",
"&$	c #AA8A53",
"*$	c #9D804E",
"=$	c #453C2D",
"-$	c #242223",
";$	c #2E2226",
">$	c #4E4545",
",$	c #A49D97",
"'$	c #655A56",
")$	c #BCB6AE",
"!$	c #625652",
"~$	c #605450",
"{$	c #685C58",
"]$	c #BBB4AE",
"^$	c #5E5555",
"/$	c #A09C96",
"($	c #483F2E",
"_$	c #977C49",
":$	c #A68751",
"<$	c #9C7F4B",
"[$	c #937441",
"}$	c #8B6E40",
"|$	c #7D6338",
"1$	c #876A3C",
"2$	c #8D6E40",
"3$	c #8C6E41",
"4$	c #3B3428",
"5$	c #262323",
"6$	c #392428",
"7$	c #7D2A3D",
"8$	c #53282D",
"9$	c #833142",
"0$	c #704946",
"a$	c #A64839",
"b$	c #744B45",
"c$	c #744C45",
"d$	c #754B45",
"e$	c #6C4747",
"f$	c #843345",
"g$	c #504243",
"h$	c #393229",
"i$	c #6D5734",
"j$	c #83683B",
"k$	c #7B6138",
"l$	c #785F36",
"m$	c #B49259",
"n$	c #A88851",
"o$	c #987C50",
"p$	c #422F2D",
"q$	c #76263F",
"r$	c #55292E",
"s$	c #BB423A",
"t$	c #C14539",
"u$	c #CD483A",
"v$	c #C74936",
"w$	c #D34D37",
"x$	c #C84A35",
"y$	c #D44C37",
"z$	c #D34C37",
"A$	c #872C3F",
"B$	c #967B4B",
"C$	c #B5925A",
"D$	c #B6935A",
"E$	c #B6935C",
"F$	c #AC8C54",
"G$	c #AF8E57",
"H$	c #9B7E52",
"I$	c #43302D",
"J$	c #882846",
"K$	c #932949",
"L$	c #A72F4B",
"M$	c #D64B39",
"N$	c #DA4E37",
"O$	c #D94D38",
"P$	c #D64B3A",
"Q$	c #D94E37",
"R$	c #D84D38",
"S$	c #B44237",
"T$	c #352825",
"U$	c #534733",
"V$	c #A58555",
"W$	c #B3905C",
"X$	c #9B7F52",
"Y$	c #473D2F",
"Z$	c #292425",
"`$	c #502431",
" %	c #97284C",
".%	c #A62E4C",
"+%	c #C9433F",
"@%	c #D3493B",
"#%	c #D44A3B",
"$%	c #CC453E",
"%%	c #B33647",
"&%	c #D0483C",
"*%	c #D54A3A",
"=%	c #DA4E38",
"-%	c #342825",
";%	c #39332A",
">%	c #5F5138",
",%	c #A88953",
"'%	c #B3925B",
")%	c #A18451",
"!%	c #524632",
"~%	c #372428",
"{%	c #892846",
"]%	c #9E294E",
"^%	c #A12A4E",
"/%	c #A72E4C",
"(%	c #A82E4B",
"_%	c #A62D4C",
":%	c #A22A4E",
"<%	c #B03448",
"[%	c #CC453D",
"}%	c #AB314A",
"|%	c #B13448",
"1%	c #D1483C",
"2%	c #B54336",
"3%	c #4B3C2F",
"4%	c #947A4C",
"5%	c #957B4A",
"6%	c #9D7D47",
"7%	c #A3854E",
"8%	c #967C4B",
"9%	c #897146",
"0%	c #4D3830",
"a%	c #8B2947",
"b%	c #A0294F",
"c%	c #94284A",
"d%	c #93284A",
"e%	c #942949",
"f%	c #9D2D47",
"g%	c #A52D4B",
"h%	c #A0294E",
"i%	c #A52E4B",
"j%	c #892E41",
"k%	c #544432",
"l%	c #9C824D",
"m%	c #A98A52",
"n%	c #B3925C",
"o%	c #B08E5A",
"p%	c #987B51",
"q%	c #5B3B37",
"r%	c #8D2947",
"s%	c #9F294E",
"t%	c #872A46",
"u%	c #4C3131",
"v%	c #46322F",
"w%	c #44302D",
"x%	c #45312E",
"y%	c #542F33",
"z%	c #8F2949",
"A%	c #9F294F",
"B%	c #9D294E",
"C%	c #852A45",
"D%	c #5C4337",
"E%	c #9E8052",
"F%	c #A28650",
"G%	c #A58651",
"H%	c #A48550",
"I%	c #9D814B",
"J%	c #9C814B",
"K%	c #9C804C",
"L%	c #A48551",
"M%	c #8B7047",
"N%	c #4E2E31",
"O%	c #8A2746",
"P%	c #862945",
"Q%	c #593E34",
"R%	c #897045",
"S%	c #907646",
"T%	c #8D7041",
"U%	c #997C4B",
"V%	c #9B7E4D",
"W%	c #876E45",
"X%	c #4F2C31",
"Y%	c #8C2847",
"Z%	c #832944",
"`%	c #563D33",
" &	c #8B7345",
".&	c #9B7F4C",
"+&	c #A38550",
"@&	c #705932",
"#&	c #735B33",
"$&	c #806439",
"%&	c #82663A",
"&&	c #7F6439",
"*&	c #7E6338",
"=&	c #66512F",
"-&	c #2E2825",
";&	c #342328",
">&	c #412E2B",
",&	c #81653C",
"'&	c #87693C",
")&	c #947442",
"!&	c #967542",
"~&	c #967543",
"{&	c #775E38",
"]&	c #2E2826",
"^&	c #3F2D29",
"/&	c #654F2F",
"(&	c #7C6237",
"_&	c #715932",
":&	c #6E5831",
"<&	c #6F5831",
"  . + @ # $ % & .         * = & - ; % & .         . > . , ' ) ! ",
"@ % ' ~ % { { ' # ] ^ / ( # _ : < [ } ' | 1 2 / 3 ' % # 4 # 5 6 ",
"# # 7 8 9 # 0 8 a b c d e f g h i j k ) l m n o | p | n q r s t ",
"u u v w x ^ 8 y z A n B C D E F G H I J K L 8 ; # M N O q P Q R ",
"S P w O T u U V W X X Y Z `  ...+.@.#.$.%.&.*.=.B x w -.;.| >.,.",
"'.s r x q ).!.~.{.].^./.(._.:.<.[.}.|.1.2.3.4.5.6.7.u 5 # | 1 8.",
"9.c 0.a.b.c.d.e.f.g.h.i.j.k.l.m.n.o.p.q.r.s.t.u.v.w.x.y.z.A.B.C.",
"D.E.F.G.H.I.J.K.L.M.N.O.P.Q.l.R.S.T.U.V.W.X.Y.Z.`. +.+++@+@+#+$+",
"%+&+&+a.l *+=+-+;+>+,+'+)+!+~+{+]+^+/+(+_+:+<+[+}+|+1+2+3+4+9.A ",
"{ % 5+{ 6+7+8+9+0+a+b+c+d+e+f+g+h+i+Q.j+k+l+m+n+o+p+q+r+s s+| { ",
"2 6+# { # t+u+v+w+x+y+z+A+B+C+D+E+D+E+D+F+G+H+I+J+K+L+t ).x 0 { ",
"| r+r u u M+u+N+O+P+Q+R+S+T+U+V+U+W+X+V+Y+Z+`+ @.@+@s T @@N 9 { ",
"| #@$@P w %@&@*@=@-@;@>@,@'@)@!@~@{@]@^@/@(@_@:@<@[@w x v }@u u ",
"P |@O v '.1@2@3@4@5@6@6@6@7@8@9@0@a@8@b@c@d@e@f@g@h@'.i@w |@q q ",
"j@k@l@m@n@x.o@p@q@&@r@s@6@6@6@7@t@u@6@v@t@w@x@y@z@6 9.A@B@C@D@D@",
"E@F@G@H@I@J@K@L@M@N@O@P@Q@s@6@6@6@6@6@R@S@T@U@V@W@X@Y@Z@`@ #.#+#",
"@###$#%#&#*#$#=#-#;#q@>#,#'#)#6@6@6@!#~#{#]#^#/#(#_#:#&+M <#[#k@",
"}#}#|#{ 1#| 6+r ] M 2#3#4#5#6#6@6@6@7#8#B 9#^ }#( @ { 0#8 ^ a#b#",
"# { # c#r+Q d#e#6 f#9#g#h#i#j#6@6@6@k#l#m#n#o#9 # 5 p#a q#w q#r#",
"8 | { # s#t+t#u#v#t#w#x#y#j#6@6@6@6@6@k#z#S@A#C 1 B#C#S u 5 =#Z@",
"w -.r 6+# D#E#F#G#H#y#j#6@6@u@I#J#6@6@6@K#I#L#M#N#O#d.P#^ $ | 6 ",
"'.#@w -.| i@Q#R#y#j#6@6@u@S#T#U#V#W#X#W#Y#Z#`# $.$+$@$i@#$# s+6 ",
"$$%$q#4+&$*$=$!#6@-$;$N+>$,$'$)$!$,$~$,${$]$^$/$:@($_$p@:$:$<$[$",
"}$K@|$1$2$3$4$5$;$6$7$8$9$0$a$b$a$c$a$d$a$e$f$g$h$i$j$k$H@H@G@l$",
":#m$:$n@n$0.o$p$q$r$s$t$u$v$w$x$y$x$z$x$z$v$d+A$%.B$&$@#C$D$$#E$",
"| r+-.F$r+G$H$I$J$K$L$b+M$N$O$P$Q$N$N$N$N$N$R$S$T$U$V$0#( @ % % ",
"n N 9 # W$X$Y$Z$`$ %.%+%@%#%$%%%&%*%=%O$c+m+=%n+-%;%>%,%u '%# 0 ",
"| # # 8 )%!%H#~%{%]%^%/%(%(%_%:%/%<%&%[%}%|%1%2%3%4%5%6%7%r+8 2 ",
"N N r d t 8%9%0%a%]%b%b%]%c%d%d%d%e%f%g%h%^%i%j%k%l%).m%F$'.n%| ",
"|@|@|@O v =#o%p%q%r%s%]%t%u%v%w%x%x%y%z%A%B%C%D%E%#@O |@|@F%w w ",
"G%H%I%J%I%K%9.L%M%N%O%P%Q%R%S%T%U%V%W%X%Y%Z%`% &.&l@l@l@x.m@+&G%",
"@&#&$&%&&&#&*&#&=&-&;&>&,&'&)&!&8.~&{&]&;&^&/&(&_&:&:&<&@&<&@&@&"};
