/* XPM */
static char * enemy0_xpm[] = {
"32 32 615 2",
"  	c #BF9B60",
". 	c #C09C61",
"+ 	c #BE9B60",
"@ 	c #B39259",
"# 	c #B6935D",
"$ 	c #B29159",
"% 	c #B8955F",
"& 	c #BF9B62",
"* 	c #BF9B61",
"= 	c #BA9660",
"- 	c #B99660",
"; 	c #B9965F",
"> 	c #C09C62",
", 	c #BF9A60",
"' 	c #B8955E",
") 	c #AE8D56",
"! 	c #9A7945",
"~ 	c #B7945D",
"{ 	c #B7945E",
"] 	c #AF8E56",
"^ 	c #AF8F56",
"/ 	c #B09056",
"( 	c #B29158",
"_ 	c #B7945F",
": 	c #AD8D5A",
"< 	c #B5935D",
"[ 	c #B19057",
"} 	c #B39158",
"| 	c #B29058",
"1 	c #B3915B",
"2 	c #A1844E",
"3 	c #AF8F57",
"4 	c #B5925C",
"5 	c #B19058",
"6 	c #A58751",
"7 	c #9E7E48",
"8 	c #A2854E",
"9 	c #A58850",
"0 	c #A68754",
"a 	c #B18F5B",
"b 	c #A08355",
"c 	c #63533B",
"d 	c #A48653",
"e 	c #A58752",
"f 	c #9B804E",
"g 	c #AB8C53",
"h 	c #A78A53",
"i 	c #B4925C",
"j 	c #B3915A",
"k 	c #A68852",
"l 	c #A3874F",
"m 	c #AD8D55",
"n 	c #AC8D55",
"o 	c #A1854E",
"p 	c #AE8E55",
"q 	c #AC8D54",
"r 	c #A48750",
"s 	c #A58851",
"t 	c #B09057",
"u 	c #B4915B",
"v 	c #AE8D55",
"w 	c #B3915C",
"x 	c #9E8053",
"y 	c #534832",
"z 	c #8B7448",
"A 	c #554934",
"B 	c #90774A",
"C 	c #A28451",
"D 	c #B08E5A",
"E 	c #9D8052",
"F 	c #61523A",
"G 	c #A58653",
"H 	c #B4925D",
"I 	c #AE8E56",
"J 	c #AA8B53",
"K 	c #A38750",
"L 	c #A38650",
"M 	c #9F834C",
"N 	c #A48751",
"O 	c #B4925B",
"P 	c #A88857",
"Q 	c #A98958",
"R 	c #B2905B",
"S 	c #A38552",
"T 	c #4B4130",
"U 	c #363128",
"V 	c #816B44",
"W 	c #413A2C",
"X 	c #7E6942",
"Y 	c #514631",
"Z 	c #816C45",
"` 	c #514532",
" .	c #957A4E",
"..	c #B08F57",
"+.	c #A68851",
"@.	c #AE8E57",
"#.	c #B18E59",
"$.	c #9A7A45",
"%.	c #B1905A",
"&.	c #A48651",
"*.	c #584B36",
"=.	c #3F372D",
"-.	c #483F2F",
";.	c #8C7548",
">.	c #8B7447",
",.	c #383128",
"'.	c #3B2825",
").	c #47332A",
"!.	c #382728",
"~.	c #41312D",
"{.	c #3F2A27",
"].	c #48342B",
"^.	c #44332D",
"/.	c #9A7C51",
"(.	c #AD8E56",
"_.	c #A28551",
":.	c #A18450",
"<.	c #AC8C55",
"[.	c #987743",
"}.	c #9F824D",
"|.	c #B08E59",
"1.	c #AE8C58",
"2.	c #A98952",
"3.	c #9D824C",
"4.	c #9D814C",
"5.	c #9B7F4B",
"6.	c #7D6941",
"7.	c #322E27",
"8.	c #252423",
"9.	c #373228",
"0.	c #3C2825",
"a.	c #B14433",
"b.	c #C0483A",
"c.	c #A14659",
"d.	c #A0475A",
"e.	c #BF473B",
"f.	c #BF483B",
"g.	c #964353",
"h.	c #503D33",
"i.	c #8A7246",
"j.	c #907749",
"k.	c #473E2E",
"l.	c #514531",
"m.	c #9B7F4C",
"n.	c #A88952",
"o.	c #A0834D",
"p.	c #9A7E49",
"q.	c #917240",
"r.	c #8C6E40",
"s.	c #9B7A46",
"t.	c #9D7B47",
"u.	c #917143",
"v.	c #957644",
"w.	c #82673D",
"x.	c #7F653B",
"y.	c #78603A",
"z.	c #41382A",
"A.	c #262423",
"B.	c #2F2226",
"C.	c #262223",
"D.	c #2E2226",
"E.	c #402725",
"F.	c #C54936",
"G.	c #DC614E",
"H.	c #EECDC6",
"I.	c #EFCFC9",
"J.	c #DD6453",
"K.	c #DC614F",
"L.	c #D9B8B2",
"M.	c #494342",
"N.	c #3A2D29",
"O.	c #322C26",
"P.	c #2E2A24",
"Q.	c #665232",
"R.	c #775F36",
"S.	c #796036",
"T.	c #866A3C",
"U.	c #775F35",
"V.	c #765C34",
"W.	c #BA965E",
"X.	c #574A35",
"Y.	c #3C352B",
"Z.	c #39322A",
"`.	c #312527",
" +	c #342327",
".+	c #7E2B3E",
"++	c #53282D",
"@+	c #792740",
"#+	c #4A272A",
"$+	c #DB624E",
"%+	c #E7D1C7",
"&+	c #E7D3C9",
"*+	c #DC6553",
"=+	c #DB624F",
"-+	c #D2BBB3",
";+	c #4F4544",
">+	c #7E2A3F",
",+	c #41242B",
"'+	c #38322A",
")+	c #977B4C",
"!+	c #9B7E4C",
"~+	c #9F824C",
"{+	c #A78851",
"]+	c #A68752",
"^+	c #987D4E",
"/+	c #463C2D",
"(+	c #332427",
"_+	c #78273F",
":+	c #592C2C",
"<+	c #BE4538",
"[+	c #C24639",
"}+	c #9F3045",
"|+	c #54282E",
"1+	c #B64534",
"2+	c #BB4937",
"3+	c #5D4945",
"4+	c #5B4945",
"5+	c #B94938",
"6+	c #BB4938",
"7+	c #5A4541",
"8+	c #4B2C2D",
"9+	c #B9413A",
"0+	c #942F40",
"a+	c #43322E",
"b+	c #8A724C",
"c+	c #584A36",
"d+	c #9F8350",
"e+	c #B2915B",
"f+	c #8A7248",
"g+	c #3F302C",
"h+	c #8A2B42",
"i+	c #D14939",
"j+	c #D94D38",
"k+	c #CD473C",
"l+	c #983041",
"m+	c #57292E",
"n+	c #4A282A",
"o+	c #362328",
"p+	c #43242C",
"q+	c #943040",
"r+	c #D1493A",
"s+	c #C24638",
"t+	c #412926",
"u+	c #353028",
"v+	c #433C2D",
"w+	c #967D4B",
"x+	c #A2864F",
"y+	c #A78952",
"z+	c #4C4131",
"A+	c #292424",
"B+	c #4C242F",
"C+	c #9B2D47",
"D+	c #B23547",
"E+	c #D44A3A",
"F+	c #A03144",
"G+	c #982C46",
"H+	c #CC463C",
"I+	c #C84A36",
"J+	c #422925",
"K+	c #423A2E",
"L+	c #92784A",
"M+	c #A98A53",
"N+	c #AD8D54",
"O+	c #AB8C54",
"P+	c #A48850",
"Q+	c #A28650",
"R+	c #8E7548",
"S+	c #373128",
"T+	c #2E2326",
"U+	c #7A2741",
"V+	c #9F2C4A",
"W+	c #BE423C",
"X+	c #D44C38",
"Y+	c #CC4B36",
"Z+	c #C64639",
"`+	c #CE483B",
" @	c #C5453A",
".@	c #C5463A",
"+@	c #CA4A36",
"@@	c #B84534",
"#@	c #483329",
"$@	c #897246",
"%@	c #AD8E55",
"&@	c #A3864F",
"*@	c #A78856",
"=@	c #363028",
"-@	c #272424",
";@	c #40232C",
">@	c #7D2841",
",@	c #5C2C2C",
"'@	c #A74132",
")@	c #643129",
"!@	c #A94435",
"~@	c #73463E",
"{@	c #AC4738",
"]@	c #65423D",
"^@	c #412B28",
"/@	c #3A332A",
"(@	c #9D8150",
"_@	c #B08F5A",
":@	c #A3854F",
"<@	c #9A7F4A",
"[@	c #9A7F4B",
"}@	c #9B804B",
"|@	c #967B4B",
"1@	c #856E43",
"2@	c #41392B",
"3@	c #332D27",
"4@	c #332428",
"5@	c #282323",
"6@	c #3A2725",
"7@	c #292323",
"8@	c #4F3E3B",
"9@	c #A9A29B",
"0@	c #655551",
"a@	c #BBB4AD",
"b@	c #A9A19A",
"c@	c #BCB5AE",
"d@	c #655651",
"e@	c #A7A19B",
"f@	c #3F3F3C",
"g@	c #41392C",
"h@	c #937A49",
"i@	c #A1834D",
"j@	c #A0834C",
"k@	c #A68750",
"l@	c #A58650",
"m@	c #7A6038",
"n@	c #796037",
"o@	c #7A6037",
"p@	c #7B6238",
"q@	c #876A3D",
"r@	c #7E6439",
"s@	c #876B3E",
"t@	c #7F653C",
"u@	c #785F3A",
"v@	c #3F362A",
"w@	c #242423",
"x@	c #222222",
"y@	c #262626",
"z@	c #403F3D",
"A@	c #434240",
"B@	c #BAB6AF",
"C@	c #474644",
"D@	c #444341",
"E@	c #BBB7B0",
"F@	c #413F3D",
"G@	c #3D362C",
"H@	c #7A623B",
"I@	c #977744",
"J@	c #8F7141",
"K@	c #9A7946",
"L@	c #997946",
"M@	c #8B6E3F",
"N@	c #7B6237",
"O@	c #775E35",
"P@	c #AF8D59",
"Q@	c #B6935B",
"R@	c #B7935C",
"S@	c #B7945C",
"T@	c #B18F5A",
"U@	c #957A4C",
"V@	c #383229",
"W@	c #3F3E3D",
"X@	c #272726",
"Y@	c #3F3F3D",
"Z@	c #363129",
"`@	c #977B4F",
" #	c #B5925A",
".#	c #BA965C",
"+#	c #B9955D",
"@#	c #B08D59",
"##	c #A78852",
"$#	c #B19158",
"%#	c #B39258",
"&#	c #B6945E",
"*#	c #A58656",
"=#	c #3D352C",
"-#	c #A18452",
";#	c #B18F59",
">#	c #A0844D",
",#	c #B18F58",
"'#	c #977C4A",
")#	c #927545",
"!#	c #A0834E",
"~#	c #8E7649",
"{#	c #373229",
"]#	c #9A7D52",
"^#	c #B4915C",
"/#	c #A28452",
"(#	c #9A7F4D",
"_#	c #A2854F",
":#	c #A4864F",
"<#	c #987844",
"[#	c #B5925D",
"}#	c #A88957",
"|#	c #554933",
"1#	c #463D2E",
"2#	c #89714A",
"3#	c #463E2E",
"4#	c #262525",
"5#	c #3C3B3A",
"6#	c #282827",
"7#	c #463D2F",
"8#	c #957B4E",
"9#	c #947B4D",
"0#	c #524733",
"a#	c #AD8D57",
"b#	c #816C44",
"c#	c #343028",
"d#	c #332E27",
"e#	c #42413F",
"f#	c #B8B4AD",
"g#	c #464544",
"h#	c #292929",
"i#	c #464443",
"j#	c #3D3C3A",
"k#	c #38332B",
"l#	c #423A2C",
"m#	c #8D7549",
"n#	c #AC8D56",
"o#	c #A98957",
"p#	c #4A402F",
"q#	c #242223",
"r#	c #302226",
"s#	c #463B3C",
"t#	c #635551",
"u#	c #BEB7AF",
"v#	c #635651",
"w#	c #60524D",
"x#	c #BDB6AF",
"y#	c #5E5353",
"z#	c #A6A19B",
"A#	c #3F3E3C",
"B#	c #93794B",
"C#	c #B5935C",
"D#	c #9E824D",
"E#	c #9E824C",
"F#	c #AA8A53",
"G#	c #9F824F",
"H#	c #443B2C",
"I#	c #302327",
"J#	c #802B3E",
"K#	c #56292D",
"L#	c #852F41",
"M#	c #6D4543",
"N#	c #AA4739",
"O#	c #724842",
"P#	c #724841",
"Q#	c #873244",
"R#	c #563F43",
"S#	c #36312B",
"T#	c #816C42",
"U#	c #9E814C",
"V#	c #A68751",
"W#	c #9C7F4B",
"X#	c #937441",
"Y#	c #8B6E40",
"Z#	c #896C3E",
"`#	c #7D6338",
" $	c #876A3C",
".$	c #8D6E40",
"+$	c #977745",
"@$	c #7B623B",
"#$	c #3F2F2B",
"$$	c #53272F",
"%$	c #B7413B",
"&$	c #C2453A",
"*$	c #CF493A",
"=$	c #C94A36",
"-$	c #D54D37",
";$	c #CA463B",
">$	c #953041",
",$	c #3F2D2A",
"'$	c #715A35",
")$	c #84693C",
"!$	c #7B6138",
"~$	c #785F36",
"{$	c #B49259",
"]$	c #9F834D",
"^$	c #A88851",
"/$	c #B2905A",
"($	c #AA8957",
"_$	c #47372F",
":$	c #842744",
"<$	c #932949",
"[$	c #A52E4B",
"}$	c #DA4E37",
"|$	c #D94E38",
"1$	c #D54B3A",
"2$	c #D94D37",
"3$	c #4B332B",
"4$	c #8D7447",
"5$	c #A88953",
"6$	c #B6935A",
"7$	c #B6935C",
"8$	c #AC8C54",
"9$	c #AF8E57",
"0$	c #9E8153",
"a$	c #3C332C",
"b$	c #4B2430",
"c$	c #94284A",
"d$	c #A52C4D",
"e$	c #C74240",
"f$	c #D3493B",
"g$	c #D34A3A",
"h$	c #CE473D",
"i$	c #CE463D",
"j$	c #453C2E",
"k$	c #9C7F52",
"l$	c #9D8053",
"m$	c #4A3F30",
"n$	c #332527",
"o$	c #852745",
"p$	c #9E294E",
"q$	c #A12A4F",
"r$	c #A62D4C",
"s$	c #A72E4B",
"t$	c #A12A4E",
"u$	c #AC314A",
"v$	c #AD3249",
"w$	c #AC3249",
"x$	c #C14639",
"y$	c #343029",
"z$	c #A08350",
"A$	c #B3925B",
"B$	c #A38551",
"C$	c #42312D",
"D$	c #872A46",
"E$	c #A0294F",
"F$	c #92284A",
"G$	c #A52D4B",
"H$	c #A52D4C",
"I$	c #912E43",
"J$	c #503C32",
"K$	c #856E46",
"L$	c #4F4430",
"M$	c #917444",
"N$	c #A3854E",
"O$	c #997E4B",
"P$	c #514632",
"Q$	c #8A7247",
"R$	c #8F7549",
"S$	c #5A3E36",
"T$	c #892946",
"U$	c #8C2947",
"V$	c #513132",
"W$	c #46322E",
"X$	c #44302C",
"Y$	c #45322D",
"Z$	c #45322E",
"`$	c #4E3131",
" %	c #8A2A47",
".%	c #8B2947",
"+%	c #573A34",
"@%	c #9F834E",
"#%	c #987E4B",
"$%	c #A78951",
"%%	c #B3925C",
"&%	c #AB8B54",
"*%	c #A58655",
"=%	c #9C7E52",
"-%	c #503433",
";%	c #902849",
">%	c #593B35",
",%	c #93784C",
"'%	c #A08353",
")%	c #937948",
"!%	c #947B4A",
"~%	c #947B4B",
"{%	c #8B7347",
"]%	c #4F3231",
"^%	c #912849",
"/%	c #5A3C36",
"(%	c #95794D",
"_%	c #AE8D58",
":%	c #A58651",
"<%	c #A48550",
"[%	c #9D814B",
"}%	c #9C814B",
"|%	c #9C804C",
"1%	c #A78752",
"2%	c #9B7E4D",
"3%	c #43342D",
"4%	c #4C2F30",
"5%	c #8E7447",
"6%	c #AA8A52",
"7%	c #9A7E4D",
"8%	c #43332D",
"9%	c #4D2F30",
"0%	c #846D43",
"a%	c #A2844F",
"b%	c #A38550",
"c%	c #705932",
"d%	c #735B33",
"e%	c #806439",
"f%	c #82663A",
"g%	c #7F6439",
"h%	c #7E6338",
"i%	c #695330",
"j%	c #302A25",
"k%	c #302227",
"l%	c #866A3D",
"m%	c #886A3C",
"n%	c #947442",
"o%	c #967542",
"p%	c #967543",
"q%	c #7D633A",
"r%	c #332D26",
"s%	c #2F2924",
"t%	c #685330",
"u%	c #7D6238",
"v%	c #715932",
"w%	c #6E5831",
"x%	c #6F5831",
"  . + @ # $ % & .         * = & & - ; & .         . > . , ' ) ! ",
"@ % ' ~ % { { ' # ] ^ / ( { { ; _ : < ' # [ [ / } ' % # | # 1 2 ",
"# # [ 3 4 # 5 3 6 7 8 9 ^ ^ 0 a b c d 3 e f g h i j i k l m n o ",
"p p q r s ^ t 4 u v p ^ w x y z A B C D E F G H # u I J l K L M ",
"N K r J g p O 3 0 P Q R S T U V W X Y Z `  .w # ..+.r +.@.i #.$.",
"%.n m s l l n &.*.=.-.;.>.,.'.).!.~.{.].^./.) (._.:.n 1 # i <.[.",
"}.8 |.1.2.3.4.5.6.7.8.9.9.0.a.b.c.d.e.f.g.h.i.j.k.l.m.n.2.o.p.q.",
"r.s.t.u.v.w.x.y.z.A.B.C.D.E.F.G.H.I.J.K.L.M.N.O.P.Q.R.S.T.T.U.V.",
"R W.W.|.m.X.Y.Z.`. +.+++@+#+F.$+%+&+*+=+-+;+>+,+'+)+!+5.~+{+}.]+",
"{ % - { I ^+/+(+_+:+<+[+}+|+1+2+3+4+5+6+7+8+9+0+a+b+c+d+n e+i { ",
"t ..# { # R f+g+h+9+i+j+k+l+m+n+o+o+n+n+p+q+r+s+t+u+v+w+x+s 5 { ",
"i y+m p p S z+A+B+C+D+E+j+k+F+G+G+G+G+G+}+H+j+I+J+K+L+M+N+I 4 { ",
"i O+P+K Q+R+S+T+U+V+W+X+Y+X+Z+`+ @`+.@`+.@X++@@@#@$@x+s q %@p p ",
"K &@J q *@c+=@-@;@>@,@'@)@!@~@{@~@{@~@{@~@{@]@^@/@(@%._@r &@l l ",
":@<@[@}@4.|@1@2@3@4@5@6@7@8@9@0@a@0@b@0@c@d@e@f@g@h@}.i@j@k@l@l@",
"m@n@o@p@q@r@s@t@u@v@w@x@x@y@z@A@B@C@z@D@E@C@F@G@H@I@J@K@L@M@N@O@",
"P@O Q@R@S@a Q@T@1.U@V@x@x@x@x@y@W@X@x@y@Y@X@Z@`@ #.#+#W.u @###<@",
"$#$#%#{ &#i ..m ] *#=#x@x@x@x@x@x@x@x@x@x@x@V@-#( @ { < 3 ^ ;#>#",
"# { # ,#y+L '#)#!#~#{#x@x@x@x@x@x@x@x@x@x@x@u+]#^#1 /#(#_#r :#<#",
"3 i { # [#}#|#1#2#3#8.x@x@x@4#5#y@x@x@x@4#5#6#7#8#9#k.0#_.1 T@K@",
"r +.m ..# a#b#c#d#8.x@x@4#5#e#f#g#5#h#5#A@f#i#j#k#U l#m#n#$ i 2 ",
"%.O+r +.i o#p#8.x@q#r#C.s#e@t#u#v#9@w#9@t#x#y#z#A#l#B#_@C## e+2 ",
"D#E#:#{+F#G#H#A.I# +J#K#L#M#N#O#N#O#N#P#N#M#Q#R#S#T#5.U#V#V#W#X#",
"Y#Z#`# $.$+$@$#$@+$$%$&$*$=$-$+@-$+@-$+@-$=$;$>$,$'$)$!$p@p@o@~$",
"+#{$V#]$^$/$($_$:$<$[$D+E+}$|$1$j+}$}$}$}$}$2$s+3$4$5$P@ #6$Q@7$",
"i y++.8$y+9$0$a$b$c$d$e$f$g$h$D+i$E+j+2$E+E+j+I+J+j$k$H ( @ % % ",
"k I 4 # w l$m$n$o$p$q$r$s$s$r$t$r$u$i$h$v$w$i$x$t+y$-.z$p A$# 5 ",
"i # # 3 B$T Z@C$D$p$E$E$p$c$F$F$F$<$C+G$t$q$H$I$J$K$L$M$N$y+3 t ",
"I I m 9 O$P$Q$R$S$T$p$p$U$V$W$X$Y$Z$`$ %p$p$.%+%R+@%#%$%8$%.%%i ",
"&@&@&@J &%*%D R =%-%;%.%>%,%'%)%!%~%{%]%^%.%/%(%_%q J &@&@Q+r r ",
":%<%[%}%[%|%}.1%2%3%@+4%5%4.~+s.^$6%7%8%@+9%0%5.|%[@[@[@a%}@b%:%",
"c%d%e%f%g%d%h%d%i%j%k%O.l%m%n%o%[.p%q%r%k%s%t%u%v%w%w%x%c%x%c%c%"};
