/* XPM */
static char * enemy4_xpm[] = {
"32 32 833 2",
"  	c #BF9B5E",
". 	c #BF9B60",
"+ 	c #BE9A60",
"@ 	c #B4915A",
"# 	c #B5925A",
"$ 	c #B39058",
"% 	c #B7945C",
"& 	c #BF9E62",
"* 	c #C09D5F",
"= 	c #BF9B5F",
"- 	c #C19D61",
"; 	c #BF9C60",
"> 	c #BC985D",
", 	c #C09C61",
"' 	c #BB975D",
") 	c #BE9B61",
"! 	c #BF9A5E",
"~ 	c #BB9559",
"{ 	c #BD995C",
"] 	c #BE9C5E",
"^ 	c #BF9D5F",
"/ 	c #BC9A5D",
"( 	c #C0995F",
"_ 	c #BE985E",
": 	c #C29E62",
"< 	c #BE9A61",
"[ 	c #B8955E",
"} 	c #AF8E58",
"| 	c #967740",
"1 	c #B59158",
"2 	c #B9965E",
"3 	c #B8955F",
"4 	c #B99660",
"5 	c #B6935C",
"6 	c #B8955D",
"7 	c #B6935B",
"8 	c #B08D56",
"9 	c #B18E57",
"0 	c #B4925A",
"a 	c #B5945B",
"b 	c #B6955D",
"c 	c #BA9962",
"d 	c #B89460",
"e 	c #B79360",
"f 	c #B79460",
"g 	c #B89561",
"h 	c #B5935F",
"i 	c #AF8E5A",
"j 	c #B2905C",
"k 	c #B08F5A",
"l 	c #B4915B",
"m 	c #BB9760",
"n 	c #B28F59",
"o 	c #B5945E",
"p 	c #B2925E",
"q 	c #A48552",
"r 	c #B4935C",
"s 	c #B3935C",
"t 	c #B08F59",
"u 	c #AF8B57",
"v 	c #B18E59",
"w 	c #B7945E",
"x 	c #B5925C",
"y 	c #B18F57",
"z 	c #A6844F",
"A 	c #9F7E49",
"B 	c #A5844F",
"C 	c #A88751",
"D 	c #AD8E58",
"E 	c #AE8F59",
"F 	c #B1925C",
"G 	c #B3945E",
"H 	c #B4955E",
"I 	c #AE8F58",
"J 	c #AF9059",
"K 	c #A98853",
"L 	c #A6854F",
"M 	c #AA8954",
"N 	c #AB8A55",
"O 	c #B2925B",
"P 	c #B19058",
"Q 	c #B09056",
"R 	c #A7874D",
"S 	c #A7864E",
"T 	c #AD8D56",
"U 	c #AC8E57",
"V 	c #A1834D",
"W 	c #AD8E57",
"X 	c #AC8C56",
"Y 	c #A78650",
"Z 	c #A98751",
"` 	c #B18E58",
" .	c #B18E56",
"..	c #B5935B",
"+.	c #B4935D",
"@.	c #AE8D57",
"#.	c #AB8A54",
"$.	c #AF8F58",
"%.	c #B4955D",
"&.	c #AA8B54",
"*.	c #A88951",
"=.	c #AC8E54",
"-.	c #A28650",
";.	c #AE8F55",
">.	c #B09257",
",.	c #AF8F56",
"'.	c #B5955D",
").	c #B19057",
"!.	c #B3925C",
"~.	c #AC8B54",
"{.	c #A3824C",
"].	c #A68751",
"^.	c #A58751",
"/.	c #A0814D",
"(.	c #A5874F",
"_.	c #A78851",
":.	c #A68750",
"<.	c #AB8B53",
"[.	c #AD8D54",
"}.	c #AE8E55",
"|.	c #B29259",
"1.	c #B19158",
"2.	c #B39059",
"3.	c #B7945B",
"4.	c #B39359",
"5.	c #AC8D53",
"6.	c #AB8D53",
"7.	c #A1844E",
"8.	c #A88A51",
"9.	c #91784A",
"0.	c #5D4F36",
"a.	c #9E804D",
"b.	c #A98953",
"c.	c #A78752",
"d.	c #AA8958",
"e.	c #B28F5B",
"f.	c #B6925E",
"g.	c #AF8D5C",
"h.	c #A68553",
"i.	c #A48350",
"j.	c #AA8756",
"k.	c #AF8D5B",
"l.	c #B08F5D",
"m.	c #AE8E5E",
"n.	c #9A7B4A",
"o.	c #B1935D",
"p.	c #AB8C55",
"q.	c #A5864E",
"r.	c #B49159",
"s.	c #A6864E",
"t.	c #A3844D",
"u.	c #8C7345",
"v.	c #534832",
"w.	c #887144",
"x.	c #524733",
"y.	c #92784B",
"z.	c #A38754",
"A.	c #AD8F59",
"B.	c #957B4D",
"C.	c #62533A",
"D.	c #A68855",
"E.	c #AC8E56",
"F.	c #AF9058",
"G.	c #AD8D53",
"H.	c #B3945A",
"I.	c #B29359",
"J.	c #AB8C54",
"K.	c #967840",
"L.	c #9F7F4C",
"M.	c #A48451",
"N.	c #B3945F",
"O.	c #AB8C56",
"P.	c #A78953",
"Q.	c #9E804B",
"R.	c #9F814D",
"S.	c #A0824F",
"T.	c #997C4B",
"U.	c #9A7E4D",
"V.	c #9F8252",
"W.	c #A48754",
"X.	c #977E51",
"Y.	c #433B2E",
"Z.	c #38332A",
"`.	c #776442",
" +	c #41392B",
".+	c #7B663F",
"++	c #544934",
"@+	c #816C43",
"#+	c #4E4430",
"$+	c #877244",
"%+	c #9B804A",
"&+	c #9F854E",
"*+	c #9B824B",
"=+	c #A38951",
"-+	c #A58A52",
";+	c #A68950",
">+	c #A78A51",
",+	c #A3864D",
"'+	c #9A8047",
")+	c #8E733B",
"!+	c #8F6E3D",
"~+	c #997846",
"{+	c #9C7B49",
"]+	c #90713C",
"^+	c #967844",
"/+	c #8E6F3D",
"(+	c #8B6D3C",
"_+	c #82673A",
":+	c #4B402E",
"<+	c #373128",
"[+	c #41382A",
"}+	c #755E37",
"|+	c #6A5631",
"1+	c #2F2925",
"2+	c #3C2825",
"3+	c #432E27",
"4+	c #372528",
"5+	c #3E2C2A",
"6+	c #3F2A26",
"7+	c #442F28",
"8+	c #402F2A",
"9+	c #6D5531",
"0+	c #83693C",
"a+	c #7D6336",
"b+	c #775E35",
"c+	c #7B6138",
"d+	c #7B5F36",
"e+	c #7C6037",
"f+	c #85693F",
"g+	c #86693F",
"h+	c #795E35",
"i+	c #775C33",
"j+	c #B7905C",
"k+	c #B8925E",
"l+	c #BB9761",
"m+	c #B08D55",
"n+	c #A8854D",
"o+	c #B7955B",
"p+	c #B59259",
"q+	c #B39159",
"r+	c #8E754B",
"s+	c #322E28",
"t+	c #252423",
"u+	c #363027",
"v+	c #353027",
"w+	c #422926",
"x+	c #B64534",
"y+	c #BF483C",
"z+	c #A1485C",
"A+	c #A3485A",
"B+	c #C1483A",
"C+	c #914352",
"D+	c #524032",
"E+	c #9E8051",
"F+	c #A68753",
"G+	c #A98954",
"H+	c #A58752",
"I+	c #9E7F4A",
"J+	c #A0814C",
"K+	c #A68752",
"L+	c #A2824D",
"M+	c #A58650",
"N+	c #B7935E",
"O+	c #BA9561",
"P+	c #B7945F",
"Q+	c #B3925D",
"R+	c #A58754",
"S+	c #A48654",
"T+	c #A68654",
"U+	c #9B7F51",
"V+	c #463D2F",
"W+	c #272424",
"X+	c #2F2226",
"Y+	c #262223",
"Z+	c #2F2326",
"`+	c #472926",
" @	c #C94A35",
".@	c #DE6855",
"+@	c #EFD2CB",
"@@	c #EECBC4",
"#@	c #DC5E4C",
"$@	c #DE6857",
"%@	c #D3B5B0",
"&@	c #413C3B",
"*@	c #41332D",
"=@	c #504432",
"-@	c #A18556",
";@	c #B1915B",
">@	c #B2935C",
",@	c #B0905A",
"'@	c #B2925C",
")@	c #AF8F55",
"!@	c #B4965B",
"~@	c #A88C57",
"{@	c #554A35",
"]@	c #3B352B",
"^@	c #3A342A",
"/@	c #383229",
"(@	c #312427",
"_@	c #382328",
":@	c #802B3D",
"<@	c #54282E",
"[@	c #792740",
"}@	c #4E292A",
"|@	c #DC6855",
"1@	c #E6D4CA",
"2@	c #E5CEC3",
"3@	c #DB5F4B",
"4@	c #DC6957",
"5@	c #CAB8AF",
"6@	c #4B3B3D",
"7@	c #7E2A3E",
"8@	c #3E262B",
"9@	c #4B4131",
"0@	c #A4854F",
"a@	c #A5854F",
"b@	c #A4834D",
"c@	c #B4945C",
"d@	c #A98951",
"e@	c #AB8C53",
"f@	c #A98B54",
"g@	c #927A4D",
"h@	c #453C2F",
"i@	c #343029",
"j@	c #362428",
"k@	c #79273F",
"l@	c #5E2D2C",
"m@	c #C24638",
"n@	c #C24539",
"o@	c #9B2F44",
"p@	c #572A2D",
"q@	c #B94634",
"r@	c #B54837",
"s@	c #574844",
"t@	c #5E4743",
"u@	c #BC4937",
"v@	c #B54838",
"w@	c #52413F",
"x@	c #542C2C",
"y@	c #BB413B",
"z@	c #8E2E40",
"A@	c #322627",
"B@	c #4E4332",
"C@	c #A38653",
"D@	c #B1915A",
"E@	c #AF8E56",
"F@	c #B1915C",
"G@	c #AB8C57",
"H@	c #A58551",
"I@	c #A78855",
"J@	c #A78856",
"K@	c #977A4D",
"L@	c #7D6542",
"M@	c #3F2D2C",
"N@	c #8D2C43",
"O@	c #BC423A",
"P@	c #D24A3A",
"Q@	c #D84D38",
"R@	c #CB463C",
"S@	c #952F41",
"T@	c #55292D",
"U@	c #49282A",
"V@	c #372328",
"W@	c #382428",
"X@	c #4B282A",
"Y@	c #49242D",
"Z@	c #9C3241",
"`@	c #D34A3A",
" #	c #BB4337",
".#	c #372625",
"+#	c #3E362A",
"@#	c #9D804C",
"##	c #A6874F",
"$#	c #AB8B52",
"%#	c #AC8C53",
"&#	c #A5874D",
"*#	c #A4874C",
"=#	c #A78B50",
"-#	c #AC8F55",
";#	c #AF9157",
">#	c #A28753",
",#	c #453C2D",
"'#	c #292424",
")#	c #502531",
"!#	c #9E2E47",
"~#	c #B43646",
"{#	c #D54B3A",
"]#	c #D94D38",
"^#	c #9F3045",
"/#	c #992D46",
"(#	c #A23144",
"_#	c #CF483B",
":#	c #C04734",
"<#	c #3A2926",
"[#	c #4C4230",
"}#	c #A68955",
"|#	c #AE8F57",
"1#	c #A5864F",
"2#	c #A48650",
"3#	c #A08750",
"4#	c #9A8049",
"5#	c #9C834B",
"6#	c #9A8249",
"7#	c #9D854C",
"8#	c #8B7648",
"9#	c #332E27",
"0#	c #312327",
"a#	c #7D2742",
"b#	c #A02D4A",
"c#	c #BF433B",
"d#	c #D44C38",
"e#	c #CB4A36",
"f#	c #C44639",
"g#	c #CD483B",
"h#	c #C3463A",
"i#	c #CD483A",
"j#	c #C34639",
"k#	c #C54639",
"l#	c #D44C37",
"m#	c #C84A36",
"n#	c #AF4333",
"o#	c #46362C",
"p#	c #8D7348",
"q#	c #9E7E4A",
"r#	c #A1834F",
"s#	c #A28656",
"t#	c #A18656",
"u#	c #7A603A",
"v#	c #7B603B",
"w#	c #7A5F3A",
"x#	c #7C623A",
"y#	c #7C653F",
"z#	c #43392B",
"A#	c #312D27",
"B#	c #262323",
"C#	c #42242C",
"D#	c #7C2841",
"E#	c #5C2D2B",
"F#	c #A64132",
"G#	c #623029",
"H#	c #A84535",
"I#	c #734740",
"J#	c #AA4738",
"K#	c #744740",
"L#	c #5F423D",
"M#	c #3D2A27",
"N#	c #3A3228",
"O#	c #8E7042",
"P#	c #967746",
"Q#	c #8A6E3D",
"R#	c #7B6233",
"S#	c #796032",
"T#	c #B18F59",
"U#	c #B9955F",
"V#	c #B5915C",
"W#	c #A78755",
"X#	c #9A7D50",
"Y#	c #483E2F",
"Z#	c #383129",
"`#	c #322427",
" $	c #282323",
".$	c #382624",
"+$	c #292323",
"@$	c #544541",
"#$	c #A8A19A",
"$$	c #665753",
"%$	c #BCB4AD",
"&$	c #645551",
"*$	c #A8A09A",
"=$	c #665854",
"-$	c #BBB4AD",
";$	c #655651",
">$	c #A49F99",
",$	c #393735",
"'$	c #514533",
")$	c #B18D59",
"!$	c #BA955D",
"~$	c #BA965E",
"{$	c #AE8E56",
"]$	c #A88952",
"^$	c #9D7F47",
"/$	c #BA955E",
"($	c #B6925B",
"_$	c #B5935C",
":$	c #9E804E",
"<$	c #92774B",
"[$	c #242423",
"}$	c #222222",
"|$	c #272726",
"1$	c #3D3C3B",
"2$	c #4A4947",
"3$	c #B7B3AC",
"4$	c #3F3E3D",
"5$	c #3C3C3A",
"6$	c #4C4B49",
"7$	c #B6B3AB",
"8$	c #3E3D3C",
"9$	c #3E3D3B",
"0$	c #4D4333",
"a$	c #9F8050",
"b$	c #B5915A",
"c$	c #B7955F",
"d$	c #A1834B",
"e$	c #B2925A",
"f$	c #B5955E",
"g$	c #B4925C",
"h$	c #A88852",
"i$	c #957A49",
"j$	c #927746",
"k$	c #9E814D",
"l$	c #7E6943",
"m$	c #302C27",
"n$	c #272727",
"o$	c #252525",
"p$	c #37322A",
"q$	c #907850",
"r$	c #B4935F",
"s$	c #B5945F",
"t$	c #AA8B55",
"u$	c #977944",
"v$	c #B09057",
"w$	c #B3935B",
"x$	c #B6955E",
"y$	c #B0905B",
"z$	c #967D51",
"A$	c #443C2D",
"B$	c #836E47",
"C$	c #41392C",
"D$	c #262525",
"E$	c #282827",
"F$	c #282726",
"G$	c #4A4131",
"H$	c #9A8051",
"I$	c #AA8C54",
"J$	c #B0915A",
"K$	c #AF905A",
"L$	c #997A44",
"M$	c #A5854C",
"N$	c #A7874E",
"O$	c #B08E56",
"P$	c #A78957",
"Q$	c #524634",
"R$	c #262523",
"S$	c #312D26",
"T$	c #242322",
"U$	c #3E3E3C",
"V$	c #4B4947",
"W$	c #B8B4AD",
"X$	c #403F3E",
"Y$	c #2B2A2A",
"Z$	c #4D4C4A",
"`$	c #B7B3AD",
" %	c #403F3D",
".%	c #483F2F",
"+%	c #917846",
"@%	c #A2844A",
"#%	c #A5864C",
"$%	c #A5854E",
"%%	c #AA8A54",
"&%	c #A68650",
"*%	c #8A734C",
"=%	c #252223",
"-%	c #272224",
";%	c #4E4142",
">%	c #A8A09B",
",%	c #665752",
"'%	c #BBB3AC",
")%	c #655552",
"!%	c #63534E",
"~%	c #675853",
"{%	c #B9B2AB",
"]%	c #5F5353",
"^%	c #A39F99",
"/%	c #3A3836",
"(%	c #564A34",
"_%	c #A58955",
":%	c #B59660",
"<%	c #B4955F",
"[%	c #A1824C",
"}%	c #9D8250",
"|%	c #9F8351",
"1%	c #A28352",
"2%	c #A78857",
"3%	c #91764D",
"4%	c #272423",
"5%	c #322327",
"6%	c #832C3E",
"7%	c #592A2E",
"8%	c #883041",
"9%	c #6F4340",
"0%	c #AB4738",
"a%	c #73453F",
"b%	c #73463F",
"c%	c #6D4241",
"d%	c #883244",
"e%	c #503B3F",
"f%	c #3A342C",
"g%	c #866F46",
"h%	c #9E8152",
"i%	c #9E8151",
"j%	c #A58959",
"k%	c #A28556",
"l%	c #9B7E4F",
"m%	c #917445",
"n%	c #88703E",
"o%	c #856C3B",
"p%	c #7E6231",
"q%	c #7F6538",
"r%	c #483D2B",
"s%	c #453B2C",
"t%	c #705A35",
"u%	c #3F2D2A",
"v%	c #7A2741",
"w%	c #57282F",
"x%	c #BB423B",
"y%	c #C3453A",
"z%	c #D0493A",
"A%	c #CC4A36",
"B%	c #D54D37",
"C%	c #CC4B36",
"D%	c #C9463C",
"E%	c #902F3F",
"F%	c #3F312A",
"G%	c #765E36",
"H%	c #82673C",
"I%	c #7C6135",
"J%	c #7E6338",
"K%	c #7C6136",
"L%	c #7B6236",
"M%	c #796034",
"N%	c #B7975A",
"O%	c #B29357",
"P%	c #A6874C",
"Q%	c #A08248",
"R%	c #9E824D",
"S%	c #A78A52",
"T%	c #A68854",
"U%	c #44332D",
"V%	c #852744",
"W%	c #95294A",
"X%	c #A52D4B",
"Y%	c #B33647",
"Z%	c #D54B39",
"`%	c #DA4E37",
" &	c #D44A3A",
".&	c #BB4436",
"+&	c #49372D",
"@&	c #907448",
"#&	c #AB8954",
"$&	c #B08D58",
"%&	c #B5925B",
"&&	c #A78653",
"*&	c #AC8C59",
"=&	c #A88754",
"-&	c #AC8B59",
";&	c #9A7D55",
">&	c #39302B",
",&	c #4E2431",
"'&	c #96284B",
")&	c #A62D4C",
"!&	c #C84340",
"~&	c #D2493C",
"{&	c #D24A3C",
"]&	c #CC453E",
"^&	c #B13448",
"/&	c #CE473D",
"(&	c #D34A3B",
"_&	c #4D4232",
":&	c #AA8B59",
"<&	c #B28F58",
"[&	c #B7945D",
"}&	c #B9965F",
"|&	c #A98852",
"1&	c #B2915C",
"2&	c #B4935E",
"3&	c #AF8F5B",
"4&	c #987D53",
"5&	c #433A2E",
"6&	c #8A2847",
"7&	c #9F294E",
"8&	c #A12A4F",
"9&	c #A62D4D",
"0&	c #A52D4D",
"a&	c #A12A4E",
"b&	c #AD324A",
"c&	c #CE463D",
"d&	c #CB453E",
"e&	c #AB304B",
"f&	c #B94338",
"g&	c #392926",
"h&	c #504532",
"i&	c #A58853",
"j&	c #AD8E55",
"k&	c #B29258",
"l&	c #B4945A",
"m&	c #B4955B",
"n&	c #B7985E",
"o&	c #A08350",
"p&	c #453C2E",
"q&	c #3A332A",
"r&	c #47332E",
"s&	c #892946",
"t&	c #9E294E",
"u&	c #A0294F",
"v&	c #9D294E",
"w&	c #912849",
"x&	c #902849",
"y&	c #912948",
"z&	c #962C46",
"A&	c #982C47",
"B&	c #A32D4B",
"C&	c #8A2D42",
"D&	c #544334",
"E&	c #967C4C",
"F&	c #9D7E47",
"G&	c #A98A52",
"H&	c #B2915A",
"I&	c #AE8D56",
"J&	c #AE9059",
"K&	c #AB8D56",
"L&	c #AC8D56",
"M&	c #544833",
"N&	c #8F7548",
"O&	c #91764A",
"P&	c #5B3D36",
"Q&	c #8A2947",
"R&	c #872A46",
"S&	c #4F3431",
"T&	c #46352E",
"U&	c #44332C",
"V&	c #46342D",
"W&	c #47352E",
"X&	c #43322D",
"Y&	c #44252D",
"Z&	c #872745",
"`&	c #842A44",
" *	c #5A4034",
".*	c #94784B",
"+*	c #A58653",
"@*	c #A58552",
"#*	c #A88856",
"$*	c #AA8957",
"%*	c #B0905D",
"&*	c #B3935E",
"**	c #A28850",
"=*	c #A2874F",
"-*	c #A58850",
";*	c #A98C55",
">*	c #A68B57",
",*	c #AE915A",
"'*	c #AF915C",
")*	c #9B7E54",
"!*	c #4F3132",
"~*	c #922849",
"{*	c #872945",
"]*	c #5B4136",
"^*	c #9A7D51",
"/*	c #A38554",
"(*	c #967847",
"_*	c #987946",
":*	c #9A7D49",
"<*	c #8C7243",
"[*	c #473D2F",
"}*	c #45362F",
"|*	c #463730",
"1*	c #564536",
"2*	c #997E4E",
"3*	c #AE9158",
"4*	c #AB8D54",
"5*	c #A3854C",
"6*	c #A7894F",
"7*	c #A3854B",
"8*	c #A6884E",
"9*	c #A08953",
"0*	c #9F864F",
"a*	c #997F48",
"b*	c #9E834C",
"c*	c #9F834C",
"d*	c #9C814A",
"e*	c #9C814B",
"f*	c #967B51",
"g*	c #42302D",
"h*	c #77263F",
"i*	c #4A3230",
"j*	c #93774D",
"k*	c #A1814F",
"l*	c #A2824F",
"m*	c #9A7A45",
"n*	c #A78652",
"o*	c #A88853",
"p*	c #A68652",
"q*	c #9A7D4F",
"r*	c #967B4E",
"s*	c #947B4E",
"t*	c #92794C",
"u*	c #9D8251",
"v*	c #9B824C",
"w*	c #9A814A",
"x*	c #9C824B",
"y*	c #998048",
"z*	c #9F854D",
"A*	c #A0854E",
"B*	c #A48951",
"C*	c #735B31",
"D*	c #745B31",
"E*	c #80653A",
"F*	c #85683E",
"G*	c #7E6137",
"H*	c #7A5D33",
"I*	c #7F633A",
"J*	c #74592F",
"K*	c #6A542C",
"L*	c #383025",
"M*	c #3A2D29",
"N*	c #886E42",
"O*	c #876B3B",
"P*	c #917341",
"Q*	c #947543",
"R*	c #997949",
"S*	c #957545",
"T*	c #88693A",
"U*	c #846739",
"V*	c #806437",
"W*	c #74592E",
"X*	c #745A31",
"Y*	c #786137",
"Z*	c #705734",
"`*	c #6F5833",
" =	c #6E5731",
".=	c #6D5530",
"+=	c #715833",
"@=	c #705732",
"#=	c #715832",
"  . + @ # $ % & * = - ; > , ' ) ! ~ { { - ] ^ / ; ( _ : < [ } | ",
"1 2 [ 3 4 5 6 7 7 8 @ 9 0 a b c d e f g h i j k l 2 m [ n o p q ",
"r s t u v w x y z A B C D E E F G H I J K L M N O P Q R S T U V ",
"W E X Y Z `  ...+.@.#.$.O %.&.*.=.-.;.>.,.'.)...o !.t ~.{.].^./.",
"(._.:.<.[.}.|.1.2.5 3.4.5.6.7.8.9.0.a.b.c.d.e.f.g.h.i.j.k.l.m.n.",
"o.p.p.*.q.q.T T # r.,.s.t.u.v.w.x.y.z.A.B.C.D.t E.F.G.H.|.I.J.K.",
"L.M.N.O.P.Q.R.S.T.U.V.W.X.Y.Z.`. +.+++@+#+$+%+&+*+=+-+;+>+,+'+)+",
"!+~+{+]+^+/+(+_+:+<+[+}+|+1+2+3+4+5+6+7+8+9+0+a+b+c+d+e+f+g+h+i+",
"j+k+l+m+n+o+p+q+r+s+t+u+v+w+x+y+z+A+B+y+C+D+E+F+O.G+H+I+J+K+L+M+",
"N+O+P+Q+R+S+T+U+V+W+X+Y+Z+`+ @.@+@@@#@$@%@&@*@=@-@;@>@E ,@'@+.% ",
"Q )@!@~@{@]@^@/@(@_@:@<@[@}@ @|@1@2@3@4@5@6@7@8@9@B.].0@a@b@n 2 ",
"c@d@e@f@g@h@i@j@k@l@m@n@o@p@q@r@s@t@u@v@w@x@y@z@A@B@C@p.D@E@# % ",
"F@G@H@I@J@K@L@M@N@O@P@Q@R@S@T@U@V@W@X@U@Y@Z@`@ #.#+#@###$#%#}.G.",
"&#*#=#-#;#>#,#'#)#!#~#{#]#R@^#/#/#/#/#/#(#_#]#:#<#[#}#|#q.1#_.2#",
"3#4#5#6#7#8#9#0#a#b#c#d#e#d#f#g#h#i#j#g#k#l#m#n#o#p#q#M+r#C@s#t#",
"u#v#w#x#y#z#A#B#C#D#E#F#G#H#I#J#I#J#I#J#K#J#L#M#N#O#!+~+P#Q#R#S#",
"T#n 5 U#V#W#X#Y#Z#`# $.$+$@$#$$$%$&$*$=$-$;$>$,$'$)$!$~$q+{$]$^$",
",.$ 7 /$($_$@.:$<$Y.[$}$}$|$1$2$3$4$5$6$7$8$9$0$a$b$w c$$.$.J d$",
"e$f$g$t h$K+i$j$k$l$m$}$}$}$}$n$5$o$}$n$5$o$p$q$r$s$t$].:.].^.u$",
"v$w$x$+.y$z$Y.A$B$C$[$}$}$}$n$8$D$}$}$}$E$8$F$G$H$I$*.J.I J$K$L$",
"M$N$O$` P$Q$R$[$S$T$}$}$n$U$V$W$X$U$Y$U$Z$`$U$ %.%+%@%#%v$|.e$$%",
"G %%&%C i *%A#}$}$=%0#-%;%>%,%'%)%*$!%*$~%{%]%^%/%(%_%J$:%<%F [%",
"}%|%1%2%3%Y.A#4%5%W@6%7%8%9%0%a%0%b%0%b%0%c%d%e%f%g%h%i%j%k%l%m%",
"n%o%p%q%r%s%t%u%v%w%x%y%z%A%B%C%B%A%B%A%B%e#D%E%F%G%H%I%J%K%L%M%",
"N%O%P%Q%R%S%T%U%V%W%X%Y%Z%`%]# &]#`%`%`%`%`%]#.&+&@&#&$&5 @ % %&",
"Q+K &&*&=&-&;&>&,&'&)&!&~&{&]&^&/&(&]#]#(&(&]#:#<#_&:&!.n <&[&}&",
"|&@.1&2&3&4&5&j@6&7&8&9&9&9&0&a&9&b&c&d&e&b&c&f&g&h&i&J.j&k&l&Q ",
"m&H.n&P o&p&q&r&s&t&u&u&v&w&x&x&x&y&z&A&7&a&B&C&D&E&M+F&:.G&H&I&",
"J&K&L&1#U.M&N&O&P&Q&t&v&R&S&T&U&V&W&X&Y&Z&x&`& *.*+*@*#*$*%*F@&*",
"**=*-*I$;*>*,*'*)*!*~*{*]*^*/*(*_*:*<*[*}*|*1*2*3*4**.5*6*7*&#8*",
"9*0*a*b*c*d*e*_%f*g*h*i*j*k*l*m*n*o*p*q*r*s*t*u*v*w*x*y*z*d*A*B*",
"C*D*E*F*G*H*I*J*K*L*M*[+N*O*P*Q*R*S*T*U*V*W*X*Y*Z*`* =.=+=@=@=#="};
